<svg xmlns="http://www.w3.org/2000/svg" xmlns:xlink="http://www.w3.org/1999/xlink" width="1080" zoomAndPan="magnify" viewBox="0 0 810 809.999993" height="1080" preserveAspectRatio="xMidYMid meet" version="1.0"><defs><g/><clipPath id="d5456432f8"><path d="M 237 220 L 572.828125 220 L 572.828125 469 L 237 469 Z M 237 220 " clip-rule="nonzero"/></clipPath></defs><rect x="-81" width="972" fill="#ffffff" y="-80.999999" height="971.999992" fill-opacity="1"/><rect x="-81" width="972" fill="#ffffff" y="-80.999999" height="971.999992" fill-opacity="1"/><g clip-path="url(#d5456432f8)"><path fill="#000000" d="M 568.703125 416.375 C 567.671875 414.46875 566.476562 412.671875 565.117188 410.988281 C 563.753906 409.300781 562.253906 407.753906 560.609375 406.34375 C 558.964844 404.933594 557.203125 403.683594 555.332031 402.597656 C 553.457031 401.511719 551.5 400.605469 549.457031 399.878906 C 546.308594 400.816406 543.113281 401.574219 539.875 402.140625 C 532.695312 403.527344 525.917969 404.832031 519.480469 411.1875 C 513.03125 417.558594 510.808594 423.441406 508.453125 429.675781 C 507.003906 433.511719 505.507812 437.476562 502.984375 441.4375 C 503.34375 443.40625 503.917969 445.308594 504.707031 447.148438 C 505.335938 448.664062 506.070312 450.128906 506.902344 451.542969 C 507.738281 452.957031 508.664062 454.304688 509.6875 455.589844 C 510.707031 456.875 511.8125 458.082031 513 459.214844 C 514.191406 460.347656 515.453125 461.390625 516.785156 462.347656 C 518.121094 463.300781 519.515625 464.160156 520.96875 464.921875 C 522.421875 465.683594 523.921875 466.34375 525.46875 466.898438 C 527.011719 467.449219 528.589844 467.894531 530.195312 468.230469 C 531.800781 468.5625 533.425781 468.785156 535.0625 468.894531 C 536.699219 469.003906 538.339844 469 539.976562 468.878906 C 541.613281 468.761719 543.234375 468.53125 544.839844 468.1875 C 546.441406 467.84375 548.015625 467.386719 549.558594 466.824219 C 551.101562 466.261719 552.597656 465.597656 554.046875 464.824219 C 555.496094 464.054688 556.882812 463.1875 558.210938 462.222656 C 559.539062 461.257812 560.796875 460.207031 561.980469 459.070312 C 563.160156 457.929688 564.257812 456.714844 565.273438 455.425781 C 566.285156 454.132812 567.207031 452.78125 568.03125 451.359375 C 568.441406 450.667969 568.828125 449.964844 569.191406 449.242188 C 571.238281 445.179688 572.457031 440.878906 572.839844 436.34375 C 572.925781 435.34375 572.992188 434.335938 572.992188 433.3125 C 572.996094 430.355469 572.636719 427.441406 571.910156 424.574219 C 571.183594 421.707031 570.113281 418.972656 568.703125 416.375 Z M 556.335938 438.304688 C 556.226562 438.691406 556.101562 439.078125 555.96875 439.460938 C 555.835938 439.84375 555.691406 440.21875 555.53125 440.59375 C 555.375 440.964844 555.207031 441.332031 555.027344 441.695312 C 554.84375 442.058594 554.652344 442.414062 554.449219 442.765625 C 554.246094 443.117188 554.035156 443.457031 553.808594 443.796875 C 553.585938 444.132812 553.351562 444.460938 553.105469 444.785156 C 552.859375 445.105469 552.605469 445.421875 552.339844 445.726562 C 552.074219 446.03125 551.800781 446.332031 551.515625 446.621094 C 551.234375 446.910156 550.941406 447.1875 550.640625 447.460938 C 550.339844 447.730469 550.03125 447.992188 549.710938 448.242188 C 549.394531 448.492188 549.070312 448.734375 548.738281 448.964844 C 548.40625 449.195312 548.066406 449.414062 547.71875 449.625 C 547.371094 449.835938 547.019531 450.035156 546.660156 450.21875 C 546.300781 450.40625 545.9375 450.585938 545.566406 450.75 C 545.199219 450.914062 544.824219 451.066406 544.445312 451.207031 C 544.066406 451.347656 543.679688 451.476562 543.292969 451.59375 C 542.90625 451.710938 542.515625 451.816406 542.121094 451.90625 C 541.726562 452 541.332031 452.082031 540.929688 452.148438 C 540.53125 452.214844 540.132812 452.269531 539.730469 452.3125 C 539.324219 452.355469 538.921875 452.386719 538.519531 452.402344 C 538.113281 452.417969 537.707031 452.421875 537.304688 452.414062 C 536.898438 452.40625 536.496094 452.386719 536.09375 452.351562 C 535.6875 452.316406 535.285156 452.273438 534.886719 452.214844 C 534.484375 452.152344 534.085938 452.082031 533.691406 452 C 533.296875 451.914062 532.902344 451.820312 532.511719 451.710938 C 532.121094 451.601562 531.734375 451.480469 531.355469 451.347656 C 530.972656 451.214844 530.59375 451.070312 530.21875 450.914062 C 529.847656 450.757812 529.476562 450.589844 529.117188 450.410156 C 528.753906 450.230469 528.394531 450.039062 528.046875 449.835938 C 527.695312 449.636719 527.351562 449.421875 527.011719 449.199219 C 526.675781 448.976562 526.34375 448.742188 526.023438 448.496094 C 525.699219 448.253906 525.382812 448 525.078125 447.734375 C 524.769531 447.472656 524.472656 447.199219 524.183594 446.914062 C 523.894531 446.632812 523.613281 446.339844 523.339844 446.039062 C 523.070312 445.738281 522.808594 445.429688 522.554688 445.113281 C 522.304688 444.796875 522.0625 444.472656 521.832031 444.140625 C 521.597656 443.808594 521.378906 443.46875 521.167969 443.125 C 520.957031 442.777344 520.757812 442.425781 520.570312 442.066406 C 520.382812 441.710938 520.203125 441.34375 520.039062 440.976562 C 519.875 440.605469 519.71875 440.230469 519.578125 439.851562 C 519.4375 439.472656 519.304688 439.089844 519.1875 438.703125 C 519.070312 438.316406 518.964844 437.925781 518.871094 437.53125 C 518.777344 437.136719 518.695312 436.742188 518.628906 436.34375 C 518.558594 435.945312 518.503906 435.542969 518.460938 435.140625 C 518.417969 434.738281 518.386719 434.335938 518.367188 433.929688 C 518.347656 433.527344 518.34375 433.121094 518.351562 432.714844 C 518.359375 432.3125 518.378906 431.90625 518.410156 431.503906 C 518.445312 431.101562 518.488281 430.699219 518.546875 430.296875 C 518.605469 429.898438 518.675781 429.5 518.757812 429.101562 C 518.839844 428.707031 518.9375 428.3125 519.042969 427.921875 C 519.152344 427.53125 519.269531 427.144531 519.402344 426.761719 C 519.535156 426.378906 519.679688 426.003906 519.832031 425.628906 C 519.988281 425.253906 520.15625 424.886719 520.335938 424.523438 C 520.515625 424.160156 520.703125 423.800781 520.90625 423.449219 C 521.105469 423.097656 521.316406 422.753906 521.539062 422.417969 C 521.761719 422.078125 521.996094 421.746094 522.238281 421.425781 C 522.484375 421.101562 522.738281 420.785156 523 420.476562 C 523.261719 420.171875 523.535156 419.871094 523.816406 419.582031 C 524.101562 419.289062 524.390625 419.007812 524.691406 418.738281 C 524.988281 418.464844 525.296875 418.203125 525.613281 417.949219 C 525.929688 417.695312 526.253906 417.453125 526.585938 417.222656 C 526.917969 416.988281 527.253906 416.765625 527.601562 416.554688 C 527.945312 416.34375 528.296875 416.144531 528.65625 415.957031 C 529.011719 415.765625 529.375 415.589844 529.746094 415.421875 C 530.113281 415.253906 530.488281 415.101562 530.867188 414.957031 C 531.246094 414.816406 531.628906 414.683594 532.015625 414.566406 C 532.402344 414.445312 532.792969 414.339844 533.1875 414.246094 C 533.582031 414.148438 533.976562 414.066406 534.375 414 C 534.773438 413.929688 535.175781 413.871094 535.578125 413.828125 C 535.980469 413.78125 536.382812 413.75 536.789062 413.730469 C 537.191406 413.714844 537.597656 413.707031 538 413.714844 C 538.40625 413.71875 538.808594 413.738281 539.214844 413.769531 C 539.617188 413.800781 540.019531 413.84375 540.421875 413.902344 C 540.820312 413.960938 541.21875 414.027344 541.617188 414.109375 C 542.011719 414.191406 542.40625 414.285156 542.796875 414.394531 C 543.1875 414.5 543.574219 414.617188 543.957031 414.75 C 544.339844 414.878906 544.71875 415.023438 545.09375 415.175781 C 545.46875 415.332031 545.835938 415.496094 546.199219 415.675781 C 546.5625 415.851562 546.921875 416.042969 547.273438 416.242188 C 547.625 416.441406 547.96875 416.652344 548.308594 416.875 C 548.648438 417.097656 548.980469 417.328125 549.304688 417.574219 C 549.625 417.816406 549.941406 418.066406 550.25 418.332031 C 550.558594 418.59375 550.859375 418.863281 551.148438 419.144531 C 551.441406 419.425781 551.722656 419.71875 551.996094 420.015625 C 552.269531 420.316406 552.53125 420.621094 552.785156 420.9375 C 553.039062 421.253906 553.285156 421.578125 553.515625 421.90625 C 553.75 422.238281 553.972656 422.574219 554.183594 422.921875 C 554.398438 423.265625 554.597656 423.617188 554.789062 423.972656 C 554.980469 424.332031 555.15625 424.695312 555.324219 425.0625 C 555.492188 425.429688 555.648438 425.804688 555.792969 426.183594 C 555.9375 426.5625 556.066406 426.945312 556.1875 427.332031 C 556.308594 427.71875 556.414062 428.109375 556.511719 428.5 C 556.605469 428.894531 556.6875 429.289062 556.761719 429.6875 C 556.832031 430.085938 556.886719 430.488281 556.933594 430.890625 C 556.980469 431.292969 557.011719 431.695312 557.03125 432.101562 C 557.050781 432.503906 557.058594 432.910156 557.054688 433.3125 C 557.03125 435.007812 556.789062 436.671875 556.335938 438.304688 Z M 521.757812 405.78125 C 523.742188 404.398438 525.863281 403.269531 528.117188 402.398438 C 528.832031 402.117188 529.546875 401.867188 530.265625 401.632812 C 533.132812 400.769531 536.042969 400.082031 538.992188 399.566406 C 539.726562 399.425781 540.464844 399.28125 541.207031 399.136719 C 542.246094 398.933594 543.289062 398.710938 544.339844 398.46875 C 544.78125 398.367188 545.226562 398.269531 545.671875 398.160156 C 548 397.597656 550.265625 396.851562 552.46875 395.917969 C 553.90625 395.304688 555.292969 394.597656 556.632812 393.792969 C 557.207031 393.445312 557.722656 393.105469 558.179688 392.78125 C 559.394531 391.984375 560.46875 391.03125 561.410156 389.925781 C 558.457031 387.730469 555.265625 385.960938 551.835938 384.617188 C 551.554688 384.5 551.273438 384.378906 550.988281 384.269531 C 549.457031 383.683594 547.902344 383.179688 546.316406 382.761719 C 546.011719 382.679688 545.707031 382.609375 545.398438 382.535156 C 543.734375 382.121094 542.046875 381.796875 540.347656 381.570312 C 538.59375 381.363281 536.835938 381.25 535.070312 381.234375 C 534.734375 381.230469 534.398438 381.214844 534.0625 381.21875 C 532.675781 381.230469 531.28125 381.285156 529.878906 381.425781 C 524.210938 381.996094 518.835938 383.558594 513.746094 386.121094 L 516.667969 381.886719 L 518.101562 379.804688 C 518.785156 378.816406 519.335938 377.757812 519.761719 376.632812 C 520.1875 375.507812 520.472656 374.347656 520.617188 373.152344 C 520.757812 371.957031 520.757812 370.765625 520.609375 369.570312 C 520.464844 368.375 520.175781 367.21875 519.746094 366.09375 L 500.691406 316.125 L 512.4375 317.996094 C 512.734375 318.042969 513.035156 318.054688 513.335938 318.039062 C 513.636719 318.019531 513.933594 317.972656 514.222656 317.890625 C 514.511719 317.808594 514.789062 317.695312 515.054688 317.554688 C 515.324219 317.410156 515.570312 317.242188 515.800781 317.046875 C 516.027344 316.851562 516.234375 316.632812 516.417969 316.390625 C 516.597656 316.152344 516.753906 315.894531 516.878906 315.621094 C 517.003906 315.347656 517.101562 315.0625 517.167969 314.769531 C 517.230469 314.472656 517.261719 314.175781 517.261719 313.875 L 517.261719 291.9375 C 517.261719 291.636719 517.230469 291.339844 517.164062 291.042969 C 517.101562 290.75 517.003906 290.464844 516.878906 290.191406 C 516.753906 289.917969 516.597656 289.660156 516.417969 289.421875 C 516.234375 289.179688 516.027344 288.960938 515.800781 288.765625 C 515.570312 288.570312 515.324219 288.402344 515.054688 288.257812 C 514.789062 288.117188 514.511719 288.003906 514.222656 287.921875 C 513.933594 287.839844 513.636719 287.792969 513.335938 287.773438 C 513.035156 287.753906 512.734375 287.769531 512.4375 287.816406 L 485.507812 292.101562 C 484.929688 292.195312 484.390625 292.382812 483.882812 292.667969 C 483.371094 292.953125 482.929688 293.316406 482.550781 293.757812 C 482.171875 294.203125 481.882812 294.695312 481.683594 295.242188 C 481.480469 295.789062 481.378906 296.355469 481.378906 296.9375 L 481.378906 300.980469 C 480.96875 300.894531 480.554688 300.839844 480.132812 300.820312 L 458.667969 300.546875 C 457.941406 300.519531 457.257812 300.34375 456.605469 300.019531 C 455.957031 299.699219 455.40625 299.257812 454.945312 298.695312 L 435.511719 274.753906 C 424.765625 261.578125 406.417969 265.679688 402.960938 282.332031 L 392.863281 320.304688 C 392.699219 321.074219 392.574219 321.851562 392.484375 322.636719 C 392.394531 323.421875 392.34375 324.207031 392.328125 324.996094 C 392.3125 325.785156 392.332031 326.570312 392.386719 327.359375 C 392.445312 328.144531 392.539062 328.925781 392.667969 329.707031 C 392.796875 330.484375 392.960938 331.253906 393.164062 332.015625 C 393.363281 332.78125 393.597656 333.53125 393.871094 334.273438 C 394.140625 335.011719 394.445312 335.738281 394.78125 336.453125 C 395.121094 337.164062 395.492188 337.859375 395.894531 338.539062 C 396.296875 339.21875 396.730469 339.875 397.195312 340.511719 C 397.65625 341.152344 398.148438 341.765625 398.671875 342.359375 C 399.191406 342.953125 399.738281 343.519531 400.3125 344.058594 C 400.882812 344.601562 401.480469 345.117188 402.101562 345.601562 C 402.722656 346.089844 403.367188 346.542969 404.03125 346.972656 C 404.691406 347.398438 405.375 347.792969 406.074219 348.15625 C 406.773438 348.519531 407.488281 348.851562 408.222656 349.148438 C 408.953125 349.445312 409.695312 349.707031 410.449219 349.933594 L 348.054688 349.933594 C 347.75 349.933594 347.453125 349.992188 347.171875 350.109375 C 346.890625 350.226562 346.640625 350.394531 346.421875 350.613281 C 346.207031 350.828125 346.039062 351.078125 345.921875 351.359375 C 345.804688 351.644531 345.746094 351.9375 345.746094 352.246094 L 345.746094 360.925781 C 345.746094 361.234375 345.804688 361.527344 345.921875 361.808594 C 346.042969 362.09375 346.207031 362.339844 346.425781 362.558594 C 346.640625 362.773438 346.890625 362.941406 347.171875 363.058594 C 347.457031 363.175781 347.75 363.234375 348.054688 363.234375 L 434.542969 363.234375 C 434.851562 363.234375 435.144531 363.175781 435.425781 363.058594 C 435.710938 362.941406 435.960938 362.773438 436.175781 362.558594 C 436.394531 362.34375 436.558594 362.09375 436.675781 361.808594 C 436.792969 361.527344 436.855469 361.234375 436.855469 360.925781 L 436.855469 354.054688 L 448.644531 355.75 L 439.3125 397.265625 C 439.203125 397.878906 439.15625 398.5 439.167969 399.125 C 439.179688 399.753906 439.253906 400.371094 439.386719 400.984375 C 439.519531 401.59375 439.707031 402.1875 439.957031 402.761719 C 440.207031 403.335938 440.507812 403.882812 440.863281 404.398438 C 441.214844 404.914062 441.617188 405.390625 442.066406 405.828125 C 442.511719 406.265625 442.996094 406.65625 443.523438 406.996094 C 444.046875 407.339844 444.597656 407.628906 445.175781 407.863281 C 445.757812 408.101562 446.355469 408.277344 446.96875 408.394531 C 447.582031 408.515625 448.203125 408.574219 448.828125 408.570312 C 449.457031 408.570312 450.074219 408.507812 450.6875 408.382812 C 451.300781 408.261719 451.898438 408.078125 452.476562 407.839844 C 453.054688 407.601562 453.605469 407.308594 454.125 406.960938 C 454.648438 406.617188 455.132812 406.222656 455.574219 405.78125 C 456.019531 405.339844 456.417969 404.863281 456.769531 404.34375 C 457.121094 403.828125 457.417969 403.277344 457.664062 402.703125 C 457.90625 402.125 458.09375 401.53125 458.222656 400.921875 L 469.753906 355.105469 C 469.871094 354.558594 469.960938 354.003906 470.023438 353.445312 C 470.085938 352.886719 470.121094 352.324219 470.128906 351.761719 C 470.132812 351.203125 470.113281 350.640625 470.066406 350.082031 C 470.015625 349.519531 469.941406 348.964844 469.835938 348.410156 C 469.730469 347.859375 469.601562 347.3125 469.445312 346.773438 C 469.285156 346.234375 469.101562 345.703125 468.890625 345.183594 C 468.679688 344.660156 468.445312 344.152344 468.183594 343.652344 C 467.925781 343.15625 467.640625 342.671875 467.332031 342.203125 C 467.023438 341.730469 466.691406 341.277344 466.339844 340.839844 C 465.984375 340.402344 465.609375 339.984375 465.214844 339.585938 C 464.820312 339.183594 464.40625 338.804688 463.972656 338.445312 C 463.542969 338.085938 463.09375 337.75 462.625 337.4375 C 462.160156 337.121094 461.679688 336.832031 461.1875 336.5625 C 460.691406 336.296875 460.183594 336.054688 459.667969 335.835938 C 459.148438 335.621094 458.621094 335.429688 458.082031 335.265625 C 457.542969 335.101562 457 334.964844 456.449219 334.851562 C 446.742188 332.902344 434.675781 330.546875 428.402344 329.328125 C 428.125 329.277344 427.855469 329.195312 427.597656 329.085938 C 427.335938 328.980469 427.089844 328.847656 426.855469 328.6875 C 426.621094 328.53125 426.40625 328.351562 426.210938 328.152344 C 426.011719 327.949219 425.835938 327.730469 425.683594 327.496094 C 425.53125 327.257812 425.402344 327.011719 425.296875 326.75 C 425.195312 326.484375 425.117188 326.214844 425.070312 325.9375 C 425.019531 325.660156 425 325.382812 425.007812 325.101562 C 425.015625 324.820312 425.050781 324.539062 425.113281 324.265625 L 430.96875 298.226562 L 441.941406 311.222656 C 442.859375 312.351562 443.894531 313.359375 445.046875 314.25 C 446.195312 315.140625 447.433594 315.882812 448.761719 316.484375 C 450.085938 317.085938 451.460938 317.53125 452.890625 317.8125 C 454.316406 318.09375 455.757812 318.207031 457.210938 318.15625 L 480.132812 316.902344 C 481.316406 316.859375 482.4375 316.566406 483.492188 316.027344 L 491.710938 361.761719 C 492.289062 364.996094 492.359375 368.238281 491.914062 371.496094 C 491.46875 374.75 490.53125 377.859375 489.101562 380.820312 L 477.621094 404.605469 C 476.988281 405.917969 476.1875 407.113281 475.214844 408.199219 C 474.246094 409.28125 473.144531 410.210938 471.914062 410.984375 C 470.679688 411.757812 469.363281 412.34375 467.964844 412.746094 C 466.570312 413.148438 465.140625 413.351562 463.6875 413.351562 L 441.921875 413.351562 C 441.371094 413.351562 440.824219 413.320312 440.277344 413.261719 C 439.734375 413.199219 439.191406 413.109375 438.65625 412.988281 C 438.121094 412.871094 437.59375 412.71875 437.074219 412.542969 C 436.554688 412.363281 436.046875 412.15625 435.550781 411.921875 C 435.054688 411.6875 434.574219 411.425781 434.105469 411.140625 C 433.640625 410.851562 433.1875 410.539062 432.757812 410.199219 C 432.324219 409.863281 431.910156 409.503906 431.515625 409.121094 C 431.125 408.738281 430.753906 408.332031 430.40625 407.910156 C 430.054688 407.484375 429.734375 407.042969 429.433594 406.582031 C 429.132812 406.121094 428.859375 405.648438 428.613281 405.15625 C 428.367188 404.667969 428.144531 404.164062 427.953125 403.652344 C 427.761719 403.136719 427.601562 402.613281 427.464844 402.082031 C 427.332031 401.546875 427.230469 401.011719 427.15625 400.464844 C 427.082031 399.921875 427.035156 399.375 427.023438 398.828125 C 427.007812 398.277344 427.023438 397.730469 427.070312 397.183594 C 427.117188 396.636719 427.195312 396.09375 427.300781 395.554688 L 433.03125 366.597656 L 350.617188 366.597656 C 349.460938 366.59375 348.390625 366.894531 347.40625 367.503906 C 346.632812 367.984375 345.59375 368.65625 344.351562 369.507812 C 343.667969 369.984375 342.90625 370.222656 342.070312 370.226562 L 306.839844 370.226562 C 306.5625 370.226562 306.285156 370.253906 306.011719 370.308594 C 305.738281 370.363281 305.472656 370.445312 305.214844 370.550781 C 304.957031 370.660156 304.710938 370.789062 304.476562 370.945312 C 304.246094 371.097656 304.03125 371.277344 303.832031 371.472656 C 303.636719 371.671875 303.460938 371.886719 303.304688 372.117188 C 303.148438 372.351562 303.019531 372.59375 302.910156 372.851562 C 302.804688 373.109375 302.722656 373.375 302.671875 373.652344 C 302.617188 373.925781 302.589844 374.199219 302.589844 374.480469 C 302.589844 374.757812 302.617188 375.035156 302.671875 375.308594 C 302.722656 375.582031 302.804688 375.847656 302.910156 376.105469 C 303.019531 376.367188 303.148438 376.609375 303.304688 376.84375 C 303.460938 377.074219 303.636719 377.289062 303.832031 377.488281 C 304.03125 377.683594 304.246094 377.859375 304.476562 378.015625 C 304.710938 378.171875 304.957031 378.300781 305.214844 378.410156 C 305.472656 378.515625 305.738281 378.597656 306.011719 378.652344 C 306.285156 378.707031 306.5625 378.734375 306.839844 378.734375 L 347.078125 378.734375 C 347.359375 378.734375 347.632812 378.757812 347.910156 378.8125 C 348.183594 378.867188 348.449219 378.949219 348.707031 379.054688 C 348.964844 379.164062 349.210938 379.292969 349.441406 379.449219 C 349.671875 379.605469 349.886719 379.78125 350.085938 379.976562 C 350.28125 380.175781 350.460938 380.390625 350.613281 380.621094 C 350.769531 380.855469 350.902344 381.097656 351.007812 381.359375 C 351.113281 381.617188 351.195312 381.882812 351.25 382.15625 C 351.304688 382.429688 351.332031 382.707031 351.332031 382.984375 C 351.332031 383.265625 351.304688 383.539062 351.25 383.8125 C 351.195312 384.089844 351.113281 384.355469 351.007812 384.613281 C 350.902344 384.871094 350.769531 385.113281 350.613281 385.347656 C 350.460938 385.578125 350.28125 385.792969 350.085938 385.992188 C 349.886719 386.1875 349.671875 386.367188 349.441406 386.519531 C 349.210938 386.675781 348.964844 386.804688 348.707031 386.914062 C 348.449219 387.019531 348.183594 387.101562 347.910156 387.15625 C 347.632812 387.210938 347.359375 387.238281 347.078125 387.238281 L 245.648438 387.238281 C 245.371094 387.238281 245.09375 387.265625 244.820312 387.320312 C 244.546875 387.375 244.28125 387.453125 244.023438 387.5625 C 243.765625 387.667969 243.519531 387.796875 243.285156 387.953125 C 243.054688 388.109375 242.839844 388.285156 242.640625 388.484375 C 242.445312 388.679688 242.269531 388.894531 242.113281 389.128906 C 241.957031 389.359375 241.828125 389.605469 241.71875 389.863281 C 241.613281 390.121094 241.53125 390.386719 241.476562 390.660156 C 241.425781 390.933594 241.398438 391.210938 241.398438 391.488281 C 241.398438 391.769531 241.425781 392.046875 241.476562 392.320312 C 241.53125 392.59375 241.613281 392.859375 241.71875 393.117188 C 241.828125 393.375 241.957031 393.621094 242.113281 393.851562 C 242.269531 394.085938 242.445312 394.300781 242.640625 394.496094 C 242.839844 394.695312 243.054688 394.871094 243.285156 395.023438 C 243.519531 395.179688 243.765625 395.3125 244.023438 395.417969 C 244.28125 395.523438 244.546875 395.605469 244.820312 395.660156 C 245.09375 395.714844 245.371094 395.742188 245.648438 395.742188 L 326.875 395.742188 C 327.15625 395.738281 327.433594 395.765625 327.710938 395.816406 C 327.988281 395.867188 328.253906 395.949219 328.515625 396.054688 C 328.777344 396.160156 329.023438 396.289062 329.257812 396.445312 C 329.492188 396.597656 329.710938 396.773438 329.910156 396.972656 C 330.109375 397.167969 330.289062 397.386719 330.445312 397.617188 C 330.601562 397.851562 330.734375 398.097656 330.84375 398.355469 C 330.949219 398.617188 331.03125 398.882812 331.089844 399.160156 C 331.144531 399.433594 331.171875 399.714844 331.171875 399.992188 C 331.171875 400.273438 331.144531 400.554688 331.089844 400.828125 C 331.03125 401.105469 330.949219 401.371094 330.84375 401.632812 C 330.734375 401.890625 330.601562 402.136719 330.445312 402.371094 C 330.289062 402.601562 330.109375 402.816406 329.910156 403.015625 C 329.710938 403.214844 329.492188 403.390625 329.257812 403.542969 C 329.023438 403.699219 328.777344 403.828125 328.515625 403.933594 C 328.253906 404.039062 327.988281 404.121094 327.710938 404.171875 C 327.433594 404.222656 327.15625 404.25 326.875 404.246094 L 274.789062 404.246094 C 274.511719 404.246094 274.234375 404.273438 273.960938 404.328125 C 273.6875 404.382812 273.417969 404.464844 273.160156 404.570312 C 272.902344 404.675781 272.660156 404.808594 272.425781 404.960938 C 272.195312 405.117188 271.980469 405.292969 271.78125 405.492188 C 271.585938 405.6875 271.410156 405.902344 271.253906 406.136719 C 271.097656 406.367188 270.96875 406.613281 270.859375 406.871094 C 270.753906 407.128906 270.671875 407.394531 270.617188 407.667969 C 270.5625 407.941406 270.535156 408.21875 270.535156 408.5 C 270.535156 408.777344 270.5625 409.054688 270.617188 409.328125 C 270.671875 409.601562 270.753906 409.867188 270.859375 410.125 C 270.96875 410.382812 271.097656 410.628906 271.253906 410.859375 C 271.410156 411.09375 271.585938 411.308594 271.78125 411.503906 C 271.980469 411.703125 272.195312 411.878906 272.425781 412.035156 C 272.660156 412.1875 272.902344 412.320312 273.160156 412.425781 C 273.417969 412.535156 273.6875 412.613281 273.960938 412.667969 C 274.234375 412.722656 274.511719 412.75 274.789062 412.75 L 309.949219 412.75 C 307.386719 420.117188 306.105469 427.699219 306.109375 435.496094 L 319.945312 435.496094 C 319.945312 435.578125 319.929688 435.660156 319.929688 435.746094 C 319.929688 436.695312 319.992188 437.632812 320.070312 438.566406 C 320.230469 440.496094 320.558594 442.394531 321.054688 444.269531 C 321.546875 446.140625 322.203125 447.953125 323.019531 449.710938 C 323.832031 451.464844 324.796875 453.136719 325.90625 454.722656 C 327.015625 456.308594 328.253906 457.789062 329.625 459.15625 C 330.070312 459.601562 330.523438 460.039062 330.992188 460.460938 C 331.460938 460.882812 331.9375 461.289062 332.429688 461.683594 C 332.921875 462.078125 333.421875 462.457031 333.9375 462.824219 C 334.449219 463.191406 334.972656 463.539062 335.503906 463.875 C 336.039062 464.210938 336.582031 464.53125 337.132812 464.835938 C 337.683594 465.140625 338.242188 465.429688 338.8125 465.699219 C 339.378906 465.972656 339.953125 466.230469 340.535156 466.46875 C 341.121094 466.707031 341.707031 466.929688 342.304688 467.136719 C 342.898438 467.339844 343.5 467.527344 344.105469 467.699219 C 344.710938 467.871094 345.324219 468.023438 345.9375 468.160156 C 346.550781 468.296875 347.171875 468.414062 347.792969 468.515625 C 348.414062 468.617188 349.039062 468.699219 349.664062 468.765625 C 350.292969 468.828125 350.917969 468.875 351.546875 468.902344 C 352.179688 468.933594 352.808594 468.945312 353.4375 468.9375 C 354.066406 468.929688 354.695312 468.902344 355.324219 468.859375 C 355.953125 468.816406 356.578125 468.753906 357.203125 468.675781 C 357.828125 468.597656 358.449219 468.5 359.070312 468.382812 C 359.6875 468.269531 360.304688 468.136719 360.917969 467.984375 C 361.527344 467.835938 362.136719 467.667969 362.738281 467.480469 C 363.339844 467.296875 363.933594 467.09375 364.527344 466.875 C 365.117188 466.65625 365.699219 466.417969 366.277344 466.167969 C 366.851562 465.914062 367.421875 465.644531 367.984375 465.359375 C 368.546875 465.074219 369.097656 464.769531 369.640625 464.453125 C 370.1875 464.136719 370.71875 463.804688 371.246094 463.457031 C 371.769531 463.109375 372.285156 462.746094 372.789062 462.367188 C 373.292969 461.992188 373.785156 461.597656 374.269531 461.191406 C 374.75 460.789062 375.21875 460.367188 375.675781 459.933594 C 376.136719 459.503906 376.578125 459.058594 377.011719 458.597656 C 377.445312 458.140625 377.863281 457.671875 378.269531 457.1875 C 378.671875 456.707031 379.0625 456.210938 379.441406 455.707031 C 379.816406 455.203125 380.179688 454.6875 380.527344 454.164062 C 380.875 453.636719 381.207031 453.101562 381.523438 452.558594 C 381.902344 451.914062 382.265625 451.257812 382.601562 450.585938 C 384.511719 446.796875 385.644531 442.792969 386.003906 438.566406 C 386.082031 437.632812 386.144531 436.695312 386.144531 435.746094 C 386.144531 435.660156 386.128906 435.582031 386.128906 435.496094 L 466.933594 435.496094 C 468.898438 435.472656 470.835938 435.222656 472.742188 434.738281 C 474.648438 434.257812 476.472656 433.558594 478.214844 432.644531 C 479.957031 431.730469 481.566406 430.625 483.042969 429.328125 C 484.523438 428.03125 485.832031 426.582031 486.964844 424.972656 L 488.347656 422.96875 C 488.046875 426.003906 488.046875 429.039062 488.34375 432.074219 C 488.476562 433.398438 488.695312 434.695312 488.929688 435.984375 C 489.660156 439.921875 490.882812 443.703125 492.589844 447.328125 C 493.164062 447.078125 493.710938 446.789062 494.238281 446.453125 C 495.070312 445.9375 495.859375 445.363281 496.601562 444.726562 C 497.609375 443.863281 498.527344 442.917969 499.355469 441.882812 C 499.839844 441.273438 500.292969 440.644531 500.710938 439.988281 C 501.257812 439.128906 501.742188 438.265625 502.199219 437.402344 C 506.984375 428.386719 507.507812 419.222656 517.585938 409.269531 C 518.878906 407.988281 520.269531 406.824219 521.757812 405.78125 Z M 371.296875 435.746094 C 371.289062 436.335938 371.253906 436.929688 371.1875 437.515625 C 371.121094 438.105469 371.027344 438.691406 370.902344 439.269531 C 370.78125 439.851562 370.628906 440.421875 370.453125 440.988281 C 370.273438 441.550781 370.066406 442.109375 369.835938 442.652344 C 369.601562 443.199219 369.34375 443.730469 369.058594 444.25 C 368.773438 444.769531 368.464844 445.277344 368.132812 445.765625 C 367.796875 446.253906 367.441406 446.726562 367.0625 447.183594 C 366.679688 447.636719 366.28125 448.074219 365.859375 448.488281 C 365.4375 448.90625 364.996094 449.300781 364.535156 449.671875 C 364.074219 450.046875 363.597656 450.394531 363.101562 450.722656 C 362.609375 451.050781 362.097656 451.351562 361.574219 451.628906 C 361.050781 451.90625 360.515625 452.15625 359.964844 452.382812 C 359.417969 452.605469 358.859375 452.804688 358.292969 452.976562 C 357.722656 453.144531 357.148438 453.289062 356.566406 453.402344 C 355.988281 453.515625 355.402344 453.601562 354.8125 453.660156 C 354.222656 453.71875 353.628906 453.746094 353.039062 453.746094 C 352.445312 453.746094 351.851562 453.71875 351.261719 453.660156 C 350.671875 453.601562 350.085938 453.515625 349.507812 453.402344 C 348.925781 453.289062 348.351562 453.144531 347.78125 452.976562 C 347.214844 452.804688 346.65625 452.605469 346.109375 452.382812 C 345.558594 452.15625 345.023438 451.90625 344.5 451.628906 C 343.976562 451.351562 343.464844 451.050781 342.972656 450.722656 C 342.476562 450.394531 342 450.046875 341.539062 449.671875 C 341.078125 449.300781 340.636719 448.90625 340.214844 448.488281 C 339.792969 448.074219 339.394531 447.636719 339.011719 447.183594 C 338.632812 446.726562 338.277344 446.253906 337.941406 445.765625 C 337.609375 445.277344 337.300781 444.769531 337.015625 444.25 C 336.730469 443.730469 336.472656 443.199219 336.238281 442.652344 C 336.007812 442.109375 335.800781 441.550781 335.625 440.988281 C 335.445312 440.421875 335.292969 439.851562 335.171875 439.269531 C 335.046875 438.691406 334.953125 438.105469 334.886719 437.515625 C 334.820312 436.929688 334.785156 436.335938 334.777344 435.746094 C 334.777344 435.660156 334.800781 435.582031 334.800781 435.496094 L 371.273438 435.496094 C 371.273438 435.582031 371.296875 435.660156 371.296875 435.746094 Z M 414.613281 255.140625 C 414.160156 251.726562 413.253906 244.550781 413.339844 242.679688 C 413.949219 229.597656 423.082031 219.394531 438.128906 220.09375 C 439.386719 220.152344 440.628906 220.308594 441.863281 220.566406 C 443.09375 220.820312 444.296875 221.175781 445.476562 221.625 C 446.652344 222.070312 447.785156 222.609375 448.875 223.238281 C 449.964844 223.867188 451 224.578125 451.976562 225.371094 C 452.953125 226.167969 453.863281 227.03125 454.703125 227.96875 C 455.542969 228.90625 456.300781 229.90625 456.980469 230.964844 C 457.660156 232.023438 458.253906 233.132812 458.757812 234.285156 C 459.261719 235.4375 459.671875 236.625 459.988281 237.84375 L 436.953125 236.773438 C 436.636719 236.757812 436.328125 236.804688 436.03125 236.910156 C 435.734375 237.019531 435.46875 237.179688 435.234375 237.394531 C 435 237.605469 434.816406 237.855469 434.679688 238.144531 C 434.546875 238.429688 434.472656 238.730469 434.457031 239.046875 L 434.09375 246.84375 C 434.078125 247.207031 434.117188 247.5625 434.21875 247.910156 C 434.320312 248.261719 434.472656 248.582031 434.679688 248.882812 C 434.882812 249.179688 435.132812 249.4375 435.425781 249.65625 C 435.714844 249.871094 436.03125 250.035156 436.378906 250.148438 L 459.03125 257.519531 C 457.605469 261.738281 455.546875 265.621094 452.851562 269.164062 C 452.648438 269.433594 452.410156 269.660156 452.132812 269.847656 C 451.855469 270.039062 451.554688 270.175781 451.234375 270.269531 C 450.910156 270.359375 450.582031 270.398438 450.246094 270.382812 C 449.910156 270.367188 449.585938 270.300781 449.273438 270.179688 L 416.574219 257.625 C 416.046875 257.421875 415.605469 257.097656 415.253906 256.652344 C 414.902344 256.207031 414.6875 255.703125 414.613281 255.140625 Z M 283.003906 304.484375 L 241.289062 304.484375 C 240.992188 304.484375 240.695312 304.453125 240.40625 304.390625 C 240.113281 304.328125 239.832031 304.238281 239.558594 304.117188 C 239.289062 303.996094 239.03125 303.847656 238.789062 303.671875 C 238.550781 303.5 238.328125 303.300781 238.128906 303.078125 C 237.929688 302.859375 237.757812 302.621094 237.609375 302.363281 C 237.457031 302.105469 237.335938 301.832031 237.246094 301.550781 C 237.152344 301.265625 237.089844 300.976562 237.058594 300.683594 C 237.027344 300.386719 237.027344 300.089844 237.058594 299.792969 C 237.28125 297.582031 239.308594 295.980469 241.53125 295.980469 L 293.90625 295.980469 C 294.207031 295.980469 294.5 295.949219 294.792969 295.886719 C 295.082031 295.824219 295.363281 295.734375 295.636719 295.613281 C 295.90625 295.492188 296.164062 295.34375 296.40625 295.167969 C 296.644531 294.996094 296.867188 294.796875 297.066406 294.574219 C 297.265625 294.355469 297.441406 294.113281 297.589844 293.855469 C 297.738281 293.597656 297.859375 293.328125 297.949219 293.046875 C 298.042969 292.761719 298.105469 292.472656 298.136719 292.175781 C 298.167969 291.882812 298.167969 291.585938 298.136719 291.289062 C 297.917969 289.074219 295.890625 287.476562 293.664062 287.476562 L 251.703125 287.476562 C 251.421875 287.476562 251.148438 287.449219 250.875 287.394531 C 250.597656 287.339844 250.332031 287.257812 250.074219 287.152344 C 249.816406 287.046875 249.574219 286.914062 249.339844 286.757812 C 249.109375 286.605469 248.894531 286.425781 248.695312 286.230469 C 248.5 286.03125 248.320312 285.816406 248.167969 285.585938 C 248.011719 285.355469 247.882812 285.109375 247.773438 284.851562 C 247.667969 284.59375 247.585938 284.328125 247.53125 284.054688 C 247.476562 283.777344 247.449219 283.503906 247.449219 283.222656 C 247.449219 282.945312 247.476562 282.667969 247.53125 282.394531 C 247.585938 282.121094 247.667969 281.855469 247.773438 281.597656 C 247.882812 281.339844 248.011719 281.09375 248.167969 280.859375 C 248.320312 280.628906 248.5 280.414062 248.695312 280.214844 C 248.894531 280.019531 249.109375 279.84375 249.339844 279.6875 C 249.574219 279.53125 249.816406 279.402344 250.074219 279.292969 C 250.332031 279.1875 250.597656 279.105469 250.875 279.050781 C 251.148438 279 251.421875 278.972656 251.703125 278.972656 L 293.90625 278.972656 C 294.207031 278.972656 294.5 278.941406 294.792969 278.878906 C 295.082031 278.816406 295.363281 278.726562 295.636719 278.605469 C 295.90625 278.484375 296.164062 278.335938 296.40625 278.160156 C 296.644531 277.984375 296.867188 277.789062 297.066406 277.566406 C 297.265625 277.34375 297.441406 277.105469 297.589844 276.847656 C 297.738281 276.589844 297.859375 276.320312 297.949219 276.035156 C 298.042969 275.753906 298.105469 275.464844 298.136719 275.167969 C 298.167969 274.871094 298.167969 274.574219 298.136719 274.28125 C 297.917969 272.066406 295.890625 270.464844 293.664062 270.464844 L 264.34375 270.464844 C 264.046875 270.464844 263.75 270.433594 263.460938 270.375 C 263.167969 270.3125 262.886719 270.21875 262.617188 270.097656 C 262.34375 269.976562 262.085938 269.828125 261.847656 269.65625 C 261.605469 269.480469 261.386719 269.28125 261.1875 269.0625 C 260.984375 268.839844 260.8125 268.601562 260.664062 268.34375 C 260.515625 268.085938 260.394531 267.816406 260.300781 267.53125 C 260.207031 267.25 260.144531 266.960938 260.113281 266.664062 C 260.082031 266.367188 260.082031 266.070312 260.113281 265.773438 C 260.335938 263.5625 262.363281 261.960938 264.585938 261.960938 L 283.003906 261.960938 L 283.003906 257.078125 C 283.003906 256.800781 283.03125 256.527344 283.085938 256.253906 C 283.140625 255.984375 283.21875 255.71875 283.324219 255.464844 C 283.429688 255.210938 283.5625 254.964844 283.714844 254.738281 C 283.867188 254.507812 284.042969 254.292969 284.238281 254.097656 C 284.433594 253.902344 284.644531 253.726562 284.875 253.574219 C 285.105469 253.421875 285.347656 253.289062 285.605469 253.183594 C 285.859375 253.078125 286.125 253 286.394531 252.945312 C 286.667969 252.890625 286.941406 252.863281 287.214844 252.863281 L 381.308594 252.863281 C 381.585938 252.863281 381.859375 252.890625 382.132812 252.945312 C 382.402344 253 382.667969 253.078125 382.921875 253.183594 C 383.175781 253.289062 383.421875 253.421875 383.648438 253.574219 C 383.878906 253.726562 384.09375 253.902344 384.289062 254.097656 C 384.484375 254.292969 384.660156 254.507812 384.8125 254.734375 C 384.964844 254.964844 385.097656 255.207031 385.203125 255.464844 C 385.308594 255.71875 385.386719 255.984375 385.441406 256.253906 C 385.496094 256.527344 385.523438 256.800781 385.523438 257.078125 L 385.523438 339.246094 C 385.523438 339.632812 385.484375 340.019531 385.410156 340.398438 C 385.332031 340.777344 385.222656 341.144531 385.074219 341.503906 C 384.925781 341.859375 384.742188 342.199219 384.527344 342.523438 C 384.3125 342.84375 384.070312 343.140625 383.796875 343.414062 C 383.523438 343.691406 383.222656 343.933594 382.902344 344.148438 C 382.582031 344.363281 382.242188 344.546875 381.882812 344.695312 C 381.527344 344.84375 381.15625 344.953125 380.777344 345.03125 C 380.398438 345.105469 380.015625 345.144531 379.628906 345.144531 L 287.214844 345.144531 C 286.941406 345.144531 286.667969 345.117188 286.394531 345.0625 C 286.125 345.007812 285.859375 344.929688 285.605469 344.820312 C 285.347656 344.714844 285.105469 344.585938 284.875 344.433594 C 284.644531 344.277344 284.433594 344.105469 284.238281 343.910156 C 284.042969 343.714844 283.867188 343.5 283.714844 343.269531 C 283.558594 343.039062 283.429688 342.796875 283.324219 342.542969 C 283.21875 342.285156 283.140625 342.023438 283.085938 341.75 C 283.03125 341.480469 283.003906 341.207031 283.003906 340.929688 L 283.003906 312.988281 L 293.90625 312.988281 C 294.207031 312.988281 294.5 312.957031 294.792969 312.894531 C 295.082031 312.835938 295.363281 312.742188 295.636719 312.621094 C 295.90625 312.5 296.164062 312.351562 296.40625 312.179688 C 296.644531 312.003906 296.867188 311.804688 297.066406 311.585938 C 297.265625 311.363281 297.4375 311.125 297.589844 310.867188 C 297.738281 310.609375 297.859375 310.339844 297.949219 310.054688 C 298.042969 309.773438 298.105469 309.484375 298.136719 309.1875 C 298.167969 308.890625 298.167969 308.59375 298.136719 308.300781 C 297.917969 306.085938 295.890625 304.484375 293.664062 304.484375 Z M 283.003906 304.484375 " fill-opacity="1" fill-rule="nonzero"/></g><g fill="#000000" fill-opacity="1"><g transform="translate(224.505239, 614.155675)"><g><path d="M 33.6875 -28.09375 C 33.6875 -25.914062 33.171875 -23.875 32.140625 -21.96875 C 31.109375 -20.0625 29.492188 -18.523438 27.296875 -17.359375 C 25.109375 -16.203125 22.34375 -15.625 19 -15.625 L 12.1875 -15.625 L 12.1875 0 L 4.015625 0 L 4.015625 -40.6875 L 19 -40.6875 C 22.144531 -40.6875 24.820312 -40.140625 27.03125 -39.046875 C 29.25 -37.960938 30.910156 -36.46875 32.015625 -34.5625 C 33.128906 -32.65625 33.6875 -30.5 33.6875 -28.09375 Z M 18.65625 -22.203125 C 20.90625 -22.203125 22.570312 -22.71875 23.65625 -23.75 C 24.75 -24.78125 25.296875 -26.226562 25.296875 -28.09375 C 25.296875 -32.050781 23.082031 -34.03125 18.65625 -34.03125 L 12.1875 -34.03125 L 12.1875 -22.203125 Z M 18.65625 -22.203125 "/></g></g></g><g fill="#000000" fill-opacity="1"><g transform="translate(259.937914, 614.155675)"><g><path d="M 34.03125 -16.84375 C 34.03125 -15.675781 33.953125 -14.628906 33.796875 -13.703125 L 10.203125 -13.703125 C 10.390625 -11.367188 11.203125 -9.539062 12.640625 -8.21875 C 14.078125 -6.894531 15.847656 -6.234375 17.953125 -6.234375 C 20.984375 -6.234375 23.140625 -7.535156 24.421875 -10.140625 L 33.21875 -10.140625 C 32.289062 -7.035156 30.503906 -4.476562 27.859375 -2.46875 C 25.210938 -0.46875 21.96875 0.53125 18.125 0.53125 C 15.019531 0.53125 12.234375 -0.15625 9.765625 -1.53125 C 7.296875 -2.914062 5.367188 -4.867188 3.984375 -7.390625 C 2.609375 -9.921875 1.921875 -12.835938 1.921875 -16.140625 C 1.921875 -19.484375 2.597656 -22.414062 3.953125 -24.9375 C 5.316406 -27.46875 7.222656 -29.410156 9.671875 -30.765625 C 12.117188 -32.128906 14.9375 -32.8125 18.125 -32.8125 C 21.195312 -32.8125 23.945312 -32.148438 26.375 -30.828125 C 28.800781 -29.503906 30.679688 -27.628906 32.015625 -25.203125 C 33.359375 -22.773438 34.03125 -19.988281 34.03125 -16.84375 Z M 25.578125 -19.171875 C 25.546875 -21.273438 24.789062 -22.957031 23.3125 -24.21875 C 21.832031 -25.476562 20.023438 -26.109375 17.890625 -26.109375 C 15.867188 -26.109375 14.164062 -25.492188 12.78125 -24.265625 C 11.40625 -23.046875 10.5625 -21.347656 10.25 -19.171875 Z M 25.578125 -19.171875 "/></g></g></g><g fill="#000000" fill-opacity="1"><g transform="translate(295.895087, 614.155675)"><g><path d="M 16.375 0.53125 C 13.726562 0.53125 11.359375 0.0546875 9.265625 -0.890625 C 7.171875 -1.847656 5.507812 -3.144531 4.28125 -4.78125 C 3.0625 -6.414062 2.390625 -8.222656 2.265625 -10.203125 L 10.484375 -10.203125 C 10.640625 -8.953125 11.25 -7.921875 12.3125 -7.109375 C 13.382812 -6.296875 14.71875 -5.890625 16.3125 -5.890625 C 17.875 -5.890625 19.085938 -6.195312 19.953125 -6.8125 C 20.828125 -7.4375 21.265625 -8.234375 21.265625 -9.203125 C 21.265625 -10.253906 20.726562 -11.039062 19.65625 -11.5625 C 18.59375 -12.09375 16.894531 -12.664062 14.5625 -13.28125 C 12.15625 -13.863281 10.1875 -14.46875 8.65625 -15.09375 C 7.125 -15.71875 5.800781 -16.671875 4.6875 -17.953125 C 3.582031 -19.234375 3.03125 -20.960938 3.03125 -23.140625 C 3.03125 -24.921875 3.546875 -26.550781 4.578125 -28.03125 C 5.609375 -29.507812 7.082031 -30.675781 9 -31.53125 C 10.925781 -32.382812 13.191406 -32.8125 15.796875 -32.8125 C 19.640625 -32.8125 22.707031 -31.847656 25 -29.921875 C 27.289062 -28.003906 28.554688 -25.410156 28.796875 -22.140625 L 20.984375 -22.140625 C 20.867188 -23.421875 20.332031 -24.441406 19.375 -25.203125 C 18.425781 -25.960938 17.15625 -26.34375 15.5625 -26.34375 C 14.082031 -26.34375 12.941406 -26.070312 12.140625 -25.53125 C 11.347656 -24.988281 10.953125 -24.226562 10.953125 -23.25 C 10.953125 -22.164062 11.492188 -21.34375 12.578125 -20.78125 C 13.671875 -20.21875 15.363281 -19.644531 17.65625 -19.0625 C 19.988281 -18.476562 21.910156 -17.875 23.421875 -17.25 C 24.941406 -16.625 26.253906 -15.660156 27.359375 -14.359375 C 28.472656 -13.054688 29.046875 -11.335938 29.078125 -9.203125 C 29.078125 -7.335938 28.5625 -5.664062 27.53125 -4.1875 C 26.507812 -2.71875 25.035156 -1.5625 23.109375 -0.71875 C 21.179688 0.113281 18.9375 0.53125 16.375 0.53125 Z M 16.375 0.53125 "/></g></g></g><g fill="#000000" fill-opacity="1"><g transform="translate(327.656286, 614.155675)"><g><path d="M 1.921875 -16.265625 C 1.921875 -19.523438 2.570312 -22.414062 3.875 -24.9375 C 5.175781 -27.46875 6.941406 -29.410156 9.171875 -30.765625 C 11.410156 -32.128906 13.910156 -32.8125 16.671875 -32.8125 C 19.078125 -32.8125 21.179688 -32.320312 22.984375 -31.34375 C 24.796875 -30.375 26.242188 -29.15625 27.328125 -27.6875 L 27.328125 -32.28125 L 35.546875 -32.28125 L 35.546875 0 L 27.328125 0 L 27.328125 -4.71875 C 26.285156 -3.207031 24.835938 -1.953125 22.984375 -0.953125 C 21.140625 0.0351562 19.015625 0.53125 16.609375 0.53125 C 13.890625 0.53125 11.410156 -0.164062 9.171875 -1.5625 C 6.941406 -2.96875 5.175781 -4.941406 3.875 -7.484375 C 2.570312 -10.035156 1.921875 -12.960938 1.921875 -16.265625 Z M 27.328125 -16.140625 C 27.328125 -18.117188 26.9375 -19.816406 26.15625 -21.234375 C 25.382812 -22.660156 24.335938 -23.75 23.015625 -24.5 C 21.703125 -25.257812 20.285156 -25.640625 18.765625 -25.640625 C 17.253906 -25.640625 15.851562 -25.269531 14.5625 -24.53125 C 13.28125 -23.789062 12.238281 -22.710938 11.4375 -21.296875 C 10.644531 -19.878906 10.25 -18.203125 10.25 -16.265625 C 10.25 -14.316406 10.644531 -12.613281 11.4375 -11.15625 C 12.238281 -9.695312 13.289062 -8.578125 14.59375 -7.796875 C 15.894531 -7.023438 17.285156 -6.640625 18.765625 -6.640625 C 20.285156 -6.640625 21.703125 -7.019531 23.015625 -7.78125 C 24.335938 -8.539062 25.382812 -9.628906 26.15625 -11.046875 C 26.9375 -12.460938 27.328125 -14.160156 27.328125 -16.140625 Z M 27.328125 -16.140625 "/></g></g></g><g fill="#000000" fill-opacity="1"><g transform="translate(367.168385, 614.155675)"><g><path d="M 21.90625 -32.75 C 25.757812 -32.75 28.867188 -31.535156 31.234375 -29.109375 C 33.609375 -26.679688 34.796875 -23.289062 34.796875 -18.9375 L 34.796875 0 L 26.640625 0 L 26.640625 -17.828125 C 26.640625 -20.398438 25.992188 -22.375 24.703125 -23.75 C 23.421875 -25.125 21.675781 -25.8125 19.46875 -25.8125 C 17.207031 -25.8125 15.425781 -25.125 14.125 -23.75 C 12.832031 -22.375 12.1875 -20.398438 12.1875 -17.828125 L 12.1875 0 L 4.015625 0 L 4.015625 -32.28125 L 12.1875 -32.28125 L 12.1875 -28.265625 C 13.269531 -29.660156 14.65625 -30.753906 16.34375 -31.546875 C 18.039062 -32.347656 19.894531 -32.75 21.90625 -32.75 Z M 21.90625 -32.75 "/></g></g></g><g fill="#000000" fill-opacity="1"><g transform="translate(405.689765, 614.155675)"><g/></g></g><g fill="#000000" fill-opacity="1"><g transform="translate(419.559787, 614.155675)"><g><path d="M 28.96875 -7.75 L 12.765625 -7.75 L 10.078125 0 L 1.515625 0 L 16.140625 -40.734375 L 25.640625 -40.734375 L 40.265625 0 L 31.640625 0 Z M 26.75 -14.28125 L 20.859375 -31.296875 L 14.984375 -14.28125 Z M 26.75 -14.28125 "/></g></g></g><g fill="#000000" fill-opacity="1"><g transform="translate(461.286415, 614.155675)"><g><path d="M 21.90625 -32.75 C 25.757812 -32.75 28.867188 -31.535156 31.234375 -29.109375 C 33.609375 -26.679688 34.796875 -23.289062 34.796875 -18.9375 L 34.796875 0 L 26.640625 0 L 26.640625 -17.828125 C 26.640625 -20.398438 25.992188 -22.375 24.703125 -23.75 C 23.421875 -25.125 21.675781 -25.8125 19.46875 -25.8125 C 17.207031 -25.8125 15.425781 -25.125 14.125 -23.75 C 12.832031 -22.375 12.1875 -20.398438 12.1875 -17.828125 L 12.1875 0 L 4.015625 0 L 4.015625 -32.28125 L 12.1875 -32.28125 L 12.1875 -28.265625 C 13.269531 -29.660156 14.65625 -30.753906 16.34375 -31.546875 C 18.039062 -32.347656 19.894531 -32.75 21.90625 -32.75 Z M 21.90625 -32.75 "/></g></g></g><g fill="#000000" fill-opacity="1"><g transform="translate(499.807804, 614.155675)"><g><path d="M 13.515625 -25.578125 L 13.515625 -9.96875 C 13.515625 -8.875 13.773438 -8.082031 14.296875 -7.59375 C 14.828125 -7.113281 15.710938 -6.875 16.953125 -6.875 L 20.75 -6.875 L 20.75 0 L 15.625 0 C 8.738281 0 5.296875 -3.34375 5.296875 -10.03125 L 5.296875 -25.578125 L 1.453125 -25.578125 L 1.453125 -32.28125 L 5.296875 -32.28125 L 5.296875 -40.265625 L 13.515625 -40.265625 L 13.515625 -32.28125 L 20.75 -32.28125 L 20.75 -25.578125 Z M 13.515625 -25.578125 "/></g></g></g><g fill="#000000" fill-opacity="1"><g transform="translate(522.419454, 614.155675)"><g><path d="M 1.921875 -16.265625 C 1.921875 -19.523438 2.570312 -22.414062 3.875 -24.9375 C 5.175781 -27.46875 6.941406 -29.410156 9.171875 -30.765625 C 11.410156 -32.128906 13.910156 -32.8125 16.671875 -32.8125 C 19.078125 -32.8125 21.179688 -32.320312 22.984375 -31.34375 C 24.796875 -30.375 26.242188 -29.15625 27.328125 -27.6875 L 27.328125 -32.28125 L 35.546875 -32.28125 L 35.546875 0 L 27.328125 0 L 27.328125 -4.71875 C 26.285156 -3.207031 24.835938 -1.953125 22.984375 -0.953125 C 21.140625 0.0351562 19.015625 0.53125 16.609375 0.53125 C 13.890625 0.53125 11.410156 -0.164062 9.171875 -1.5625 C 6.941406 -2.96875 5.175781 -4.941406 3.875 -7.484375 C 2.570312 -10.035156 1.921875 -12.960938 1.921875 -16.265625 Z M 27.328125 -16.140625 C 27.328125 -18.117188 26.9375 -19.816406 26.15625 -21.234375 C 25.382812 -22.660156 24.335938 -23.75 23.015625 -24.5 C 21.703125 -25.257812 20.285156 -25.640625 18.765625 -25.640625 C 17.253906 -25.640625 15.851562 -25.269531 14.5625 -24.53125 C 13.28125 -23.789062 12.238281 -22.710938 11.4375 -21.296875 C 10.644531 -19.878906 10.25 -18.203125 10.25 -16.265625 C 10.25 -14.316406 10.644531 -12.613281 11.4375 -11.15625 C 12.238281 -9.695312 13.289062 -8.578125 14.59375 -7.796875 C 15.894531 -7.023438 17.285156 -6.640625 18.765625 -6.640625 C 20.285156 -6.640625 21.703125 -7.019531 23.015625 -7.78125 C 24.335938 -8.539062 25.382812 -9.628906 26.15625 -11.046875 C 26.9375 -12.460938 27.328125 -14.160156 27.328125 -16.140625 Z M 27.328125 -16.140625 "/></g></g></g><g fill="#000000" fill-opacity="1"><g transform="translate(561.931561, 614.155675)"><g><path d="M 12.1875 -27.28125 C 13.226562 -28.988281 14.59375 -30.328125 16.28125 -31.296875 C 17.976562 -32.265625 19.914062 -32.75 22.09375 -32.75 L 22.09375 -24.1875 L 19.9375 -24.1875 C 17.363281 -24.1875 15.425781 -23.582031 14.125 -22.375 C 12.832031 -21.175781 12.1875 -19.078125 12.1875 -16.078125 L 12.1875 0 L 4.015625 0 L 4.015625 -32.28125 L 12.1875 -32.28125 Z M 12.1875 -27.28125 "/></g></g></g></svg>