<svg xmlns="http://www.w3.org/2000/svg" xmlns:xlink="http://www.w3.org/1999/xlink" width="1080" zoomAndPan="magnify" viewBox="0 0 810 809.999993" height="1080" preserveAspectRatio="xMidYMid meet" version="1.0"><defs><g/><clipPath id="17eba1784b"><path d="M 242.417969 180.9375 L 567.917969 180.9375 L 567.917969 506.4375 L 242.417969 506.4375 Z M 242.417969 180.9375 " clip-rule="nonzero"/></clipPath></defs><rect x="-81" width="972" fill="#ffffff" y="-80.999999" height="971.999992" fill-opacity="1"/><rect x="-81" width="972" fill="#ffffff" y="-80.999999" height="971.999992" fill-opacity="1"/><g clip-path="url(#17eba1784b)"><path fill="#100f0d" d="M 466.417969 353.160156 L 466.417969 427.582031 C 466.417969 427.582031 467.691406 440.019531 455.503906 440.019531 C 443.324219 440.019531 441.035156 428.84375 441.035156 428.84375 L 441.035156 353.152344 C 425.492188 345.9375 414.238281 326.144531 414.238281 302.585938 C 414.238281 272.945312 431.917969 248.925781 453.742188 248.925781 C 475.566406 248.925781 493.269531 272.945312 493.269531 302.585938 C 493.269531 326.164062 481.992188 345.96875 466.417969 353.160156 Z M 369.070312 356.238281 L 369.070312 424.027344 C 369.070312 424.027344 369.351562 438.628906 357.226562 438.628906 C 345.101562 438.628906 345.101562 424.304688 345.101562 424.304688 L 345.101562 355.960938 C 345.101562 355.960938 319.90625 351.273438 317.707031 326.472656 C 315.503906 301.652344 319.636719 258.945312 319.636719 258.945312 C 319.636719 258.945312 321.292969 250.113281 327.078125 250.113281 C 332.871094 250.113281 333.96875 259.777344 333.96875 259.777344 L 333.96875 311.851562 C 333.625 315.210938 337.421875 319.011719 343.058594 319.011719 C 350.777344 319.011719 350.777344 313.507812 350.777344 313.507812 L 350.777344 260.3125 C 350.777344 260.3125 351.890625 249.296875 358.5 249.296875 C 365.113281 249.296875 365.113281 260.59375 365.113281 260.59375 L 365.113281 314.121094 C 365.113281 314.121094 364.925781 320.308594 372.035156 320.308594 C 380.84375 320.308594 380.675781 314.535156 380.675781 314.535156 L 380.675781 260.3125 C 380.675781 260.3125 379.992188 247.371094 389.363281 247.371094 C 396.804688 247.371094 397.085938 260.042969 397.085938 260.042969 C 397.085938 260.042969 397.800781 320.515625 397.800781 327.957031 C 397.800781 335.398438 390.296875 348.796875 369.070312 356.238281 Z M 405.171875 180.949219 C 315.433594 180.949219 242.425781 253.953125 242.425781 343.6875 C 242.425781 433.425781 315.433594 506.429688 405.171875 506.429688 C 494.902344 506.429688 567.90625 433.425781 567.90625 343.6875 C 567.90625 253.953125 494.902344 180.949219 405.171875 180.949219 " fill-opacity="1" fill-rule="nonzero"/></g><g fill="#000000" fill-opacity="1"><g transform="translate(145.135588, 614.155555)"><g><path d="M 48.375 -40.6875 L 48.375 0 L 40.21875 0 L 40.21875 -26.453125 L 29.3125 0 L 23.140625 0 L 12.1875 -26.453125 L 12.1875 0 L 4.015625 0 L 4.015625 -40.6875 L 13.28125 -40.6875 L 26.21875 -10.4375 L 39.171875 -40.6875 Z M 48.375 -40.6875 "/></g></g></g><g fill="#000000" fill-opacity="1"><g transform="translate(197.526991, 614.155555)"><g><path d="M 1.921875 -16.265625 C 1.921875 -19.523438 2.570312 -22.414062 3.875 -24.9375 C 5.175781 -27.46875 6.941406 -29.410156 9.171875 -30.765625 C 11.410156 -32.128906 13.910156 -32.8125 16.671875 -32.8125 C 19.078125 -32.8125 21.179688 -32.320312 22.984375 -31.34375 C 24.796875 -30.375 26.242188 -29.15625 27.328125 -27.6875 L 27.328125 -32.28125 L 35.546875 -32.28125 L 35.546875 0 L 27.328125 0 L 27.328125 -4.71875 C 26.285156 -3.207031 24.835938 -1.953125 22.984375 -0.953125 C 21.140625 0.0351562 19.015625 0.53125 16.609375 0.53125 C 13.890625 0.53125 11.410156 -0.164062 9.171875 -1.5625 C 6.941406 -2.96875 5.175781 -4.941406 3.875 -7.484375 C 2.570312 -10.035156 1.921875 -12.960938 1.921875 -16.265625 Z M 27.328125 -16.140625 C 27.328125 -18.117188 26.9375 -19.816406 26.15625 -21.234375 C 25.382812 -22.660156 24.335938 -23.75 23.015625 -24.5 C 21.703125 -25.257812 20.285156 -25.640625 18.765625 -25.640625 C 17.253906 -25.640625 15.851562 -25.269531 14.5625 -24.53125 C 13.28125 -23.789062 12.238281 -22.710938 11.4375 -21.296875 C 10.644531 -19.878906 10.25 -18.203125 10.25 -16.265625 C 10.25 -14.316406 10.644531 -12.613281 11.4375 -11.15625 C 12.238281 -9.695312 13.289062 -8.578125 14.59375 -7.796875 C 15.894531 -7.023438 17.285156 -6.640625 18.765625 -6.640625 C 20.285156 -6.640625 21.703125 -7.019531 23.015625 -7.78125 C 24.335938 -8.539062 25.382812 -9.628906 26.15625 -11.046875 C 26.9375 -12.460938 27.328125 -14.160156 27.328125 -16.140625 Z M 27.328125 -16.140625 "/></g></g></g><g fill="#000000" fill-opacity="1"><g transform="translate(237.03909, 614.155555)"><g><path d="M 23.140625 0 L 12.1875 -13.75 L 12.1875 0 L 4.015625 0 L 4.015625 -43.125 L 12.1875 -43.125 L 12.1875 -18.59375 L 23.015625 -32.28125 L 33.625 -32.28125 L 19.40625 -16.078125 L 33.75 0 Z M 23.140625 0 "/></g></g></g><g fill="#000000" fill-opacity="1"><g transform="translate(271.073106, 614.155555)"><g><path d="M 1.921875 -16.265625 C 1.921875 -19.523438 2.570312 -22.414062 3.875 -24.9375 C 5.175781 -27.46875 6.941406 -29.410156 9.171875 -30.765625 C 11.410156 -32.128906 13.910156 -32.8125 16.671875 -32.8125 C 19.078125 -32.8125 21.179688 -32.320312 22.984375 -31.34375 C 24.796875 -30.375 26.242188 -29.15625 27.328125 -27.6875 L 27.328125 -32.28125 L 35.546875 -32.28125 L 35.546875 0 L 27.328125 0 L 27.328125 -4.71875 C 26.285156 -3.207031 24.835938 -1.953125 22.984375 -0.953125 C 21.140625 0.0351562 19.015625 0.53125 16.609375 0.53125 C 13.890625 0.53125 11.410156 -0.164062 9.171875 -1.5625 C 6.941406 -2.96875 5.175781 -4.941406 3.875 -7.484375 C 2.570312 -10.035156 1.921875 -12.960938 1.921875 -16.265625 Z M 27.328125 -16.140625 C 27.328125 -18.117188 26.9375 -19.816406 26.15625 -21.234375 C 25.382812 -22.660156 24.335938 -23.75 23.015625 -24.5 C 21.703125 -25.257812 20.285156 -25.640625 18.765625 -25.640625 C 17.253906 -25.640625 15.851562 -25.269531 14.5625 -24.53125 C 13.28125 -23.789062 12.238281 -22.710938 11.4375 -21.296875 C 10.644531 -19.878906 10.25 -18.203125 10.25 -16.265625 C 10.25 -14.316406 10.644531 -12.613281 11.4375 -11.15625 C 12.238281 -9.695312 13.289062 -8.578125 14.59375 -7.796875 C 15.894531 -7.023438 17.285156 -6.640625 18.765625 -6.640625 C 20.285156 -6.640625 21.703125 -7.019531 23.015625 -7.78125 C 24.335938 -8.539062 25.382812 -9.628906 26.15625 -11.046875 C 26.9375 -12.460938 27.328125 -14.160156 27.328125 -16.140625 Z M 27.328125 -16.140625 "/></g></g></g><g fill="#000000" fill-opacity="1"><g transform="translate(310.585213, 614.155555)"><g><path d="M 21.90625 -32.75 C 25.757812 -32.75 28.867188 -31.535156 31.234375 -29.109375 C 33.609375 -26.679688 34.796875 -23.289062 34.796875 -18.9375 L 34.796875 0 L 26.640625 0 L 26.640625 -17.828125 C 26.640625 -20.398438 25.992188 -22.375 24.703125 -23.75 C 23.421875 -25.125 21.675781 -25.8125 19.46875 -25.8125 C 17.207031 -25.8125 15.425781 -25.125 14.125 -23.75 C 12.832031 -22.375 12.1875 -20.398438 12.1875 -17.828125 L 12.1875 0 L 4.015625 0 L 4.015625 -32.28125 L 12.1875 -32.28125 L 12.1875 -28.265625 C 13.269531 -29.660156 14.65625 -30.753906 16.34375 -31.546875 C 18.039062 -32.347656 19.894531 -32.75 21.90625 -32.75 Z M 21.90625 -32.75 "/></g></g></g><g fill="#000000" fill-opacity="1"><g transform="translate(349.106602, 614.155555)"><g/></g></g><g fill="#000000" fill-opacity="1"><g transform="translate(362.976625, 614.155555)"><g><path d="M 1.921875 -16.265625 C 1.921875 -19.523438 2.570312 -22.414062 3.875 -24.9375 C 5.175781 -27.46875 6.953125 -29.410156 9.203125 -30.765625 C 11.460938 -32.128906 13.972656 -32.8125 16.734375 -32.8125 C 18.828125 -32.8125 20.820312 -32.351562 22.71875 -31.4375 C 24.625 -30.53125 26.144531 -29.316406 27.28125 -27.796875 L 27.28125 -43.125 L 35.546875 -43.125 L 35.546875 0 L 27.28125 0 L 27.28125 -4.78125 C 26.269531 -3.1875 24.847656 -1.898438 23.015625 -0.921875 C 21.191406 0.046875 19.078125 0.53125 16.671875 0.53125 C 13.953125 0.53125 11.460938 -0.164062 9.203125 -1.5625 C 6.953125 -2.96875 5.175781 -4.941406 3.875 -7.484375 C 2.570312 -10.035156 1.921875 -12.960938 1.921875 -16.265625 Z M 27.328125 -16.140625 C 27.328125 -18.117188 26.9375 -19.816406 26.15625 -21.234375 C 25.382812 -22.660156 24.335938 -23.75 23.015625 -24.5 C 21.703125 -25.257812 20.285156 -25.640625 18.765625 -25.640625 C 17.253906 -25.640625 15.851562 -25.269531 14.5625 -24.53125 C 13.28125 -23.789062 12.238281 -22.710938 11.4375 -21.296875 C 10.644531 -19.878906 10.25 -18.203125 10.25 -16.265625 C 10.25 -14.316406 10.644531 -12.613281 11.4375 -11.15625 C 12.238281 -9.695312 13.289062 -8.578125 14.59375 -7.796875 C 15.894531 -7.023438 17.285156 -6.640625 18.765625 -6.640625 C 20.285156 -6.640625 21.703125 -7.019531 23.015625 -7.78125 C 24.335938 -8.539062 25.382812 -9.628906 26.15625 -11.046875 C 26.9375 -12.460938 27.328125 -14.160156 27.328125 -16.140625 Z M 27.328125 -16.140625 "/></g></g></g><g fill="#000000" fill-opacity="1"><g transform="translate(402.488732, 614.155555)"><g><path d="M 8.15625 -36.140625 C 6.71875 -36.140625 5.519531 -36.59375 4.5625 -37.5 C 3.613281 -38.414062 3.140625 -39.550781 3.140625 -40.90625 C 3.140625 -42.269531 3.613281 -43.40625 4.5625 -44.3125 C 5.519531 -45.226562 6.71875 -45.6875 8.15625 -45.6875 C 9.59375 -45.6875 10.785156 -45.226562 11.734375 -44.3125 C 12.691406 -43.40625 13.171875 -42.269531 13.171875 -40.90625 C 13.171875 -39.550781 12.691406 -38.414062 11.734375 -37.5 C 10.785156 -36.59375 9.59375 -36.140625 8.15625 -36.140625 Z M 12.1875 -32.28125 L 12.1875 0 L 4.015625 0 L 4.015625 -32.28125 Z M 12.1875 -32.28125 "/></g></g></g><g fill="#000000" fill-opacity="1"><g transform="translate(418.689869, 614.155555)"><g/></g></g><g fill="#000000" fill-opacity="1"><g transform="translate(432.559891, 614.155555)"><g><path d="M 31.703125 -40.6875 L 31.703125 -34.09375 L 20.859375 -34.09375 L 20.859375 0 L 12.703125 0 L 12.703125 -34.09375 L 1.859375 -34.09375 L 1.859375 -40.6875 Z M 31.703125 -40.6875 "/></g></g></g><g fill="#000000" fill-opacity="1"><g transform="translate(466.185968, 614.155555)"><g><path d="M 34.03125 -16.84375 C 34.03125 -15.675781 33.953125 -14.628906 33.796875 -13.703125 L 10.203125 -13.703125 C 10.390625 -11.367188 11.203125 -9.539062 12.640625 -8.21875 C 14.078125 -6.894531 15.847656 -6.234375 17.953125 -6.234375 C 20.984375 -6.234375 23.140625 -7.535156 24.421875 -10.140625 L 33.21875 -10.140625 C 32.289062 -7.035156 30.503906 -4.476562 27.859375 -2.46875 C 25.210938 -0.46875 21.96875 0.53125 18.125 0.53125 C 15.019531 0.53125 12.234375 -0.15625 9.765625 -1.53125 C 7.296875 -2.914062 5.367188 -4.867188 3.984375 -7.390625 C 2.609375 -9.921875 1.921875 -12.835938 1.921875 -16.140625 C 1.921875 -19.484375 2.597656 -22.414062 3.953125 -24.9375 C 5.316406 -27.46875 7.222656 -29.410156 9.671875 -30.765625 C 12.117188 -32.128906 14.9375 -32.8125 18.125 -32.8125 C 21.195312 -32.8125 23.945312 -32.148438 26.375 -30.828125 C 28.800781 -29.503906 30.679688 -27.628906 32.015625 -25.203125 C 33.359375 -22.773438 34.03125 -19.988281 34.03125 -16.84375 Z M 25.578125 -19.171875 C 25.546875 -21.273438 24.789062 -22.957031 23.3125 -24.21875 C 21.832031 -25.476562 20.023438 -26.109375 17.890625 -26.109375 C 15.867188 -26.109375 14.164062 -25.492188 12.78125 -24.265625 C 11.40625 -23.046875 10.5625 -21.347656 10.25 -19.171875 Z M 25.578125 -19.171875 "/></g></g></g><g fill="#000000" fill-opacity="1"><g transform="translate(502.143125, 614.155555)"><g><path d="M 44.125 -32.75 C 48.082031 -32.75 51.273438 -31.535156 53.703125 -29.109375 C 56.128906 -26.679688 57.34375 -23.289062 57.34375 -18.9375 L 57.34375 0 L 49.1875 0 L 49.1875 -17.828125 C 49.1875 -20.359375 48.546875 -22.289062 47.265625 -23.625 C 45.984375 -24.96875 44.234375 -25.640625 42.015625 -25.640625 C 39.804688 -25.640625 38.050781 -24.96875 36.75 -23.625 C 35.445312 -22.289062 34.796875 -20.359375 34.796875 -17.828125 L 34.796875 0 L 26.640625 0 L 26.640625 -17.828125 C 26.640625 -20.359375 25.992188 -22.289062 24.703125 -23.625 C 23.421875 -24.96875 21.675781 -25.640625 19.46875 -25.640625 C 17.207031 -25.640625 15.425781 -24.96875 14.125 -23.625 C 12.832031 -22.289062 12.1875 -20.359375 12.1875 -17.828125 L 12.1875 0 L 4.015625 0 L 4.015625 -32.28125 L 12.1875 -32.28125 L 12.1875 -28.390625 C 13.226562 -29.742188 14.570312 -30.804688 16.21875 -31.578125 C 17.875 -32.359375 19.695312 -32.75 21.6875 -32.75 C 24.207031 -32.75 26.457031 -32.210938 28.4375 -31.140625 C 30.414062 -30.078125 31.953125 -28.554688 33.046875 -26.578125 C 34.097656 -28.441406 35.625 -29.9375 37.625 -31.0625 C 39.625 -32.1875 41.789062 -32.75 44.125 -32.75 Z M 44.125 -32.75 "/></g></g></g><g fill="#000000" fill-opacity="1"><g transform="translate(563.217849, 614.155555)"><g><path d="M 12.1875 -27.625 C 13.226562 -29.101562 14.671875 -30.335938 16.515625 -31.328125 C 18.367188 -32.316406 20.476562 -32.8125 22.84375 -32.8125 C 25.601562 -32.8125 28.097656 -32.128906 30.328125 -30.765625 C 32.566406 -29.410156 34.335938 -27.476562 35.640625 -24.96875 C 36.941406 -22.46875 37.59375 -19.566406 37.59375 -16.265625 C 37.59375 -12.960938 36.941406 -10.035156 35.640625 -7.484375 C 34.335938 -4.941406 32.566406 -2.96875 30.328125 -1.5625 C 28.097656 -0.164062 25.601562 0.53125 22.84375 0.53125 C 20.476562 0.53125 18.390625 0.046875 16.578125 -0.921875 C 14.773438 -1.898438 13.3125 -3.128906 12.1875 -4.609375 L 12.1875 15.390625 L 4.015625 15.390625 L 4.015625 -32.28125 L 12.1875 -32.28125 Z M 29.25 -16.265625 C 29.25 -18.203125 28.851562 -19.878906 28.0625 -21.296875 C 27.269531 -22.710938 26.222656 -23.789062 24.921875 -24.53125 C 23.617188 -25.269531 22.207031 -25.640625 20.6875 -25.640625 C 19.207031 -25.640625 17.816406 -25.257812 16.515625 -24.5 C 15.210938 -23.75 14.164062 -22.65625 13.375 -21.21875 C 12.582031 -19.78125 12.1875 -18.085938 12.1875 -16.140625 C 12.1875 -14.203125 12.582031 -12.515625 13.375 -11.078125 C 14.164062 -9.640625 15.210938 -8.539062 16.515625 -7.78125 C 17.816406 -7.019531 19.207031 -6.640625 20.6875 -6.640625 C 22.207031 -6.640625 23.617188 -7.023438 24.921875 -7.796875 C 26.222656 -8.578125 27.269531 -9.6875 28.0625 -11.125 C 28.851562 -12.5625 29.25 -14.273438 29.25 -16.265625 Z M 29.25 -16.265625 "/></g></g></g><g fill="#000000" fill-opacity="1"><g transform="translate(602.729956, 614.155555)"><g><path d="M 1.921875 -16.265625 C 1.921875 -19.523438 2.570312 -22.414062 3.875 -24.9375 C 5.175781 -27.46875 6.941406 -29.410156 9.171875 -30.765625 C 11.410156 -32.128906 13.910156 -32.8125 16.671875 -32.8125 C 19.078125 -32.8125 21.179688 -32.320312 22.984375 -31.34375 C 24.796875 -30.375 26.242188 -29.15625 27.328125 -27.6875 L 27.328125 -32.28125 L 35.546875 -32.28125 L 35.546875 0 L 27.328125 0 L 27.328125 -4.71875 C 26.285156 -3.207031 24.835938 -1.953125 22.984375 -0.953125 C 21.140625 0.0351562 19.015625 0.53125 16.609375 0.53125 C 13.890625 0.53125 11.410156 -0.164062 9.171875 -1.5625 C 6.941406 -2.96875 5.175781 -4.941406 3.875 -7.484375 C 2.570312 -10.035156 1.921875 -12.960938 1.921875 -16.265625 Z M 27.328125 -16.140625 C 27.328125 -18.117188 26.9375 -19.816406 26.15625 -21.234375 C 25.382812 -22.660156 24.335938 -23.75 23.015625 -24.5 C 21.703125 -25.257812 20.285156 -25.640625 18.765625 -25.640625 C 17.253906 -25.640625 15.851562 -25.269531 14.5625 -24.53125 C 13.28125 -23.789062 12.238281 -22.710938 11.4375 -21.296875 C 10.644531 -19.878906 10.25 -18.203125 10.25 -16.265625 C 10.25 -14.316406 10.644531 -12.613281 11.4375 -11.15625 C 12.238281 -9.695312 13.289062 -8.578125 14.59375 -7.796875 C 15.894531 -7.023438 17.285156 -6.640625 18.765625 -6.640625 C 20.285156 -6.640625 21.703125 -7.019531 23.015625 -7.78125 C 24.335938 -8.539062 25.382812 -9.628906 26.15625 -11.046875 C 26.9375 -12.460938 27.328125 -14.160156 27.328125 -16.140625 Z M 27.328125 -16.140625 "/></g></g></g><g fill="#000000" fill-opacity="1"><g transform="translate(642.242063, 614.155555)"><g><path d="M 13.515625 -25.578125 L 13.515625 -9.96875 C 13.515625 -8.875 13.773438 -8.082031 14.296875 -7.59375 C 14.828125 -7.113281 15.710938 -6.875 16.953125 -6.875 L 20.75 -6.875 L 20.75 0 L 15.625 0 C 8.738281 0 5.296875 -3.34375 5.296875 -10.03125 L 5.296875 -25.578125 L 1.453125 -25.578125 L 1.453125 -32.28125 L 5.296875 -32.28125 L 5.296875 -40.265625 L 13.515625 -40.265625 L 13.515625 -32.28125 L 20.75 -32.28125 L 20.75 -25.578125 Z M 13.515625 -25.578125 "/></g></g></g></svg>