<?xml version="1.0" encoding="UTF-8"?>
<!DOCTYPE svg PUBLIC "-//W3C//DTD SVG 1.1//EN" "http://www.w3.org/Graphics/SVG/1.1/DTD/svg11.dtd">
<!-- Creator: CorelDRAW -->
<svg xmlns="http://www.w3.org/2000/svg" xml:space="preserve" width="297mm" height="210mm" version="1.1" style="shape-rendering:geometricPrecision; text-rendering:geometricPrecision; image-rendering:optimizeQuality; fill-rule:evenodd; clip-rule:evenodd"
viewBox="0 0 29700 21000"
 xmlns:xlink="http://www.w3.org/1999/xlink"
 xmlns:xodm="http://www.corel.com/coreldraw/odm/2003">
 <defs>
  <style type="text/css">
   <![CDATA[
    .fil0 {fill:#332C2B}
   ]]>
  </style>
 </defs>
 <g id="Layer_x0020_1">
  <metadata id="CorelCorpID_0Corel-Layer"/>
  <g id="_2074568858064">
   <path class="fil0" d="M14984.43 7014.61c1846.32,0 3343.06,1496.74 3343.06,3343.05 0,1846.32 -1496.74,3343.05 -3343.06,3343.05 -142.93,0 -283.76,-9.01 -421.98,-26.41 -1642.69,-213.07 -2918.54,-1622.49 -2918.54,-3320.22 0,-1064.5 501.61,-2015.63 1280.7,-2629.62 567.69,-444.7 1282.77,-709.85 2059.82,-709.85zm-591.56 3516.46c-40.14,-10.74 -296.65,-109.92 -330.29,-103.35 -29.34,5.72 -126.72,297.26 -122.54,334.75 15.63,-1.75 145.84,42.07 187.71,53.54 44.02,12.04 144,52.5 162.6,36.93 12.09,-37.55 35.56,-107.19 59.61,-171.94 12.05,-32.42 57.88,-134.48 42.91,-149.93zm-473.4 163.13c-1.26,-6.45 -323.74,-114.15 -361.36,-110.03l7.91 2.88 -119.95 327.89 366.14 118.25c-4.87,-43.76 112.04,-314.55 107.26,-338.99zm2337.43 -1712.79c-28.7,-82.35 -57.9,-162.05 -54.03,-184.68 8.66,-50.6 34.37,-76.08 126.24,-77.94 205.36,-4.23 455.03,49.93 611.8,188.26 -22.87,32.91 -147.41,109.83 -274.71,186.23 -127.28,76.39 -257.5,152.45 -291.85,152.45 -51.5,-93.66 -113.24,-252.19 -117.45,-264.32zm-2627.75 3649.31c-8.35,75.18 -18.38,150.07 -26.35,225.69 338.92,-246.3 650.73,-493.38 997.18,-729.16l19.11 -228.81c-343.71,246.37 -681.31,503.25 -989.94,732.28zm1097.62 397.17c-161.24,95.75 -416.51,94.26 -553.29,126.06 61.2,18.8 245.39,40.65 356.48,26.24 61.89,-8.02 148.61,-29.43 199.78,-60.25 99.67,-59.95 239.9,-193.49 245.08,-193.49 73.72,61.98 253.39,186.05 323.76,55.89 32.95,-60.94 17.21,-77.86 17.21,-117.61 0,-29.31 -12.82,-89.72 -19.18,-112 -12.07,-42.27 -28.98,-76.94 -73.09,-93.64 -59.24,-22.45 -81.12,-24.51 -147.28,44.29 -37.55,39.01 -68.53,83.9 -101.08,125.95 -64.46,83.19 -176.51,155.91 -248.39,198.56zm530.91 -128.17c-93.75,7.62 -165.83,-9.19 -206.82,-70.39 12.67,-33.95 48.56,-63.64 69.05,-57.97 50.48,13.99 136.51,101.19 137.77,128.36zm-1949.5 -3187.78c42.6,-123.38 184.12,-156.51 260.43,-63.77 30.6,131.64 45.17,225.53 108.79,353.78 71.88,144.84 356.11,315.92 725,167.94 32.39,144.44 59.34,287.22 74.04,438.9 11.27,116.39 5.25,265.43 -38.53,379.54 -46.72,137.66 -248.27,378.29 -440.18,594.86 -76.69,86.56 -252,226.37 -498.67,267.31 -195.73,32.49 -369.44,-20.57 -498.38,-132.66 -106.18,-92.34 -183.64,-250.48 -203.06,-417.42 -10.54,-90.64 -20.13,-183 -36.6,-201.75 -47.01,100.51 -103.72,687.26 105.4,943.22 90.94,111.29 299.71,256.4 484.72,258.43 329.45,3.66 611.75,-269.37 855.33,-670.52 148.41,-244.42 292.43,-522.78 331.4,-583.79 82.46,525.37 192,889.17 612.44,1254.36 271.37,235.73 702.25,483.79 1073.84,514.74 32,-114.39 88.58,-339.81 106.47,-439.74 -57.93,13.81 -695.5,-192.41 -695.5,-368.82 0,-213.44 649.4,-490.06 843.46,-582.64 349.73,-166.89 731.71,-301.3 1103.23,-413.79 57.9,-17.52 204.23,-385.48 217.8,-436.29 -288.51,-10.37 -576.92,-29.12 -865.19,-49.18 -412.68,-28.7 -1519.28,-77.17 -1519.28,-106.87 0,-170.13 957.79,-700.86 1046.54,-747.49 39.22,71.37 82.53,160.74 98.59,199.71 14.04,33.9 48.93,157.84 68.4,171.88 15.12,-31.51 17.42,-140.33 3.43,-181.2 -13.62,-39.82 -51.02,-184.95 -75.07,-242.03 151.55,-84.88 281.89,-171.57 380.58,-232.59 142.76,-88.25 204.05,-219.09 209.1,-372.63 3.3,-100.58 14.44,-325.29 -63.86,-397.19 -200.93,-184.39 -545.28,-333.79 -702.01,-370.17 -127.02,-29.47 -264.9,68.51 -270.24,228.32 -6,180.2 -11.07,345.22 35.81,522.03 29.91,112.98 86.56,193.2 132.68,307.11 -431.62,280.71 -853.27,567.18 -1291.11,1091.58 -49.18,42.4 -135.81,356 -147.7,462.44 236.91,29.12 484.3,32.79 728.83,51.5 324.6,24.83 647.38,61.54 963.32,74.3 -275.35,143.62 -558.74,251.77 -776.19,456.26 -210.54,197.96 -215.1,357.97 -236.82,623.34 -434.41,-186.85 -743.67,-666.68 -797.16,-1133.01 -32.13,-280.07 -45.91,-629.03 -84.15,-854.21l-6.86 -39.41c82.57,-74.01 159.32,-185.72 184.45,-259.72 37.05,-109.3 47.43,-168.45 44.24,-280.49 -3.47,-121.48 -131.48,-345.11 -259.25,-469.26l-75.16 312.79c74.78,27.95 160.19,176.02 206.07,312.11 -49.14,63.64 -98.8,114.2 -148.29,154.9 -52.08,-215.83 -120.71,-411.96 -217.65,-645.33 -7.37,-23.31 -149.16,-297.58 -199.53,-311.02l-109.22 353.8c154.37,321.9 245.09,547.7 289.2,728.61l1.55 6.44c-15.13,5.36 -30.16,10.32 -45.06,14.82 -197.7,59.89 -419.51,17.36 -550.84,-157.64 -61.98,-82.6 -81.2,-157.55 -101.09,-252.72 -15.32,-73.41 -26.02,-220.49 -70.33,-250.29 -109.05,-24.71 -172.43,52.83 -193.31,92.74 -78.67,150.42 -260.91,474.51 -302.94,541.2 -97.32,154.56 -181.27,214.66 -340.92,248.58 -159.65,33.93 -258.04,-156.17 -308.52,-264.03 -22.86,-48.79 -52.15,-190.99 -66.23,-217.47 -15.97,110.11 -4.06,314.81 41.91,469.3 31.62,106.25 120.31,256.91 230.98,293.07 286.82,93.75 566.69,-454.69 666.87,-744.77zm-473.29 -838.59c8.15,32.66 282.08,175.57 316.4,189.72 1.73,-20.75 76.16,-158.28 84.42,-171.48 19.04,-30.44 74.33,-130.11 64.63,-147.67 -6.8,-9.3 -288.55,-177.32 -312.29,-177.32 -8.39,0 -67.42,140.23 -87.37,168.53 -12.54,17.76 -67.7,130.47 -65.79,138.22zm458.37 -37.25c0,10.48 287.73,167.72 319.35,184.41l165.39 -303.8c-17.43,-2.42 -160.06,-79.74 -180.89,-92.61 -56.53,-35.1 -88.69,-47.3 -147.74,-71.68 -14.06,26.51 -156.11,258.66 -156.11,283.68zm1245.34 -365.98l-31.84 181.57 966.75 -764.85 33.88 -192.65 -968.79 775.93zm1124.33 -227.97c12.18,30.67 79.47,104.34 154.76,135.14 -36.12,169.29 -149.16,350.6 -219.11,464.84 -68.75,112.31 -139.57,187.77 -149.18,197.94 -36.45,38.39 -153.67,159.6 -176.19,193.26 29.71,-2.48 165.14,-102.79 223.18,-161.91 135.85,-138.2 358.1,-444.15 404.98,-662.73 67.18,19.69 57.48,17.63 88.59,66.72 24.1,-69.35 45.46,-119.35 34.26,-181.16 -4.78,-26.5 -37.42,-40.83 -68.05,-55.51 12.05,-69.02 15.5,-86.6 15.5,-174.69 0,-123.36 -45.99,-282.95 -116.58,-298.91 -163.88,12.09 -217.23,231.4 -227.61,327.68 -8.08,74.75 15.7,99.75 35.45,149.33zm205.31 -23.12c-45.66,-14.43 -62.26,-27.59 -109.16,-50.86 -50.25,-27.9 -87.12,-23.58 -77.88,-82.2 15.63,-72.69 141.16,-155 183.83,-167.02 33.26,8.88 39.31,69.22 36.18,122.16 -2.76,46.95 -14.12,104.7 -32.97,177.92zm-809.78 1594.1l-75.8 229.32 932.46 -709.03 50.55 -219.15 -907.21 698.86zm52.61 -1041.35c-58.57,-25.8 -175.88,-171.81 -164.32,-226.46 -78.37,37.48 -96.55,69.37 -65.68,125.79 78.39,143.11 118.2,218.67 214.99,241.34 126.64,29.63 206.93,-128.61 208.37,-211.18 91.14,83.15 176.95,29.03 204.36,-39.9 21.92,-55.09 29.03,-114.64 19.4,-153.39 -21.26,-85.45 -106.27,-175.51 -134.35,-218 -30.82,25.69 -54.78,37.18 -49.29,83.15 5.12,42.67 32.31,80.98 79.43,127.88 23.89,23.8 35.01,28.43 59.06,64.15 -33.82,25.99 -96.31,60.96 -115.81,62.35 -67.56,4.7 -149.69,-190.34 -150.03,-188.44 -7.19,-2.85 -23.2,-3.94 -30.4,-6.8 -13.7,19.31 -29.2,40.33 -37.66,66.7 6.26,64.77 66.2,147.81 102.76,202.37 -22.87,42.07 -81.88,96.43 -140.83,70.44zm1557.46 2900.8c-27.33,36.03 -65.08,97.32 -80.63,130.2 -41.94,88.44 -52.77,198.87 -42.07,294.53 8.19,73.27 40.39,177.17 113.35,204.34 85.7,31.84 204.65,8.99 281.62,-33.57 143.38,-79.34 290.5,-176.57 354.91,-332.46l-130.13 91.25 -4.7 -6.15c11.45,27.63 -168.55,128.32 -204.11,149.67 -66.72,40.1 -162.87,65.12 -244.31,18.53 -161.96,-92.67 -97.92,-264.15 -79.52,-318.89 18,-53.61 129.74,-201.02 208.13,-240.59 -1.04,-71.27 11.87,-143.6 -89.35,-97.98 -50.84,22.94 -66.34,29.52 -108.42,47.21 -211.2,106.09 -300.26,109.59 -280.66,189.92l43.51 79.12c25.35,-69.55 205.76,-137.07 262.38,-175.13zm-2743.37 -3437.29l-31.84 181.59 787.06 -641.93 33.88 -192.65 -789.1 652.99z"/>
   <g>
    <path class="fil0" d="M11239.39 10296.55c-43.71,-11.92 -103.3,-63.58 -139.06,-95.35 3.97,-35.79 11.91,-71.55 19.86,-107.31 -15.89,0 -67.56,-63.57 -75.5,-75.49 -15.88,-7.95 -27.82,-15.9 -39.73,-19.86 0,-47.7 -123.18,-63.59 -123.18,-135.12 -7.95,-19.86 -15.9,-39.72 -19.87,-55.62 11.92,-147.03 19.87,-321.88 87.4,-456.97 39.75,31.79 79.5,67.55 119.22,103.32 35.77,35.76 222.52,230.46 254.32,198.67 0,7.95 3.96,15.9 7.95,23.85 -55.62,131.13 -79.47,353.65 -79.47,484.78 27.81,27.81 -27.81,79.47 0,107.28 -3.99,7.95 -7.95,15.9 -11.94,27.82zm-119.2 -429.14c-59.61,-55.65 -115.23,-127.17 -166.89,-190.74 7.95,-31.8 15.9,-63.58 27.81,-95.38 63.58,0 139.08,147.04 166.9,190.75 -3.97,27.81 -3.97,55.62 -3.97,87.42 -7.95,0 -15.9,3.96 -23.85,7.95zm441.08 -1319.26c-43.71,-75.51 -178.81,-294.06 -39.75,-313.93 19.89,63.58 39.75,131.14 59.61,198.7 31.8,0 3.99,99.33 0,111.24 -7.95,0 -15.9,0 -19.86,3.99zm7506.25 1343.08l-214.59 -131.13c-35.77,-170.86 107.28,-7.93 174.84,-7.93 19.86,11.92 39.75,23.83 59.61,39.73 -3.99,31.8 -3.99,63.57 -3.99,95.37 -7.92,0 -11.91,0 -15.87,3.96zm-671.57 -1696.73c-79.47,-11.94 -158.94,-23.85 -234.43,-35.76 -7.95,-27.84 -15.9,-51.66 -23.85,-75.51 43.71,3.96 341.74,-7.95 301.99,111.27l-43.71 0zm182.8 325.84c-47.68,-47.7 -154.99,-27.84 -214.57,-67.56 -3.99,-23.85 -7.95,-43.71 -7.95,-63.57 79.47,3.96 158.94,7.94 242.38,15.89 3.98,27.82 19.88,87.4 7.95,111.25 -11.92,0 -19.86,0 -27.81,3.99zm206.64 333.79c-23.85,-7.95 -43.71,-15.9 -63.6,-23.85 0,-23.85 -71.52,-27.81 -87.42,-31.8 -23.83,-23.85 -47.67,-27.81 -79.47,-31.77 -15.88,-7.95 -27.81,-15.9 -39.73,-23.85 -3.98,-15.9 -7.95,-31.8 -7.95,-43.71 79.48,0 162.91,23.84 242.41,39.72 0,3.99 3.96,7.95 7.92,15.9l15.9 0c7.95,31.8 19.87,63.57 31.8,99.36l-19.86 0zm111.25 321.85c-79.48,-31.8 -154.96,-59.61 -230.47,-87.42 -7.95,-27.81 -15.9,-51.66 -19.86,-75.49 7.94,-3.98 15.89,-7.95 27.81,-7.95 67.56,15.88 158.94,83.44 218.55,83.44 7.95,27.81 15.9,55.62 23.83,87.42l-19.86 0zm111.27 365.59c-55.63,-43.71 -305.98,-103.32 -230.47,-218.56 79.47,19.87 170.86,83.44 234.43,127.15 -3.96,27.81 -3.96,59.61 -3.96,91.41zm-1498.07 -2117.97c-31.8,0 -63.59,-11.91 -87.42,-31.8 0,-11.91 0,-19.86 3.96,-27.81 87.42,-19.86 178.83,-39.73 270.22,-55.62 3.96,15.89 43.71,43.71 35.76,63.57 -75.51,15.9 -151,31.8 -222.52,51.66zm715.25 476.83c-79.47,-3.96 -226.5,11.94 -290.07,-39.72 -3.97,-11.94 -3.97,-19.89 -3.97,-27.81 79.47,-7.95 158.95,-15.9 238.42,-19.89 55.62,0 55.62,43.71 55.62,87.42zm-1013.28 -691.4c-43.71,-11.94 -43.71,-23.85 -55.62,-59.61 79.47,0 202.66,-127.17 246.34,-39.75 11.94,7.95 23.85,15.9 39.75,27.84 -3.96,11.91 -3.96,23.82 -3.96,35.76 -51.66,7.93 -103.32,19.86 -154.98,31.77 -23.85,0 -47.68,0 -71.53,3.99zm-2316.64 -691.43c-7.95,-3.96 -15.9,-7.95 -23.84,-7.95 0,-47.67 27.81,-83.43 67.55,-103.32 55.63,-99.33 67.54,-111.25 182.78,-99.33 -31.78,67.56 -107.29,139.08 -151,194.7 -27.81,3.99 -51.66,7.95 -75.49,15.9zm325.84 3.99c19.87,-83.46 99.34,-151.02 162.91,-202.66 23.85,-3.98 47.7,-3.98 71.53,-3.98l0 15.9 15.89 0c-3.96,11.91 -3.96,27.81 -3.96,43.71 -55.65,27.81 -99.36,91.38 -139.08,135.09l-107.29 11.94zm-647.71 15.88c-11.92,-3.97 -23.85,-3.97 -31.78,-3.97 0,-35.76 31.78,-63.57 47.68,-79.47 39.72,-75.51 79.47,-154.98 174.84,-154.98 -3.98,19.88 -7.95,39.75 -7.95,59.61l-11.91 0c-35.79,55.62 -71.55,115.23 -103.32,174.84 -23.85,0 -47.7,0 -67.56,3.97zm1041.09 35.76c-15.88,-3.97 -31.78,-7.93 -43.71,-11.92 0,-15.89 0,-27.81 3.99,-39.72 15.89,0 143.04,-111.27 154.95,-127.17 31.8,-11.91 103.33,-35.76 103.33,23.85 -31.78,27.81 -166.9,154.96 -218.56,154.96zm-1410.64 19.88c0,-87.42 79.47,-158.94 91.4,-242.4 43.72,-19.86 71.53,-23.85 119.2,-7.95 -47.67,75.51 -95.37,150.99 -139.08,226.5l-71.52 23.85zm1712.65 43.71l-23.84 -11.93c0,-47.68 95.37,-91.39 131.13,-103.3 47.67,-35.76 91.38,-67.56 150.99,-39.75 -3.96,11.91 -3.96,23.85 -3.96,39.75l-178.83 107.28c-27.81,0 -51.66,3.97 -75.49,7.95zm401.33 123.19c-35.76,-15.9 -67.54,-31.8 -99.33,-43.71 -3.97,-7.95 -3.97,-15.9 -3.97,-23.85 31.78,-19.87 71.52,-63.58 115.24,-63.58l0 -11.93c23.82,-15.88 51.63,-31.78 79.47,-47.68 59.59,0 103.3,3.97 131.13,63.58 -31.8,0 -91.41,47.69 -111.27,67.56 -39.75,19.86 -75.51,39.72 -111.27,59.61zm262.27 123.18c-19.87,-11.94 -35.76,-23.85 -51.66,-31.8 11.93,-63.57 111.27,-83.43 158.94,-103.32 67.56,-47.67 95.37,-15.9 162.93,19.89 0,47.67 -218.55,107.28 -270.21,115.23zm333.79 154.96c-31.8,-11.91 -67.56,-23.83 -67.56,-59.61 95.37,-35.76 194.7,-107.29 298.02,-71.52l11.94 47.69c-7.95,0 -15.9,0 -19.89,3.97l0 11.93c-75.48,19.86 -150.99,43.71 -222.51,67.54zm-4510.1 449.02c-23.85,-79.47 -7.95,-186.75 -3.99,-270.19 19.87,-3.99 39.75,-7.95 59.61,-7.95 7.95,59.59 27.82,178.81 3.97,230.47l-59.59 47.67zm1502.03 -814.59c-7.95,-3.98 -15.9,-3.98 -19.86,-3.98 0,-83.44 39.74,-162.91 75.51,-238.42 27.81,-11.91 55.62,-23.85 83.43,-31.77 3.99,3.96 11.92,7.92 19.86,11.91 -19.86,71.52 -75.48,206.62 -127.14,258.28 -11.92,0 -23.85,0 -31.8,3.98zm-321.85 107.29c-11.94,-3.99 -23.85,-7.95 -31.8,-7.95 11.91,-47.67 63.57,-154.98 63.57,-206.62l11.94 0c0,-35.78 39.72,-39.75 67.53,-43.71 0,3.96 3.99,7.93 7.95,11.91l-59.58 190.75c-15.9,7.92 -23.85,19.86 -23.85,35.76 -11.94,3.96 -23.85,11.91 -35.76,19.86zm-341.74 135.1c0,-75.49 27.81,-206.62 83.43,-262.27 11.94,-3.96 27.84,-7.93 43.71,-7.93 39.75,39.73 -19.86,190.72 -31.77,238.42 -31.8,7.95 -63.58,19.86 -95.37,31.78zm-305.98 174.84c0,-79.47 11.94,-246.37 95.37,-286.09l0 -7.95c7.95,0 19.86,0 31.8,3.96 -3.99,75.51 -39.75,234.46 -87.42,282.13 -15.9,0 -27.81,3.99 -39.75,7.95zm-270.22 194.71c-3.96,-19.87 -7.92,-39.73 -7.92,-55.63l11.91 -226.5c23.85,-11.92 47.67,-23.85 75.51,-31.78 0,75.49 0,154.96 3.96,234.43 -19.86,31.8 -59.61,67.56 -83.46,79.48zm-500.66 417.24c-23.85,-99.35 -47.69,-190.74 -3.98,-282.12l15.9 0c15.89,31.77 71.52,282.12 -11.92,282.12zm-234.45 282.13l-59.61 -238.41c11.93,-43.72 35.76,-59.61 87.42,-59.61 3.99,95.37 39.75,206.61 -7.95,294.04 -7.95,0 -15.9,0 -19.86,3.98zm-155.2 214.62l-8.44 -66.68c-15.66,-62.55 -31.27,-125.13 -42.98,-187.68 -103.32,0 -39.75,198.69 -27.84,250.35l3.99 27.81c3.96,7.95 7.95,15.9 11.91,27.81 28.39,0 50.47,-28.54 63.36,-51.61zm366.36 -313.38c-37.16,52.9 -101.37,141.94 -129.01,192.72 0,0 -9.06,10.63 -13.68,15.1 -37.32,58.66 -74.23,119.86 -108.22,181.02 -19.86,23.83 -39.72,47.68 -55.62,75.49 -19.87,43.71 -79.48,107.28 -79.48,154.98 -99.33,99.33 -107.28,282.13 -198.67,373.51 -7.95,-15.9 -15.89,-27.81 -23.84,-39.72 -39.75,-19.89 -63.58,-79.47 -103.33,-107.29 -31.79,-55.64 -59.61,-111.27 -87.42,-166.89 -7.95,-3.99 -15.9,-3.99 -19.86,-3.99 -7.95,7.95 -11.91,19.87 -15.9,31.8 -75.49,0 -83.43,55.63 -135.1,71.52 23.83,-123.18 119.2,-230.46 170.86,-341.73 59.61,-87.43 111.27,-194.71 178.81,-278.17 0,-43.71 59.61,-71.52 59.61,-99.33 83.46,-103.33 166.9,-206.62 254.32,-309.95l119.22 -131.13c7.95,-3.96 15.87,-3.96 23.82,-3.96 0,-27.84 35.76,-51.66 59.61,-51.66 35.76,-71.53 111.27,-91.41 143.05,-154.98l95.37 -71.53c27.81,-43.71 99.36,-67.56 119.22,-107.28l19.86 0 0 -11.94c39.75,-27.81 79.48,-51.64 119.22,-75.48 31.78,-31.8 47.68,-55.63 91.39,-63.58l0 -11.93 11.91 0c0,-31.78 55.65,-43.71 75.51,-47.68l0 -11.91c15.9,-11.94 31.8,-23.85 51.66,-35.78 7.95,-3.97 15.9,-3.97 27.81,-3.97l0 -15.9c59.61,-19.86 119.2,-75.48 178.81,-103.32l59.61 -35.76c7.95,-3.96 19.86,-3.96 31.8,-3.96l0 -15.9c67.54,-15.9 154.96,-103.32 230.47,-103.32 214.57,-143.05 512.59,-186.76 755,-274.18 182.77,-15.9 365.56,-79.47 548.36,-83.44 115.23,-35.76 258.28,-11.93 377.5,-35.76l456.97 35.76c63.57,7.95 131.13,15.9 198.67,27.81 131.13,27.82 262.27,59.61 393.4,91.39l0 11.93c131.13,0 262.26,91.39 389.41,111.25 0,3.99 3.99,7.95 7.95,15.9 123.19,0 250.33,119.22 369.55,147.03 119.22,63.58 238.42,131.14 357.64,198.67 83.44,55.65 166.89,131.14 258.28,174.85l0 11.93c35.76,19.87 71.52,43.71 107.28,67.54l0 15.9 15.9 0c15.9,31.8 67.56,47.7 91.39,83.46 107.31,51.64 170.88,182.77 274.18,234.43 11.93,23.85 39.75,31.8 63.59,43.71 7.95,15.9 19.87,35.76 31.78,55.65l47.7 59.59c19.86,0 119.19,115.23 143.04,139.08 7.95,11.91 15.9,27.81 27.82,43.71l11.91 0 0 15.9c51.66,0 238.44,298.03 278.16,361.6 19.87,0 147.04,218.55 158.95,254.32l11.91 0c7.95,19.86 15.9,39.72 23.85,63.57l11.94 0c39.72,107.28 107.28,206.62 150.99,313.93l11.91 0c0,79.47 83.46,218.55 107.29,298.02 23.85,83.44 51.66,170.86 79.47,258.28 15.9,67.56 31.8,135.1 51.66,202.66 7.95,67.56 15.9,151 43.71,210.61 11.92,111.24 23.85,222.51 39.75,333.78 0,7.95 0,15.9 3.96,27.82l-15.9 0c-11.91,-15.9 -23.82,-31.8 -31.77,-43.71 -59.61,0 -95.37,-3.99 -158.95,11.91 -27.83,-11.91 -51.66,-23.83 -75.5,-31.78l0 63.58c3.96,0 11.91,0 19.86,3.96 -3.97,11.94 -7.95,23.85 -7.95,39.75l-19.86 0c-11.92,19.86 -27.82,27.81 -51.66,35.76 0,11.91 -75.49,55.62 -87.43,55.62 -3.96,-11.91 -7.95,-23.82 -11.91,-31.77 -23.85,-329.83 -79.47,-691.43 -202.66,-1001.37 0,-63.57 -67.56,-131.13 -67.56,-194.71 -31.77,-47.69 -55.62,-107.28 -67.53,-162.93 -39.75,-79.47 -95.37,-162.91 -127.17,-242.38 -27.81,0 -75.49,-162.93 -123.19,-178.83 -11.91,-31.77 -23.84,-59.59 -35.76,-87.42 -35.76,-15.88 -43.71,-59.59 -71.52,-71.52 -3.96,-11.92 -7.95,-23.83 -7.95,-31.78l-11.91 0c-31.8,-99.36 -147.04,-190.74 -206.65,-278.16l-11.91 0c-3.98,-11.92 -7.95,-19.87 -7.95,-27.82l-11.91 0c-47.7,-75.51 -147.03,-135.09 -194.71,-210.6 -23.85,-19.86 -43.71,-39.73 -63.59,-55.63 -11.92,0 -31.78,-35.76 -39.73,-43.71 -11.93,-3.98 -23.85,-7.95 -31.8,-11.93 -15.9,-35.76 -47.67,-47.68 -79.47,-55.63 -11.91,-27.81 -35.76,-75.48 -71.52,-75.48l0 -11.94c-95.37,-47.67 -190.74,-143.04 -282.13,-202.65l-11.91 0 0 -15.9c-63.6,-19.87 -162.93,-119.2 -218.56,-119.2l0 -11.94c-83.46,-43.71 -166.89,-87.4 -246.37,-127.14 -43.71,-15.9 -87.42,-31.8 -131.13,-43.72 -43.71,-19.86 -87.42,-39.72 -127.17,-55.62l0 -11.93c-186.76,-47.68 -373.51,-127.15 -568.22,-154.96l0 -11.94c-143.05,-27.81 -282.13,-51.64 -421.21,-75.49 -190.74,-3.98 -381.46,-7.95 -572.21,-7.95 -115.23,11.92 -226.5,23.85 -337.75,39.73 -158.95,31.8 -317.89,63.6 -476.84,99.36 0,11.91 -99.35,39.72 -119.22,39.72 -75.5,19.89 -150.99,39.75 -222.51,63.58 -59.61,23.84 -119.22,51.66 -174.85,79.49 -31.8,11.91 -59.61,23.83 -87.42,35.76 -63.57,43.71 -151,83.44 -222.52,119.2l0 11.91c-87.42,0 -166.89,107.31 -242.4,131.14l0 15.9c-43.71,27.81 -162.91,87.42 -186.76,135.11 -27.81,0 -47.67,23.83 -55.62,43.69 -43.72,31.8 -87.43,67.56 -131.14,103.32 -23.85,47.7 -95.37,63.58 -111.27,119.22 -27.81,11.92 -59.61,43.71 -59.61,75.49l-19.86 0c-31.8,39.75 -87.42,79.47 -103.32,131.13 -17.98,7.2 -32.68,17.63 -47.12,28.41zm5552.8 -249.88l45.53 22.8c79.47,-7.95 158.94,-11.93 238.42,-15.9 -3.99,-19.86 -7.95,-39.74 -11.92,-55.62 -7.95,-11.94 -11.93,-23.85 -15.9,-35.78 -95.37,-11.92 -194.7,7.95 -294.06,15.9 0,16.62 18.67,44.55 37.93,68.6zm-5920.23 8578.49c-7.77,-2.08 -15.85,-4.47 -24.24,-7.26l24.24 7.26zm-5752.56 -6342.37c-7.95,-51.66 107.29,-174.84 127.15,-222.52 11.94,-19.86 27.81,-39.74 43.71,-55.64 19.86,-3.97 43.71,-7.93 67.56,-7.93 0,-23.85 79.47,-31.8 95.37,-31.8 0,-35.76 107.29,-51.66 139.08,-67.56 23.83,-23.82 51.64,-47.67 79.48,-67.54 0,-19.88 15.87,-23.84 31.77,-23.84 0,-23.85 51.66,-59.61 67.56,-75.51 7.95,-15.88 15.9,-27.81 23.85,-39.73 43.69,-7.95 262.24,-226.5 278.14,-278.16l15.9 0c15.9,-35.76 35.76,-67.54 55.63,-99.34 39.74,0 3.98,-51.66 3.98,-63.57 -19.88,-11.94 -39.74,-19.89 -59.61,-27.81l0 -11.94c-19.86,-7.95 -35.76,-15.9 -51.66,-19.86 0,-15.9 -131.13,-83.46 -147.03,-95.37 -3.96,-79.48 -3.96,-158.95 -3.96,-238.42 23.84,-123.18 202.65,-381.46 345.7,-381.46 23.85,-15.9 47.7,-27.82 75.51,-39.75 47.67,75.51 95.37,150.99 147.01,230.47 0,115.23 -47.68,246.36 -55.63,365.58 35.76,15.9 71.53,35.76 107.29,55.63 -3.97,11.93 -7.95,27.81 -7.95,43.71 -27.81,59.61 -51.64,119.22 -75.49,178.81 -11.93,15.9 -23.85,31.79 -31.8,51.66 -55.62,0 -71.52,-67.54 -127.14,-35.76 -35.76,63.59 -59.61,154.98 -99.34,214.59 -11.93,7.95 -23.85,15.87 -35.78,27.81 -63.58,75.49 -123.19,150.99 -182.77,230.47l0 19.86c-91.41,35.76 -151,158.94 -250.36,190.74 -23.82,47.68 -135.09,83.44 -158.94,135.1 -31.78,15.9 -63.58,31.8 -91.39,47.7 -91.41,23.82 -178.81,47.67 -266.23,71.52l0 11.91c-19.88,0 -39.74,3.99 -59.61,7.95zm1108.66 -1311.31c-63.58,-31.77 -127.17,-59.61 -190.75,-87.42 -11.91,-43.71 -19.86,-87.42 -27.81,-127.15 27.81,-3.98 55.62,-43.71 91.39,-43.71 27.81,-27.81 35.76,-15.9 67.56,-23.85 31.79,43.72 55.62,75.51 75.5,127.17l0 154.96 -15.89 0zm-2495.47 2721.96c-23.83,-59.59 -47.68,-151 -55.63,-214.57 -11.91,-39.75 -23.85,-79.48 -31.8,-119.22 -15.87,0 -43.71,-91.39 -43.71,-111.25 -67.53,0 -23.82,-262.27 -15.87,-298.03 -15.9,-23.85 -27.84,-47.7 -39.75,-71.52 0,-87.43 -3.97,-186.76 79.47,-242.41 27.81,0 55.63,0 83.46,3.99 67.54,31.77 162.91,103.3 182.77,170.86l-59.59 131.13c-59.61,11.91 -135.12,51.66 -194.73,55.62 -11.91,39.75 -19.86,95.38 3.99,131.14 35.76,131.13 71.52,266.23 107.28,401.35 35.77,51.66 27.82,119.19 -15.89,162.91zm-131.14 -814.59c-7.95,-27.82 -11.91,-55.65 -15.87,-79.48 27.81,-19.88 154.96,-55.64 143.04,19.87 -43.71,19.86 -87.42,39.74 -127.17,59.61zm15.9 -1863.66c-7.95,-3.96 -11.91,-7.95 -15.9,-7.95 0,-23.84 -23.82,-75.48 -7.95,-91.38 -15.87,-31.8 -11.91,-75.51 -11.91,-111.27 -11.91,-91.39 -23.85,-178.81 -35.76,-266.23 -7.95,-95.37 -15.9,-190.74 -19.86,-282.13 -7.95,-79.47 -15.9,-158.94 -19.87,-238.42 3.32,-16.63 9.08,-59.61 31.78,-59.61 0,-39.72 47.7,-135.09 83.46,-143.04 3.96,3.96 7.95,11.91 15.87,19.86 23.85,87.42 47.7,174.84 75.51,262.27 0,162.9 3.97,325.83 7.95,488.74 -19.86,19.89 0,119.22 0,151 -39.74,63.6 -51.66,226.5 -103.32,278.16zm-1120.56 2944.5c43.71,-23.85 91.38,-47.7 139.08,-67.56l0 -15.9c43.71,-23.85 87.42,-43.71 135.1,-63.57 3.96,3.96 7.94,7.94 11.91,15.89 0,51.66 75.51,147.01 19.88,174.83l0 11.93 -11.93 0 -35.76 47.68c-11.92,0 -19.87,0 -27.82,3.98 -16.09,16.1 -10.2,11.07 -35.76,23.83 -27.81,23.85 -55.62,47.69 -83.43,75.51 -194.73,139.08 -381.49,329.8 -572.21,456.97 -19.11,-86.01 -21.1,-174.73 -27.83,-262.27 71.54,-31.77 143.06,-63.57 218.55,-95.37 7.95,-11.91 43.71,-35.76 63.57,-35.76 0,-7.95 0,-11.91 3.99,-15.9l-147.03 0c-35.76,-87.42 -115.24,-170.86 -151,-262.24l-11.91 0c-3.99,-19.89 -7.95,-35.76 -7.95,-51.66 7.95,-67.56 15.9,-131.14 27.81,-194.71 55.63,-87.42 158.95,-266.25 254.32,-313.93 15.9,-19.86 35.76,-35.76 55.62,-51.66 23.85,-75.48 119.22,-107.28 143.05,-182.79 7.95,-3.96 15.9,-7.95 27.83,-7.95 19.87,27.83 43.71,55.65 67.54,87.42 43.71,19.89 75.51,87.42 119.22,115.24 0,19.88 0,39.74 3.96,63.59 -11.91,71.53 -23.82,143.05 -31.77,218.56 -47.7,-15.9 -135.12,-99.36 -174.85,-131.14 -11.93,-3.98 -23.84,-7.95 -35.76,-7.95 -55.64,19.87 -111.27,43.72 -162.93,67.54 -123.18,71.55 -222.52,174.85 -170.86,333.79 31.78,31.8 75.49,59.61 119.2,79.47 19.89,67.56 182.79,11.94 230.47,0 15.9,-7.95 31.8,-11.91 47.7,-15.87zm21592.86 1104.66c7.95,-11.91 15.88,-23.85 27.81,-35.76 -7.95,-3.98 -11.93,-3.98 -15.9,-3.98 -11.91,7.95 -23.84,19.88 -31.79,31.79 -19.87,-15.9 -39.73,-27.81 -59.59,-39.72 -15.9,-198.69 -51.66,-401.35 -55.65,-596.06 103.32,43.71 226.51,83.44 333.79,107.29 47.7,47.67 158.95,27.81 210.61,79.47 75.51,11.91 158.94,47.7 230.47,75.51 178.83,0 353.65,-87.42 532.48,-95.37 11.91,-47.7 67.53,-107.29 75.48,-162.93 23.85,-23.83 -3.96,-226.49 -27.81,-250.33 -23.85,-139.09 -47.67,-373.54 -154.96,-480.82 -3.98,-35.77 -31.8,-79.48 -43.71,-115.24 -31.8,0 11.91,-194.71 11.91,-226.5 19.87,-111.25 39.73,-222.52 59.61,-329.81 35.77,-51.66 107.29,-83.43 139.09,-135.09 47.67,-23.85 83.43,-71.53 131.11,-95.38l0 -11.93 262.26 286.11c3.99,27.82 39.75,59.61 63.58,75.51 19.88,91.39 154.98,151 182.79,234.43 35.76,31.8 75.51,91.41 115.24,111.28 0,24.02 -2.44,20.66 19.88,31.77 -3.99,11.94 -7.95,23.85 -7.95,39.75 -19.88,3.96 -39.75,11.91 -55.65,19.86 -3.96,3.99 -3.96,7.95 -3.96,15.9 -11.91,0 -19.86,0 -27.81,3.96 0,23.08 -43.71,2.11 -43.71,31.8 -18.98,0 -27.81,-0.37 -27.81,19.86l-47.7 11.94 0 11.91c-27.81,3.97 -51.66,11.92 -75.49,19.87 -3.98,3.98 -3.98,11.93 -3.98,19.88 -75.49,0 -95.38,83.44 -67.56,139.06 -3.97,0 -7.93,3.99 -11.92,7.95l23.85 532.48c-19.86,19.86 3.97,158.95 3.97,190.72 0,99.36 -107.29,194.73 -135.1,282.13l-15.9 0c-11.91,43.71 -63.57,79.47 -63.57,131.13 -7.95,0 -11.92,0 -15.9,3.99 -19.87,39.72 -83.44,79.47 -131.14,83.44 -3.96,3.98 -3.96,11.93 -3.96,19.88l-31.8 0 0 11.91 -47.67 11.92 0 19.86c-23.85,3.99 -43.71,11.93 -63.6,19.88 0,15.9 -23.82,11.92 -35.76,15.9 0,67.54 -305.95,43.71 -361.6,79.48 -63.57,-19.89 -158.95,7.92 -226.48,7.92 -11.94,3.99 -19.89,7.95 -27.84,11.94 -63.57,-31.8 -150.99,7.95 -222.52,-3.99 0,-23.82 -119.19,-87.42 -143.04,-99.33 -35.76,-23.85 -119.22,-79.48 -135.1,-115.24zm-2559.04 -631.81c-194.71,-27.82 -417.23,-27.82 -619.88,-31.78 -7.95,7.95 -250.36,-7.95 -294.07,-15.9 -186.75,0 -421.21,7.95 -584.12,-87.42 -87.42,-15.9 -186.75,-63.57 -274.18,-83.46l0 -11.91 -35.76 0c-3.98,-7.95 -3.98,-15.9 -3.98,-19.86l-39.73 0 0 -11.94c-123.18,-39.72 -246.37,-79.47 -365.59,-119.2l0 -15.9c-43.71,-7.95 -87.42,-43.71 -107.28,-83.43 -59.61,-11.94 -87.42,-7.95 -143.05,19.86l0 11.91c-19.88,3.99 -39.74,11.94 -59.61,19.87l0 11.93c-23.85,11.91 -91.4,31.78 -91.4,67.56 -51.64,0 -111.25,51.64 -147.01,83.44l-47.7 23.85 0 11.91c-27.81,7.95 -51.66,19.86 -75.49,31.8 -3.98,3.96 -3.98,7.95 -3.98,15.87 -27.82,0 -51.66,23.85 -71.53,39.75l0 11.91c-11.91,0 -23.85,3.99 -31.77,7.95l0 11.94c-55.65,11.91 -99.36,55.62 -147.03,75.49 -3.99,-7.95 -3.99,-11.92 -3.99,-15.9 79.47,-79.48 158.94,-154.96 242.4,-230.47l0 -11.92c31.8,-27.81 242.41,-218.55 222.52,-262.26 -51.66,-15.9 -103.3,-31.8 -147.01,-59.61 -39.75,-11.91 -79.47,-19.86 -119.22,-27.81 -3.96,-7.95 -7.95,-15.9 -11.91,-19.87 -43.71,-3.98 -302.01,-127.17 -302.01,-170.88 -11.92,-3.96 -23.83,-7.92 -31.78,-7.92 0,-11.94 -23.85,-19.89 -31.8,-19.89 -19.86,-27.81 -35.76,-51.66 -51.66,-75.49 -19.86,0 -43.71,-43.71 -43.71,-59.61 -11.91,0 -67.54,-103.32 -79.47,-119.22 -35.76,7.95 -67.54,15.9 -99.34,23.85l0 15.9c-59.61,0 -135.09,35.76 -194.7,47.68l-0.91 0.86c-33.31,8.64 -65.15,21.17 -95.04,37.09 -13.24,2.75 -25.53,4.7 -35.19,5.76l0 11.93c-59.61,7.95 -139.08,51.66 -194.7,51.66l-405.32 119.2c-55.62,55.63 -210.6,23.85 -266.23,79.47 -47.69,0 -79.47,23.85 -123.18,23.85 -28.65,10.92 -58.24,18.54 -88.13,25.31 -49,2.22 -106.66,12.14 -172.9,46.24 -62.99,0.53 -137.2,20.02 -195.94,31.77 -3.99,3.97 -3.99,7.93 -3.99,15.88 -150.99,0 -313.9,71.52 -464.92,79.47 -47.67,23.85 -111.25,11.94 -162.91,35.76 -170.86,7.95 -373.54,35.77 -536.44,79.48 -230.47,7.95 -472.88,39.74 -715.26,63.59 -266.25,-3.98 -532.48,-3.98 -794.75,-3.98 -27.81,-7.95 -55.62,-11.92 -79.47,-15.9 -47.67,0 -198.67,3.98 -234.43,-19.86 -35.76,3.98 -107.28,-3.97 -139.08,-19.87 -75.51,-7.95 -151,-15.9 -222.52,-19.86 -63.57,-11.94 -123.18,-23.85 -182.79,-31.8 -147.04,-31.8 -294.05,-63.57 -437.11,-95.37 -39.73,-11.91 -79.48,-23.83 -115.24,-35.76 -127.15,-35.76 -254.32,-67.56 -377.5,-99.34 -131.13,-43.71 -262.24,-87.42 -389.41,-127.17 -99.34,-47.67 -230.47,-115.23 -345.7,-131.11 -55.63,-27.83 -127.17,-63.59 -190.75,-79.47 -3.96,-7.95 -7.95,-11.93 -7.95,-15.9l-27.81 0 0 -15.9c-31.77,0 -158.94,-87.42 -166.89,-103.32 -11.92,-3.96 -23.85,-7.95 -31.78,-7.95l0 -11.91c-63.6,-31.8 -131.13,-95.37 -190.74,-123.18 0,-23.85 -43.71,-35.77 -59.61,-43.71l0 -11.92c-33.22,-14.75 -67.47,-30.82 -99.36,-48.29 -0.91,-11.58 -27.99,-19.33 -39.72,-23.25l0 -11.92c-35.77,-19.86 -107.29,-83.43 -151,-83.43 -35.76,-27.84 -67.56,-55.65 -99.34,-79.48 -3.98,-11.93 -7.95,-19.88 -7.95,-27.83 -35.76,-35.76 -67.55,-83.44 -95.37,-135.1l-27.81 -27.81c-39.75,19.86 -87.42,39.73 -103.32,75.51 -95.37,47.68 -174.84,154.96 -218.55,242.38l-11.92 0c-27.81,31.8 -55.62,67.56 -83.43,103.32 -39.75,19.87 -71.55,87.43 -91.41,127.15 -23.83,23.85 -43.71,47.7 -63.58,71.52l-4.89 235.45c-10.1,60.39 -10.14,117.21 -2.43,173.65l-0.62 127.35c-71.53,59.61 -143.05,119.22 -214.57,182.79 0,19.86 -131.14,111.27 -158.95,139.08l-333.79 -190.74 0 -11.91c-63.57,-23.85 -123.18,-75.51 -178.83,-111.27 -11.91,-55.63 -27.81,-151 -59.59,-198.67 -7.95,-63.6 -39.74,-127.17 -51.66,-186.78 -7.95,-186.76 -47.69,-413.26 -23.85,-600.02 59.61,-95.37 119.22,-186.76 182.8,-278.14 19.86,-11.94 79.47,-119.22 91.38,-143.07 11.94,0 111.27,-151 115.24,-170.86 23.85,-39.75 51.66,-75.51 79.47,-111.27 15.9,-39.73 19.89,-51.66 51.66,-67.54 0,43.71 -27.81,83.44 -31.77,127.15 -31.8,0 -59.61,154.98 -63.6,186.76 -27.81,83.46 -67.54,166.89 -79.47,250.35 -19.87,43.71 -47.68,83.44 -47.68,139.08 -31.8,75.49 -75.51,154.96 -75.51,238.42 -39.72,79.47 47.7,238.42 71.53,305.95 3.98,0 7.95,0 15.9,3.99 23.84,95.37 19.88,139.08 107.28,158.95l0 15.89c31.8,11.92 63.6,23.83 95.37,39.73 43.71,43.71 111.27,75.51 170.88,87.42 11.92,-47.67 55.63,-282.13 95.37,-321.85 0,-123.19 139.06,-309.96 210.59,-401.35 0,-11.91 3.98,-19.86 7.95,-27.81l11.93 0c63.58,-139.09 186.76,-270.22 246.37,-409.3 23.83,-35.76 47.67,-67.54 71.52,-99.34 15.9,-35.76 35.76,-67.56 55.63,-99.33l301.99 0c59.61,71.52 95.37,186.76 154.98,266.23l71.52 143.04c55.65,55.65 154.98,91.41 222.52,131.14 0,3.98 3.99,7.95 7.95,15.9 27.83,0 198.69,99.33 210.61,123.18 39.74,19.86 83.45,39.73 127.17,59.61l0 11.91c51.66,27.82 107.28,55.63 162.9,83.46 0,19.86 99.36,67.54 127.17,95.35l47.68 23.85 0 11.91c67.56,0 186.76,67.56 250.35,87.42l0 11.94c75.49,7.95 143.05,59.61 218.53,71.52 43.72,15.9 230.49,115.24 302.02,115.24l154.96 59.61c103.32,51.66 302.01,75.48 421.21,87.42 135.09,27.81 274.18,55.62 413.26,83.44 111.27,11.93 226.5,27.81 341.74,43.71l882.15 23.85c258.28,-19.87 532.48,-39.75 790.76,-39.75 178.81,-27.81 357.64,-55.63 536.44,-79.47 40.59,-7.38 82.07,-13.91 123.98,-19.98 76.82,-0.26 155.96,-1.79 307.2,-55.09l327.79 -71.94c91.38,-39.75 218.55,-59.61 317.89,-75.51 4.34,-1.97 9.36,-3.83 14.88,-5.58l93.22 -16.54c127.7,-16.08 246.39,-49.41 353.06,-97.7l409.07 -98.74c35.76,-27.81 103.32,-19.86 139.08,-55.62l19.87 0c0,-47.7 27.81,-51.66 59.61,-59.61 0,-39.73 59.61,-35.76 71.52,-75.49l19.86 0c0,-35.78 103.32,-87.42 127.17,-99.36l0 -15.9c23.83,0 91.39,-79.47 131.14,-91.38 27.81,-27.81 63.57,-75.51 107.28,-75.51l0 -15.88c27.81,-3.98 59.61,-43.71 79.47,-63.59 51.66,0 127.15,-107.29 190.72,-139.06 0,79.47 3.99,158.94 7.95,242.38 39.75,59.61 23.85,218.55 95.37,254.31 0,43.72 91.41,162.94 115.24,198.7 79.47,31.77 158.94,63.57 242.4,99.33 0,15.9 43.71,19.86 59.61,19.86 0,15.9 135.1,63.58 158.95,71.53l95.35 0 0 -11.92c55.64,0 151.01,-15.89 206.64,-35.76 -3.99,-7.95 -3.99,-15.9 -3.99,-23.85 15.9,0 43.71,-31.77 51.66,-47.67 35.76,-11.94 63.6,-35.76 79.48,-67.56 35.76,-15.9 47.69,-55.62 83.45,-71.52 0,-39.75 59.61,-59.61 71.53,-87.42 87.42,-63.58 154.98,-182.8 250.33,-230.47 31.8,-67.56 131.13,-147.03 190.74,-190.75 135.1,-47.67 270.22,-127.14 401.35,-158.94 71.52,-71.52 246.37,-115.23 337.75,-158.95 39.75,-15.89 79.47,-31.79 119.22,-43.71 0,-19.86 39.73,-15.9 47.68,-15.9l0 -15.87c83.43,0 170.86,-103.32 262.26,-103.32 0,-31.8 55.63,-19.87 79.48,-19.87l0 11.92c87.42,15.9 182.79,75.48 266.23,107.28 0,11.91 43.71,19.86 55.62,19.86 47.7,19.89 99.36,39.75 151,63.6 43.71,87.4 87.42,178.81 135.11,270.19 35.77,35.76 75.49,131.14 91.39,186.76 -51.66,51.66 -47.68,158.95 -91.39,214.59 -15.9,47.68 -31.79,95.37 -43.71,143.05 -31.8,63.57 -67.56,135.09 -79.47,206.64 -23.85,39.73 -55.62,51.64 -91.41,71.52 -3.96,3.97 -3.96,7.95 -3.96,15.88 -16.72,0 -15.9,1.31 -15.9,15.9 -35.76,0 -63.57,35.76 -95.37,43.71l0 15.9c-23.83,7.95 -47.68,19.86 -67.54,31.8l0 15.87c-55.65,27.84 -123.18,87.43 -178.83,103.32l0 15.9 -59.59 23.85c0,19.86 -131.13,87.42 -158.94,115.24 -79.47,19.86 -186.78,-3.99 -258.3,31.77l-341.74 11.94c-27.81,-7.95 -67.54,-15.9 -87.42,3.96 -75.49,0 -198.68,-15.9 -262.25,23.85 0,3.96 0,11.91 3.96,19.86l27.82 0c0,3.99 3.98,11.94 7.95,19.86 19.86,0 39.74,0 63.57,3.99l0 15.9c190.74,19.86 405.31,71.52 596.06,107.28l604 7.95c107.28,-3.98 218.56,-3.98 329.8,-3.98 139.09,-51.66 282.13,-131.14 425.2,-166.9 23.83,-35.76 95.35,-55.62 139.06,-59.58 0,-7.95 3.99,-15.9 7.95,-19.89 23.85,-7.95 47.7,-15.88 71.52,-19.86l23.85 -23.85c31.8,-127.15 71.52,-333.79 71.52,-472.85 15.9,-107.31 31.8,-214.59 47.7,-317.89 3.97,-11.94 7.93,-23.85 15.88,-35.78 47.7,-43.69 95.37,-83.44 147.03,-123.17l19.86 0c0,-7.95 3.99,-15.89 7.95,-19.88l15.9 0c0,-39.73 71.52,-67.54 95.37,-79.47 0,-27.82 39.73,-43.71 59.61,-47.68l0 -11.93c103.3,-31.78 206.62,-59.59 309.94,-87.4 75.49,-3.99 154.96,-7.95 234.44,-7.95 0,-7.95 35.78,-166.9 19.88,-182.8 27.81,-59.61 39.73,-186.75 35.76,-254.31 7.95,-79.47 19.86,-154.98 31.78,-230.47l23.85 -317.89c3.98,-27.81 7.95,-51.66 15.89,-75.51 31.8,0 63.58,119.22 99.34,147.03 0,7.95 0,15.9 3.99,27.81 71.52,127.15 143.04,254.32 214.57,385.45 3.96,0 11.91,0 19.86,3.97 0,63.57 67.56,147.03 95.37,202.65 3.99,23.85 11.91,47.7 19.86,75.51 0,91.39 -23.82,250.33 63.6,294.04 -3.99,3.99 -3.99,7.95 -3.99,15.9 43.71,47.68 107.29,147.04 166.9,174.85 7.95,19.86 19.86,39.72 31.79,59.61l11.92 0c15.9,31.77 67.56,63.57 75.51,103.3 23.82,23.84 51.66,47.69 79.47,75.51l0 19.86c15.88,7.95 79.47,87.42 79.47,103.32 35.76,23.85 99.34,91.38 111.25,131.13l-23.83 83.44c-39.74,0 -55.64,59.61 -63.59,87.42 -23.83,0 -31.78,39.75 -39.73,59.61 -7.95,0 -11.91,0 -15.9,3.96 -35.76,55.65 -107.28,198.7 -162.91,234.46 -3.98,7.95 -3.98,19.86 -3.98,31.8 -91.39,0 -103.32,210.6 -174.85,246.36 -7.94,15.88 -11.91,31.78 -15.89,51.66l-11.92 0c0,67.54 -158.94,43.71 -198.67,43.71 -31.8,-7.95 -131.13,-39.74 -151.02,-19.88 -63.57,-31.78 -150.99,-19.86 -222.51,-27.81 -230.47,-31.8 -456.98,-59.61 -683.48,-87.42l-91.39 0c-23.85,-23.85 -83.43,-19.87 -115.23,-15.9 -103.32,55.64 -242.4,143.06 -353.65,170.88l-59.61 35.76c-107.29,43.71 -230.47,123.18 -341.74,150.99l0 15.9c-87.42,0 -174.85,0 -258.28,3.97zm-11940.84 -2495.45c-35.76,-35.76 -71.54,-67.56 -107.3,-99.34l0 -11.93 -11.92 0 0 -15.9c-11.91,-3.96 -19.86,-7.95 -27.81,-11.91 -59.61,-71.53 -143.05,-143.05 -214.57,-206.62 0,-63.6 63.58,-95.37 103.3,-131.14 19.89,-31.79 47.7,-63.59 79.47,-79.47l0 -15.9c47.7,-23.85 147.04,-162.93 174.85,-194.7 7.95,-3.99 15.9,-7.95 23.85,-7.95 27.81,31.77 55.62,63.57 87.42,99.33 27.81,0 79.47,67.56 87.42,87.42 47.67,0 158.94,210.61 222.52,178.81 0,-7.95 0,-11.91 3.96,-15.9 103.32,-71.52 206.64,-186.75 286.12,-282.13 35.76,0 39.72,-79.47 83.43,-59.58 15.9,35.76 55.65,79.47 95.37,99.33 0,31.8 139.09,151 178.83,178.81 31.78,31.8 63.58,63.57 95.35,99.36 0,7.92 0,15.87 3.99,23.82 -59.61,43.71 -131.13,103.32 -174.84,162.93 -7.95,3.97 -15.9,7.95 -19.87,11.92l0 11.91c-35.76,15.9 -75.51,51.66 -91.41,83.46 -43.71,0 -67.53,79.47 -103.29,79.47 -35.77,-35.76 -91.41,-103.32 -135.12,-123.18 -51.66,-63.58 -135.1,-119.22 -178.81,-186.76 -27.81,-15.9 -51.66,-31.8 -75.51,-43.71l0 11.91c-11.91,3.99 -23.83,7.95 -31.78,15.9l0 11.91c-83.45,75.51 -190.74,154.99 -250.35,254.32 -23.82,0 -39.72,27.81 -47.67,47.7 -19.87,7.95 -39.75,15.87 -55.63,27.81zm-4796.21 3075.6c-11.93,-27.81 -35.76,-27.81 -63.57,-31.77 -59.61,-3.99 -115.26,-7.95 -170.88,-7.95 -51.66,-11.94 -99.34,-23.85 -147.03,-35.76 -107.29,-7.95 -210.59,-15.9 -305.96,-55.65 -99.36,-3.96 -194.7,-19.86 -282.13,-55.62 -43.71,-3.99 -87.42,-3.99 -127.17,-3.99 -51.66,-15.88 -103.32,-27.81 -150.99,-39.73 -83.44,-59.61 -143.05,-158.94 -218.56,-234.45l-11.91 0c-19.86,-59.59 -87.42,-95.35 -115.23,-154.96 -75.51,-35.76 -79.48,-174.84 -115.24,-246.37l0 -35.76c-35.76,-95.37 -67.56,-190.74 -99.36,-286.11 -3.96,-27.81 -11.91,-91.39 -31.77,-111.25 -27.81,-115.26 -63.57,-230.49 -75.51,-345.72 -15.9,-15.9 -11.91,-43.72 -7.95,-59.59 -55.62,0 -39.72,-373.54 -91.39,-425.2 -19.86,-87.42 -35.76,-174.84 -51.66,-262.27 -47.67,0 -71.52,11.94 -111.27,23.85 0,11.92 -282.12,135.1 -349.66,174.85 -39.75,11.91 -79.47,27.81 -119.22,43.71l0 11.91c-23.85,0 -31.78,7.95 -43.71,19.89 -63.58,23.82 -123.19,47.67 -182.8,75.48l0 -186.75c67.56,-19.87 151.02,-75.51 218.56,-83.46 0,-31.78 83.46,-43.71 107.28,-47.68 0,-43.71 298.03,-131.13 365.59,-182.79 43.71,-7.95 83.44,-35.76 119.22,-63.57 0,-83.44 15.88,-214.57 0,-286.1 0,-7.95 3.96,-15.9 7.93,-23.85 -7.93,-23.84 -11.92,-47.69 -15.88,-71.52 -91.41,11.91 -170.88,83.44 -258.3,103.3 -71.52,31.8 -143.05,63.6 -210.61,99.36l0 15.9c-15.87,0 -27.81,3.96 -39.72,7.92 0,11.94 -31.8,11.94 -39.75,11.94 -15.88,23.85 -278.14,150.99 -305.95,150.99l0 11.92c-27.84,0 -47.7,19.88 -71.55,7.95 0,-59.61 0,-115.24 3.99,-170.86 43.71,-19.86 107.28,-59.61 158.94,-59.61l0 -15.9 27.81 0 0 -11.91c59.61,-23.85 123.19,-47.7 186.76,-71.53 19.88,-43.71 182.79,-103.32 222.54,-107.28l0 -11.94c31.78,0 91.39,-39.72 115.24,-55.62 67.53,-35.76 139.08,-67.56 210.6,-99.34 3.96,-11.93 7.95,-23.84 15.88,-31.79l0 -933.81c-23.83,-55.63 -47.68,-111.27 -67.54,-166.9 -27.81,0 -75.51,-158.94 -75.51,-202.65 67.56,-47.68 135.12,-170.86 210.61,-198.69 39.74,-47.68 83.46,-95.35 127.17,-139.06 27.81,91.38 15.87,210.6 27.81,301.99l71.52 1196.07c83.44,0 194.71,-71.52 274.18,-107.28 127.15,-39.75 258.28,-139.09 389.41,-166.9 0,-23.85 119.22,-71.54 151,-71.54l0 -15.88c87.42,-39.75 178.83,-79.47 270.22,-119.22 -15.9,-95.37 -31.8,-190.74 -43.72,-282.13 19.87,-43.71 47.7,-75.49 79.48,-107.28 15.9,-35.77 31.79,-91.39 67.56,-107.29 0,-39.75 59.61,-103.32 79.47,-131.13l39.72 0c0,59.61 3.99,262.26 27.82,286.09 0,63.6 0,131.13 3.98,198.69 39.73,-11.91 83.44,-19.86 127.15,-27.81l0 -11.93c91.41,-43.72 182.79,-83.44 278.16,-123.19 19.87,-7.95 23.85,-15.87 51.66,-15.87l0 -15.9c67.56,-11.94 147.04,-63.58 218.56,-87.43 47.67,-27.81 95.37,-51.66 143.05,-75.5 19.86,43.71 35.76,182.79 -31.8,190.74l0 11.91c-158.95,67.56 -317.89,158.95 -480.8,222.54 -12.89,4.28 -75.51,28.24 -75.51,43.71 -67.56,27.82 -135.1,59.59 -198.67,91.39 -3.99,131.13 -3.99,266.23 -3.99,401.33 19.87,-3.97 43.72,-7.93 67.56,-7.93 75.49,-39.75 154.96,-75.51 234.44,-111.27 27.83,-11.91 55.64,-19.86 87.42,-27.81l0 -11.94c83.46,-39.72 178.83,-87.4 266.25,-107.28 0,-23.83 31.77,-27.82 51.64,-35.77 11.93,11.94 27.83,166.9 27.83,174.85 -47.7,39.75 -158.94,91.38 -218.55,103.32 -99.36,43.71 -198.7,87.42 -298.03,135.1 -15.9,3.98 -31.8,11.91 -47.68,19.86l-143.06 71.54 0 147.01c3.98,59.61 11.93,119.22 19.88,178.83 11.91,401.33 23.83,802.68 39.73,1204.01 19.86,27.81 67.56,31.79 83.45,67.55 39.73,0 115.24,63.58 158.95,79.48 55.62,31.8 158.94,119.22 226.48,119.22l0 11.91c31.8,11.91 67.56,23.85 103.32,35.76 51.66,19.86 174.85,51.66 202.66,111.27 150.99,19.87 337.75,43.71 488.77,19.87 23.83,-23.85 43.71,-39.75 71.52,-47.7 35.76,-23.83 91.39,-91.39 139.06,-91.39 0,-43.71 135.12,-111.27 174.85,-143.04l0 -19.87 -393.38 23.83c-11.94,-7.95 -23.85,-15.9 -31.8,-19.86 0,-27.81 -27.81,-63.58 -47.67,-79.48 -7.95,-15.89 -15.9,-31.79 -19.89,-47.67 -7.95,-3.99 -11.91,-3.99 -15.87,-3.99 0,-43.71 -75.51,-91.38 -75.51,-135.09l-11.92 0c0,-15.9 -27.83,-35.76 -27.83,-55.65 -35.76,-35.76 -67.54,-99.33 -99.34,-143.04 0,-55.63 27.82,-123.19 35.77,-174.85l11.93 -11.91c0,-115.24 75.49,-234.46 162.91,-301.99 3.99,-15.9 7.95,-27.84 15.9,-39.75l23.85 0c11.91,-47.68 162.91,-139.08 202.65,-170.86l47.68 -23.85c0,-55.62 131.13,-95.37 154.98,-143.04 87.42,-47.7 158.95,-143.05 250.33,-186.76 15.9,-15.9 15.9,-31.8 47.7,-31.8l0 -15.9c7.92,-7.95 15.87,-11.91 23.82,-15.9 43.71,15.9 75.51,75.51 115.24,95.38 0,19.86 178.83,170.88 198.69,186.75 11.91,11.94 23.85,27.84 39.73,43.71 -19.87,111.27 -35.77,226.51 -51.64,341.74 -7.95,0 -11.94,3.99 -15.9,7.95 -47.7,-15.9 -75.51,-63.57 -123.19,-71.52 0,-23.85 -210.6,-135.1 -238.41,-147.03 -103.32,11.93 -206.64,55.64 -305.98,95.37 -3.99,3.98 -7.95,7.95 -7.95,11.91 -75.51,15.9 -162.93,71.55 -206.62,135.12 -27.83,0 -107.31,87.42 -119.22,111.25 0,67.56 -15.9,190.74 11.91,250.35 262.27,23.85 540.44,83.44 802.7,83.44 27.81,-27.81 127.15,-35.76 166.87,-43.71 47.7,-31.78 95.38,-59.59 143.07,-87.43 0,-23.82 67.54,-67.53 87.42,-67.53 0,-35.76 79.48,-71.53 103.3,-83.46 39.75,79.47 79.48,158.94 119.22,242.4 -3.98,3.97 -7.95,11.92 -7.95,19.86 -19.86,0 -39.72,31.8 -59.61,39.75 -3.96,3.97 -3.96,11.92 -3.96,19.86l-15.9 0c-7.95,7.95 -15.9,19.87 -23.85,31.78 -7.95,0 -131.13,95.37 -135.09,111.27 -87.43,47.7 -147.04,127.17 -234.46,170.88 0,27.81 -250.33,198.67 -258.28,202.66 -27.81,27.81 -75.51,51.64 -91.38,83.43l-11.94 0 0 15.9c-47.67,31.78 -95.37,63.58 -139.08,99.34l0 11.91c-22.23,0 -19.86,1.02 -19.86,19.89 -55.63,7.95 -55.63,59.58 -99.34,71.52l0 15.9c-19.86,7.95 -39.75,15.87 -55.62,23.82 -35.77,75.51 -158.95,107.31 -198.7,186.78 -31.79,15.88 -87.42,51.64 -103.32,83.44 -63.57,0 -198.67,3.96 -254.31,31.8 -147.01,-7.95 -290.08,-59.61 -437.09,-87.42l0 -15.9c-23.85,-11.92 -43.71,-19.87 -63.58,-27.82 0,-23.84 -39.74,-35.76 -59.61,-35.76l0 -15.9 -15.89 0c-11.92,-27.81 -127.15,-103.32 -154.99,-103.32 0,-47.67 -127.14,-107.28 -174.84,-119.19 -11.91,150.99 -23.83,301.99 -31.78,456.97 262.27,27.81 528.5,67.54 790.77,79.47 0,31.78 3.96,71.52 -15.9,91.39 -31.8,170.85 -83.46,357.63 -131.14,524.51 -99.33,0 -214.57,11.93 -309.94,-11.92zm-1712.65 -2749.76c-3.97,-7.95 -7.95,-15.9 -7.95,-23.85l-11.92 0c-11.91,-127.15 -19.86,-254.32 -27.81,-377.5l71.52 -35.76c202.66,-107.29 437.11,-206.62 651.68,-286.09 0,-23.85 158.95,-71.53 178.81,-79.48 0,-15.89 23.85,-11.93 31.8,-11.93 31.8,-31.78 103.32,-63.57 147.03,-63.57l0 -11.92 39.73 0c7.95,7.95 15.9,15.9 23.85,27.81 0,111.25 0,226.51 3.96,341.74l-154.96 71.53c-186.78,115.23 -425.2,202.65 -623.87,298.02 -19.86,7.95 -35.76,15.88 -51.66,27.82 -95.37,15.89 -174.84,123.18 -270.21,123.18zm1064.94 2026.56c-55.63,-15.9 -107.29,-27.81 -158.95,-39.75 -55.62,-11.91 -111.25,-23.82 -162.91,-31.77 -95.37,-79.48 -194.7,-190.75 -278.16,-282.13 -95.37,-47.7 -115.24,-147.03 -143.05,-230.47l-59.61 -143.07c-31.8,-95.35 -63.57,-190.72 -95.37,-282.13l-11.91 0c-27.81,-131.13 -95.37,-258.28 -127.17,-389.41 -11.91,-131.13 -63.58,-313.93 -39.73,-445.04 158.95,-75.51 317.89,-151.02 476.84,-222.54 47.67,-7.95 95.37,-59.59 143.04,-59.59 47.7,-47.69 151,-83.45 218.56,-103.32 67.56,-39.74 190.74,-119.22 266.23,-119.22 0,758.97 3.99,1521.92 7.95,2284.87 -3.96,19.86 -7.95,39.72 -7.95,63.57l-27.81 0zm2900.78 -238.42c-67.56,-31.8 -119.22,-190.74 -143.07,-258.28l0 -393.4c63.6,0 59.61,174.85 115.26,202.66 11.91,35.76 27.81,71.52 43.71,111.27 3.96,3.96 7.93,11.91 15.87,19.86 79.48,0 147.04,-79.47 226.51,-79.47 31.8,-19.86 79.47,-59.61 123.18,-59.61 71.53,-71.52 111.27,-262.27 131.14,-365.59 19.86,0 15.89,-150.99 15.89,-170.86 -59.61,-198.67 -63.57,-421.21 -115.23,-619.88 0,-3.98 3.96,-7.95 7.95,-11.93 -19.88,-87.42 -47.7,-178.81 -51.66,-270.2l-35.76 -154.98c-27.84,-230.47 -95.37,-464.92 -123.19,-695.39 15.88,-23.85 31.78,-43.71 59.59,-51.66 51.66,-55.62 107.31,-111.25 162.93,-166.89 43.71,-15.9 107.29,-99.34 143.05,-131.14 11.93,0 79.47,-75.48 83.46,-83.43 7.95,-3.99 19.86,-7.95 31.77,-7.95 3.99,-11.91 7.95,-23.85 15.9,-31.8 218.56,3.99 453.01,-3.96 663.6,63.6 0,3.96 3.98,7.92 7.94,15.87 47.7,0 103.33,27.84 151,43.71 0,3.99 3.99,7.95 7.95,15.9 75.51,0 170.88,47.7 250.35,67.56 79.48,139.09 103.32,317.89 190.72,449.03 0,55.62 47.7,131.13 63.6,182.79 23.83,63.57 47.67,131.11 75.49,198.67 -43.71,71.52 -59.59,230.47 -59.59,317.89 -27.84,115.23 -51.66,230.47 -75.51,345.7 -3.99,27.84 -7.95,59.61 -7.95,91.41 -27.81,39.73 -55.62,83.44 -83.44,127.15 -51.66,55.64 -123.18,147.03 -154.98,210.6 -27.81,7.95 -75.51,75.51 -75.51,107.29 -35.76,0 -83.43,87.42 -87.42,119.22 -31.77,35.76 -63.57,71.52 -91.38,107.28 0,-51.66 31.79,-95.37 43.71,-147.03l15.9 0c0,-31.78 19.86,-103.3 43.71,-119.2 27.81,-123.18 139.08,-242.4 139.08,-365.58 27.81,0 83.44,-147.01 59.59,-170.86 -11.92,-158.95 -23.83,-313.93 -31.78,-468.89 -15.9,-27.81 -31.8,-51.66 -47.7,-75.51l-11.91 0c-19.86,-47.67 -59.61,-83.43 -87.42,-123.18l-11.91 0c-39.75,-55.63 -75.51,-107.29 -111.27,-158.95l-15.9 0c-47.68,-79.47 -119.2,-166.89 -182.77,-238.41 -170.89,0 -365.59,-15.9 -536.45,-31.8 -7.95,7.95 -15.9,19.88 -19.88,31.8 11.93,131.13 23.84,262.26 39.74,393.4 27.81,162.9 39.73,349.66 43.71,512.59 19.87,19.86 7.95,445.04 7.95,504.65l11.92 524.53c-19.87,43.71 -79.48,202.66 -115.24,218.56 -47.67,127.14 -115.23,270.19 -190.74,381.46 -123.18,15.9 -246.37,31.8 -365.57,51.66l0 15.9c-55.64,3.96 -107.28,11.91 -158.94,19.86zm12354.1 -655.66l-19.87 0 0 -51.64c59.61,-51.66 119.2,-103.32 182.77,-151.02 59.61,-79.47 154.99,-174.82 238.44,-214.57 11.92,-19.86 27.82,-39.72 43.72,-55.62l23.82 0c15.9,-43.71 23.85,-31.8 51.66,-43.71 47.7,-99.36 170.88,-123.19 266.23,-131.14 178.83,-39.74 361.6,-79.47 544.4,-115.23 35.76,-7.95 71.52,-15.9 111.27,-19.86 87.42,43.69 178.81,87.4 270.21,131.11 15.88,7.95 35.76,19.88 55.63,31.8 11.91,0 23.85,0 35.76,3.96 0,11.93 71.52,39.75 83.43,43.71 0,15.9 3.99,35.78 7.95,55.65l11.94 0c0,39.72 31.78,67.53 31.78,103.3 35.76,75.5 59.61,127.17 75.5,206.64 -19.86,23.85 -39.74,51.66 -55.62,79.47 -127.17,15.9 -254.32,31.8 -377.5,51.66 -190.74,-3.99 -381.49,-3.99 -568.24,-3.99 -51.66,0 -278.17,-3.96 -313.93,31.8 -238.42,7.95 -460.94,27.81 -699.35,47.68zm4553.8 182.79c-55.62,-3.96 -107.28,-3.96 -158.94,-3.96l0 -11.94c-329.81,-7.95 -667.58,-23.82 -993.42,-51.64 -35.76,-75.51 -162.91,-178.83 -162.91,-258.3 15.9,-23.85 31.78,-43.71 47.68,-63.57 0,-75.51 79.47,-115.24 99.35,-170.86 39.73,-7.95 79.47,-15.9 123.19,-19.89 0,-15.89 51.63,-23.82 63.57,-23.82 39.72,15.88 59.61,75.49 79.47,111.25 27.81,11.93 19.86,27.81 27.81,51.66 31.8,0 55.63,87.42 59.61,111.27 23.83,0 35.77,99.33 87.43,99.33 35.76,-131.13 71.52,-262.26 111.24,-393.4 7.95,-15.87 15.9,-27.81 27.82,-39.72 75.51,-3.99 174.84,-23.85 246.36,11.91 63.6,79.47 154.99,170.88 198.7,262.27 27.81,11.91 43.71,43.71 59.61,67.56l11.91 0c0,7.95 3.99,19.86 7.95,31.77l19.86 0 0 11.94 11.94 0c0,35.76 67.53,91.38 91.38,115.23 31.8,55.63 79.47,83.44 111.27,139.06 -3.98,3.99 -3.98,11.94 -3.98,19.89 -55.63,0 -111.25,0 -166.9,3.96zm-4474.33 -1370.92c-23.85,-31.77 -59.61,-51.64 -67.56,-79.47 -19.86,0 -43.71,-31.78 -55.63,-47.67l-11.91 0c-15.9,-19.87 -27.81,-39.73 -39.75,-55.63 -91.38,-19.88 -150.99,-178.83 -242.38,-206.64 -3.98,-15.9 -7.95,-31.78 -11.93,-43.71 39.75,-59.59 119.22,-127.15 170.88,-178.81 47.67,-23.85 95.37,-95.37 131.13,-135.1l19.86 0 0 -11.93c51.66,-35.76 99.34,-139.08 166.9,-139.08 3.96,23.84 27.81,43.71 47.67,55.64 31.8,67.54 123.19,91.39 151,162.91 23.85,0 218.55,198.69 218.55,238.42 -27.81,35.76 -99.33,111.27 -139.08,131.13 0,23.85 -75.49,83.46 -99.33,91.41l0 27.81c-7.95,0 -15.9,0 -23.85,3.97 -47.68,43.71 -131.14,107.28 -154.96,158.94 -19.86,7.95 -39.75,15.9 -59.61,27.81zm5590.93 95.37c-3.96,-11.91 -7.95,-23.82 -7.95,-35.76 -35.76,0 -131.13,-103.3 -154.95,-135.09 -23.85,-23.85 -47.7,-47.7 -71.55,-67.56l-23.83 0c-3.98,-11.92 -7.95,-19.87 -11.93,-27.82 -15.88,0 -91.39,-79.47 -95.35,-87.42 -23.85,-23.85 -47.7,-43.71 -71.55,-63.57 0,-47.68 127.17,-186.76 170.88,-218.56 19.87,-43.71 63.58,-67.56 87.43,-111.27 39.72,-51.63 83.43,-103.3 127.14,-154.96 59.61,0 123.19,115.24 186.76,131.14 0,3.96 143.07,147.01 178.83,147.01 15.9,47.69 131.13,67.56 111.25,131.13 -63.57,83.46 -143.05,162.93 -202.66,250.35 -35.76,15.9 -31.77,39.73 -43.71,67.54 -39.72,0 -39.72,27.83 -51.64,55.65 -20.5,0 -15.9,5.4 -15.9,23.82l-11.93 0c-19.86,23.85 -39.73,51.66 -55.62,79.5 -15.9,3.96 -31.8,7.92 -43.72,15.87zm-3786.89 -1422.55c11.91,-7.95 27.81,-15.9 43.71,-23.85 39.73,11.91 254.32,-75.51 298.03,-87.42l95.37 -35.76c0,23.84 3.96,47.67 7.93,71.52 3.98,27.81 7.95,59.61 11.93,91.41 -55.62,31.77 -115.23,63.57 -174.84,75.48 -158.95,79.48 -333.79,166.9 -492.73,230.47 -27.82,27.81 -87.43,39.75 -123.19,55.65 -79.47,39.72 -154.98,79.47 -230.47,123.18l-43.71 0 0 11.91c-31.8,0 -67.56,31.8 -99.33,39.73 -7.95,-11.91 -11.94,-19.86 -15.9,-27.81 0,-95.37 3.96,-190.72 7.95,-282.13 23.82,-3.96 59.59,-11.91 75.48,-27.81 111.28,-15.9 198.7,-79.48 305.98,-91.39l0 -11.93c67.56,-23.83 135.1,-43.72 206.62,-63.58 0,-19.86 111.27,-47.67 127.17,-47.67zm3123.3 -898.05c190.72,-31.8 385.43,-135.12 580.16,-166.89 131.13,-51.66 278.14,-87.43 409.27,-135.12 19.87,-3.97 39.75,-7.93 63.58,-7.93l0 -11.93c19.88,0 43.71,-3.97 55.64,-15.9 63.58,-19.87 131.14,-39.73 198.67,-59.59 15.9,-3.99 35.77,-3.99 55.65,-3.99l0 -15.9c67.54,-19.86 135.1,-39.72 206.62,-55.62 3.96,23.85 11.91,47.67 19.86,75.51 3.99,0 7.95,3.96 15.9,7.93 0,59.61 35.76,158.96 19.86,206.64l-35.76 59.61 -23.82 0c-27.84,27.81 -55.65,59.61 -91.41,79.47l0 19.86c-7.95,0 -15.9,0 -23.85,3.97l0 15.9c-47.67,0 -111.25,87.42 -135.1,123.18 -71.52,35.76 -119.19,107.28 -186.75,147.03l0 19.86c-22.21,0 -19.87,1 -19.87,19.87l-15.9 0c-7.94,7.95 -15.89,19.88 -19.86,31.79 -27.83,19.87 -55.64,39.75 -79.47,59.61 -3.99,31.78 -7.95,63.58 -7.95,95.38 0,79.47 55.62,222.51 127.15,258.28 59.61,-19.87 119.22,-87.43 170.86,-87.43l0 -11.91c7.95,-3.99 15.89,-7.95 23.84,-7.95 3.99,-43.71 7.95,-143.05 39.75,-174.84 51.66,11.91 103.3,27.81 154.96,43.71 0,15.9 0,31.8 3.99,51.66l-214.59 405.31c-15.88,27.81 -31.78,55.62 -43.72,83.44 -103.29,-7.95 -222.51,-51.66 -317.89,-83.44 -11.91,-23.85 -27.81,-83.46 -51.66,-95.37 -31.77,-67.56 -63.57,-135.1 -95.35,-198.69 0,-79.48 55.63,-166.9 83.44,-238.42 3.99,-23.83 7.95,-47.68 15.9,-71.52l11.91 0c0,-43.72 55.65,-95.38 83.46,-131.14 67.54,-23.82 91.39,-135.09 158.95,-166.89 0,-11.91 0,-19.86 3.96,-27.81l15.9 0c7.95,-15.9 15.9,-31.78 27.81,-47.68 -23.83,0 -47.67,0 -71.52,3.97 -31.8,7.94 -63.58,15.89 -95.37,27.81 -15.9,23.85 -55.63,19.88 -79.48,23.85l0 11.91c-71.52,11.93 -150.99,51.66 -222.52,59.61l0 15.9c-19.86,0 -39.74,0 -59.61,3.98 0,15.88 -27.81,11.92 -39.72,11.92 -119.22,39.72 -234.45,79.47 -349.69,119.19 -43.71,0 -87.42,19.89 -127.15,39.75 -51.66,7.95 -127.17,15.9 -166.89,55.63 -27.83,0 -51.66,3.98 -75.51,7.95 -3.96,3.98 -7.95,7.94 -7.95,15.89 -55.62,0 -139.08,39.73 -202.66,55.63l0 11.93c-71.52,0 -143.04,43.71 -214.56,59.59 -39.75,23.85 -103.33,15.9 -139.09,51.66 -107.28,0 -222.52,71.53 -325.84,91.41 -3.98,3.96 -3.98,7.95 -3.98,15.88 -47.68,11.93 -91.39,23.85 -135.1,35.78 0,11.91 -47.67,15.88 -59.61,15.88 -51.66,19.88 -103.3,39.74 -150.99,59.61 -79.48,0 -154.96,55.62 -234.44,63.57l0 11.94c-15.9,0 -31.79,3.96 -43.71,7.95l0 11.91c-95.37,0 -178.83,63.57 -270.21,63.57 -51.66,-51.66 -27.82,-150.99 -67.56,-210.6 -7.95,-39.73 -11.92,-79.48 -15.9,-119.2 107.31,-15.9 222.54,-91.41 329.82,-91.41 208.06,-208.06 1573.58,-488.75 1645.1,-524.51zm-2153.73 1835.82l0 -19.86 59.61 -11.92 0 19.87 -59.61 11.91zm-433.12 7.95c-95.38,-31.78 -166.9,-154.96 -119.22,-250.33 47.69,0 107.3,-186.76 186.78,-186.76l0 -15.9c39.72,-15.9 79.47,-31.8 123.18,-47.69 0,-47.68 333.77,-99.34 381.46,-103.3 75.49,-35.79 158.95,0 238.42,15.87l83.44 71.53c31.8,127.17 15.9,162.93 -43.71,282.15 -27.82,15.87 -51.64,31.77 -75.49,47.67 0,15.9 -115.23,79.47 -139.08,91.39 0,31.8 -87.43,39.74 -111.27,47.69l0 -11.93 15.9 0c0,-7.95 3.98,-15.88 7.94,-23.83 43.72,-7.95 139.09,-143.07 166.9,-178.83 3.99,-3.96 11.91,-7.95 19.86,-11.91 0,-55.62 -3.96,-123.18 -75.48,-123.18l0 -11.92c-43.72,-11.93 -87.43,-23.85 -127.17,-35.76 -95.35,0 -194.71,23.83 -290.08,31.78 -43.71,19.86 -222.52,83.46 -222.52,150.99l-19.86 0c-11.92,11.94 -23.85,23.85 -31.8,39.75 -39.73,95.37 -55.63,115.23 27.81,198.67 0,7.95 0,15.9 3.99,23.85z"/>
   </g>
   <path class="fil0" d="M10758.04 9305.28l-169.53 -39.53 -150.6 -137 180.8 -49.18 184.41 51.24c-16.18,57.68 -31.26,115.85 -45.08,174.47zm90.92 -326.77l-736.53 -234.17 -203.06 -246.96 984.74 348.82c-15.7,43.8 -30.89,87.86 -45.15,132.31zm117.54 -320.57l-1333.3 -544.04 -267.82 -371.86 1669.21 759.72c-23.67,51.53 -46.41,103.61 -68.09,156.18zm154.18 -332.93l-2114.78 -1082.12 -310.65 -431.33 530.62 35.87 2036.91 1223.35c-50.18,82.97 -97.48,167.81 -142.1,254.23zm247.76 -419.97l-1528.53 -1016.14 457.53 30.89 1168.41 845.55c-33.39,45.92 -65.83,92.47 -97.41,139.7zm219.84 -299.87l-819.08 -653.51 304.8 20.59 607.68 519.86c-31.84,37.14 -62.82,74.89 -93.4,113.06zm193.47 -225.55l-131.71 -120.9 -63.82 -193.27 181.67 45.95 138.44 138.2c-42.45,42.47 -83.95,85.82 -124.58,130.02zm278.01 -276.55l-533.35 -587.28 -29.4 -303.81 673.16 794.19c-37.29,31.71 -74.16,63.98 -110.41,96.9zm267.27 -224.13l-875.48 -1137.22 -44.11 -456.02 1056.72 1491.76c-46.39,32.94 -92.13,66.76 -137.13,101.48zm300.15 -211.98l-1278.95 -1993.32 -51.15 -528.94 440.47 297.8 1140.12 2074.75c-85.27,47.19 -168.84,97.03 -250.49,149.71zm425.02 -241.12l-804.97 -1638.7 379.73 256.78 579.76 1309.2c-52.04,23.23 -103.56,47.5 -154.52,72.72zm340.99 -150.86l-374.58 -966.27 252.99 171.06 259.48 743.99c-46.33,16.3 -92.32,33.37 -137.89,51.22zm317.89 -110.12l-49.07 -164.02 44.15 -198.42 132.4 132.3 46.1 181.47c-58.35,15.03 -116.19,31.26 -173.58,48.67zm371.37 -94.66l-156.16 -766.56 129.98 -276.02 170.84 1015.03c-48.52,8.37 -96.72,17.58 -144.66,27.55zm345.1 -57.05l-169.82 -1412.83 195.11 -414.72 144.9 1809.84c-57.04,4.78 -113.79,10.72 -170.19,17.71zm367.43 -29.6l-80.08 -2354.28 226.33 -480.87 226.6 480.69 -80.08 2353.31c-42.78,-1.29 -85.58,-2.17 -128.65,-2.17 -55,0 -109.63,1.24 -164.12,3.32zm489.87 9.21l144.58 -1807.1 195.57 414.66 -169.38 1408.61c-56.6,-6.54 -113.55,-11.9 -170.77,-16.17zm371.5 44.18l169.84 -1009.14 129.96 276.01 -154.65 759.19c-48.09,-9.57 -96.5,-18.11 -145.15,-26.06zm328.19 66.76l39.28 -157.44 139.19 -148.34 46.42 181.27 -50.4 171.14c-57.68,-16.76 -115.86,-32.24 -174.49,-46.63zm379.34 111.93l256.68 -736.11 252.84 -170.95 -371.08 957.46c-45.79,-17.62 -91.96,-34.3 -138.44,-50.4zm325.86 127.77l575.42 -1299.35 379.71 -257 -799.86 1628.29c-51.22,-24.99 -102.97,-48.93 -155.27,-71.94zm330.78 162.8l1134.05 -2063.65 440.5 -297.92 -51.11 528.92 -1271.52 1981.7c-82.17,-52.42 -166.14,-102.17 -251.92,-149.05zm415.89 258.88l1047.96 -1479.53 -43.8 456.22 -865.92 1124.77c-45.37,-34.7 -91.47,-68.56 -138.24,-101.46zm296.44 228.14l662.17 -781.17 -29.32 303.6 -521.76 574.51c-36.51,-32.88 -73.43,-65.32 -111.09,-96.94zm223.78 202.08l108.81 -111.47 195.04 -57.9 -51.46 179.91 -125.09 117.76c-41.59,-43.6 -83.97,-86.4 -127.3,-128.3zm268.69 284.17l592.75 -507.09 304.78 -20.72 -803.2 640.87c-30.83,-38.22 -62.25,-75.93 -94.33,-113.06zm217.82 273.67l1151.5 -833.28 457.5 -30.96 -1510.59 1004.23c-31.91,-47.32 -64.71,-94.02 -98.41,-139.99zm205.05 306.31l2018.01 -1212.02 530.65 -35.87 -310.65 431.33 -2094.1 1071.56c-45.11,-86.78 -93.2,-171.79 -143.91,-255zm230.86 432.48l1647.65 -749.95 -267.83 371.92 -1310.93 534.94c-21.94,-52.88 -44.93,-105.14 -68.89,-156.91zm142.01 346.08l961.62 -340.63 -203.03 246.96 -712.97 226.68c-14.51,-44.66 -29.74,-88.97 -45.62,-133.01zm79.76 243.66l137.58 -39.68 198.22 45.9 -133.65 131.01 -154.74 37.71c-14.62,-58.8 -30.38,-117.12 -47.41,-174.94z"/>
   <path class="fil0" d="M10773.85 11708.98l-169.53 39.53 -150.6 137 180.8 49.18 184.41 -51.24c-16.18,-57.68 -31.26,-115.85 -45.08,-174.47zm90.92 326.77l-736.53 234.17 -203.06 246.96 984.74 -348.82c-15.7,-43.8 -30.89,-87.86 -45.15,-132.31zm117.54 320.57l-1333.3 544.04 -267.82 371.86 1669.21 -759.72c-23.67,-51.53 -46.41,-103.61 -68.09,-156.18zm154.18 332.93l-2114.78 1082.12 -310.65 431.33 530.62 -35.87 2036.91 -1223.35c-50.18,-82.97 -97.48,-167.81 -142.1,-254.23zm247.76 419.97l-1528.53 1016.14 457.53 -30.89 1168.41 -845.55c-33.39,-45.92 -65.83,-92.47 -97.41,-139.7zm219.84 299.87l-819.08 653.51 304.8 -20.59 607.68 -519.86c-31.84,-37.14 -62.82,-74.89 -93.4,-113.06zm193.47 225.55l-131.71 120.9 -63.82 193.27 181.67 -45.95 138.44 -138.2c-42.45,-42.47 -83.95,-85.82 -124.58,-130.02zm278.01 276.55l-533.35 587.28 -29.4 303.81 673.16 -794.19c-37.29,-31.71 -74.16,-63.98 -110.41,-96.9zm267.27 224.13l-875.48 1137.22 -44.11 456.02 1056.72 -1491.76c-46.39,-32.94 -92.13,-66.76 -137.13,-101.48zm300.15 211.98l-1278.95 1993.32 -51.15 528.94 440.47 -297.8 1140.12 -2074.75c-85.27,-47.19 -168.84,-97.03 -250.49,-149.71zm425.02 241.12l-804.97 1638.7 379.73 -256.78 579.76 -1309.2c-52.04,-23.23 -103.56,-47.5 -154.52,-72.72zm340.99 150.86l-374.58 966.27 252.99 -171.06 259.48 -743.99c-46.33,-16.3 -92.32,-33.37 -137.89,-51.22zm317.89 110.12l-49.07 164.02 44.15 198.42 132.4 -132.3 46.1 -181.47c-58.35,-15.03 -116.18,-31.26 -173.58,-48.67zm371.37 94.66l-156.16 766.56 129.98 276.02 170.84 -1015.03c-48.52,-8.37 -96.72,-17.58 -144.66,-27.55zm345.1 57.05l-169.82 1412.83 195.11 414.72 144.9 -1809.84c-57.04,-4.78 -113.79,-10.72 -170.19,-17.71zm367.43 29.6l-80.07 2354.28 226.32 480.87 226.6 -480.69 -80.07 -2353.31c-42.79,1.29 -85.59,2.17 -128.66,2.17 -55,0 -109.63,-1.24 -164.12,-3.32zm489.87 -9.21l144.58 1807.1 195.57 -414.66 -169.38 -1408.61c-56.6,6.54 -113.55,11.9 -170.77,16.17zm371.5 -44.18l169.84 1009.14 129.96 -276.01 -154.65 -759.19c-48.09,9.57 -96.5,18.11 -145.15,26.06zm328.19 -66.76l39.28 157.44 139.2 148.34 46.41 -181.27 -50.4 -171.14c-57.68,16.76 -115.85,32.24 -174.49,46.63zm379.34 -111.93l256.68 736.11 252.84 170.95 -371.08 -957.46c-45.79,17.62 -91.96,34.3 -138.44,50.4zm325.86 -127.77l575.42 1299.35 379.71 257 -799.86 -1628.29c-51.22,24.99 -102.97,48.93 -155.27,71.94zm330.78 -162.8l1134.05 2063.65 440.5 297.92 -51.11 -528.92 -1271.52 -1981.7c-82.17,52.42 -166.14,102.17 -251.92,149.05zm415.89 -258.88l1047.96 1479.53 -43.8 -456.22 -865.91 -1124.77c-45.38,34.7 -91.48,68.56 -138.25,101.46zm296.44 -228.14l662.17 781.17 -29.32 -303.6 -521.76 -574.51c-36.51,32.88 -73.43,65.32 -111.09,96.94zm223.78 -202.08l108.81 111.47 195.04 57.9 -51.46 -179.91 -125.09 -117.76c-41.58,43.6 -83.97,86.4 -127.3,128.3zm268.69 -284.17l592.75 507.09 304.78 20.72 -803.2 -640.87c-30.83,38.22 -62.25,75.93 -94.33,113.06zm217.82 -273.67l1151.5 833.28 457.5 30.96 -1510.59 -1004.23c-31.91,47.32 -64.71,94.02 -98.41,139.99zm205.05 -306.31l2018.01 1212.02 530.65 35.87 -310.65 -431.33 -2094.1 -1071.56c-45.11,86.78 -93.2,171.79 -143.91,255zm230.86 -432.48l1647.65 749.95 -267.83 -371.92 -1310.93 -534.94c-21.94,52.88 -44.93,105.14 -68.89,156.91zm142.01 -346.08l961.62 340.63 -203.03 -246.96 -712.97 -226.68c-14.51,44.66 -29.74,88.97 -45.62,133.01zm79.76 -243.66l137.58 39.68 198.22 -45.9 -133.65 -131.01 -154.74 -37.71c-14.62,58.8 -30.38,117.12 -47.41,174.94z"/>
   <path class="fil0" d="M11578.96 12303.02c-43.71,75.51 -178.81,294.07 -39.75,313.93 19.89,-63.57 39.75,-131.13 59.61,-198.69 31.8,0 3.99,-99.34 0,-111.25 -7.95,0 -15.9,0 -19.86,-3.99zm-434.28 -1286.77c-74.4,65.61 -247.29,218.71 -126.68,278.72 39.31,-54.7 79.81,-113.22 120.33,-171.74 25.13,8.3 32.9,-60.81 34.83,-92.59 46.39,22.81 95.79,43.65 144.93,54.79 3.17,8.43 6.75,16.67 10.81,24.73 -15.15,45.75 21.85,125.73 27.01,173.98 6.42,31.75 17.91,60.96 29.38,90.1 13.2,69.53 29.19,139.99 46.35,208.17 3.03,5.76 8.35,18.82 8.35,18.82 10.38,57.53 43.71,163.38 62.55,225.95 10.41,14.95 21.24,29.65 36.19,42.28 -0.82,38.79 19.48,78.18 37.75,115.03l6.42 -2.9c84.01,93.8 94.38,268.75 190.77,365.14 0,47.7 59.61,111.28 79.47,154.99 15.9,27.81 35.76,51.66 55.62,75.48 33.99,61.16 70.91,122.37 108.22,181.03 4.63,4.47 13.68,15.1 13.68,15.1 27.64,50.77 91.85,139.81 129.01,192.71 14.44,10.78 29.14,21.21 47.12,28.41 15.9,51.66 71.52,91.39 103.32,131.13l19.87 0c0,31.78 31.79,63.58 59.61,75.49 15.89,55.65 87.42,71.52 111.27,119.22 43.71,35.76 87.42,71.52 131.13,103.32 7.95,19.86 27.81,43.69 55.62,43.69 23.85,47.7 143.05,107.31 186.76,135.12l0 15.9c75.51,23.82 154.98,131.13 242.4,131.13l0 11.91c71.53,35.77 158.95,75.49 222.52,119.2 27.81,11.94 55.63,23.85 87.42,35.76 55.63,27.84 115.24,55.65 174.85,79.5 71.52,23.82 147.01,43.69 222.52,63.57 19.86,0 119.22,27.81 119.22,39.73 158.94,35.76 317.89,67.56 476.83,99.35 111.25,15.88 222.52,27.82 337.76,39.73 190.74,0 381.46,-3.96 572.2,-7.95 139.08,-23.85 278.17,-47.67 421.21,-75.49l0 -11.93c194.71,-27.81 381.47,-107.29 568.22,-154.96l0 -11.94c39.75,-15.9 83.46,-35.76 127.17,-55.62 43.71,-11.91 87.43,-27.81 131.14,-43.71 79.47,-39.75 162.91,-83.44 246.36,-127.15l0 -11.93c55.63,0 154.96,-99.34 218.56,-119.2l0 -15.9 11.91 0c91.39,-59.61 186.76,-154.98 282.13,-202.66l0 -11.93c35.76,0 59.61,-47.68 71.52,-75.49 31.8,-7.95 63.58,-19.86 79.48,-55.62 7.95,-3.99 19.86,-7.95 31.79,-11.94 7.95,-7.95 27.82,-43.71 39.73,-43.71 19.88,-15.9 39.75,-35.76 63.6,-55.62 47.67,-75.51 147,-135.1 194.7,-210.61l11.91 0c0,-7.95 3.97,-15.9 7.95,-27.81l11.92 0c59.61,-87.42 174.84,-178.81 206.64,-278.17l11.91 0c0,-7.95 3.99,-19.86 7.95,-31.77 27.81,-11.94 35.76,-55.65 71.53,-71.53 11.91,-27.83 23.84,-55.64 35.76,-87.42 47.69,-15.9 95.37,-178.83 123.18,-178.83 31.8,-79.47 87.42,-162.91 127.17,-242.38 11.91,-55.64 35.76,-115.23 67.54,-162.93 0,-63.57 67.56,-131.13 67.56,-194.71 122.58,-308.43 178.27,-668.02 202.3,-996.56 46.32,17.07 93.35,30.76 140.79,41.12 3.85,3.85 7.35,8.33 10.56,13.69l19.86 0c0,15.9 3.99,27.81 7.95,39.74 -7.95,3.97 -15.9,3.97 -19.86,3.97l0 63.57c23.85,-7.95 47.67,-19.86 75.51,-31.77 63.57,15.89 99.33,11.91 158.94,11.91 7.95,-11.91 19.86,-27.81 31.78,-43.71l15.9 0c-3.97,11.91 -3.97,19.86 -3.97,27.81 -15.9,111.27 -27.83,222.54 -39.74,333.79 -27.82,59.61 -35.77,143.04 -43.72,210.6 -19.86,67.56 -35.76,135.1 -51.66,202.66 -27.81,87.42 -55.62,174.84 -79.47,258.28 -23.83,79.47 -107.28,218.56 -107.28,298.03l-11.92 0c-43.71,107.31 -111.27,206.64 -150.99,313.92l-11.94 0c-7.95,23.85 -15.9,43.72 -23.85,63.58l-11.91 0c-11.91,35.76 -139.08,254.32 -158.94,254.32 -39.73,63.57 -226.51,361.6 -278.17,361.6l0 15.9 -11.91 0c-11.92,15.89 -19.86,31.79 -27.81,43.71 -23.85,23.84 -123.19,139.08 -143.05,139.08l-47.7 59.59c-11.91,19.88 -23.82,39.74 -31.77,55.64 -23.85,11.92 -51.66,19.87 -63.6,43.71 -103.3,51.66 -166.87,182.8 -274.18,234.44 -23.82,35.76 -75.48,51.66 -91.38,83.45l-15.9 0 0 15.9c-35.76,23.83 -71.53,47.68 -107.29,67.54l0 11.94c-91.38,43.71 -174.84,119.19 -258.28,174.84 -119.22,67.54 -238.42,135.1 -357.64,198.67 -119.22,27.81 -246.36,147.03 -369.55,147.03 -3.96,7.95 -7.95,11.92 -7.95,15.9 -127.14,19.86 -258.28,111.25 -389.41,111.25l0 11.93c-131.13,31.78 -262.26,63.58 -393.4,91.39 -67.54,11.91 -135.09,19.86 -198.67,27.81l-456.97 35.76c-119.22,-23.82 -262.27,0 -377.5,-35.76 -182.79,-3.96 -365.59,-67.53 -548.36,-83.43 -242.4,-87.43 -540.43,-131.14 -755,-274.18 -75.51,0 -162.93,-87.43 -230.47,-103.32l0 -15.9c-11.93,0 -23.85,0 -31.8,-3.97l-59.61 -35.76c-59.61,-27.83 -119.19,-83.46 -178.8,-103.32l0 -15.9c-11.92,0 -19.87,0 -27.82,-3.96 -19.86,-11.94 -35.76,-23.85 -51.66,-35.79l0 -11.91c-19.86,-3.96 -75.51,-15.9 -75.51,-47.67l-11.91 0 0 -11.94c-43.71,-7.95 -59.61,-31.77 -91.38,-63.57 -39.75,-23.85 -79.48,-47.68 -119.22,-75.49l0 -11.93 -19.87 0c-19.86,-39.73 -91.4,-63.58 -119.22,-107.29l-95.37 -71.52c-31.77,-63.58 -107.28,-83.46 -143.04,-154.98 -23.85,0 -59.61,-23.83 -59.61,-51.66 -7.95,0 -15.88,0 -23.83,-3.97l-119.22 -131.13c-87.42,-103.32 -170.86,-206.62 -254.32,-309.94 0,-27.81 -59.61,-55.63 -59.61,-99.34 -67.53,-83.45 -119.19,-190.74 -178.8,-278.16 -48.23,-103.88 -134.55,-204.27 -165.19,-317.38 8.26,-2.46 16.47,-5.14 24.6,-8.08 17.47,13.64 31.04,31.15 52.06,42.78 -3.64,-10.21 -6.43,-21.02 -8.11,-32.6 -22.92,-7.59 -49.64,-41.81 -40.81,-68.53 -7.64,-2.53 -15.26,-5.05 -21.61,-11.36l-72.72 -163.77c-51.08,-126.93 -98.34,-252.57 -145.61,-378.26 8.83,-26.7 -39.53,-72.34 -25.67,-114.32 -38.24,-101.53 -53.74,-220.93 -83.17,-323.78 -12.27,-106.4 -56.8,-220.29 -58.24,-330.41 24.45,17.85 60.03,43.01 110.06,73.37 1.04,18.75 3.87,27.56 25.2,24.42l5.95 -5.98c26.4,15.28 56.16,31.58 89.68,48.74 29.28,14.99 62.43,33.55 97.85,51.88zm345.26 1059.87c5.5,-32.33 0.56,-57.64 -23.29,-65.54 -51.66,83.26 -101.04,159.65 -94.95,253.96 24.11,-48.1 48.63,-96.19 76.13,-144.31 15.92,-11.14 29.25,-27.37 42.11,-44.11zm-124.26 200.49l-7.73 11.62 2.46 -1.11 5.27 -10.51zm-34.42 -611.32l-132.97 209.9c-2.43,45.75 15.37,68.56 64.95,84.97 34.12,-90.26 103.83,-185.65 85.83,-284.72 -7.64,-2.53 -15.26,-5.05 -17.81,-10.15zm-80.75 -255.31l-29.28 61.32c-34.89,55.05 -69.77,110.14 -100.9,166.49 -99.16,-32.84 25,-203.32 52.83,-249.11l12.71 -25.44c6.31,-6.38 12.65,-12.74 20.26,-22.9 27.22,9.01 39.33,43.42 44.38,69.64zm7834.7 -450.04l-214.59 131.13c-35.76,170.86 107.28,7.93 174.84,7.93 19.86,-11.91 39.75,-23.83 59.61,-39.73 -3.98,-31.79 -3.98,-63.57 -3.98,-95.37 -7.93,0 -11.92,0 -15.88,-3.96zm-671.57 1696.74c-79.47,11.93 -158.94,23.84 -234.43,35.76 -7.95,27.83 -15.9,51.66 -23.85,75.51 43.72,-3.97 341.74,7.95 302,-111.27l-43.72 0zm182.8 -325.84c-47.68,47.69 -154.98,27.83 -214.57,67.56 -3.99,23.84 -7.95,43.71 -7.95,63.57 79.47,-3.96 158.94,-7.95 242.38,-15.9 3.99,-27.81 19.89,-87.4 7.95,-111.25 -11.91,0 -19.86,0 -27.81,-3.98zm206.64 -333.79c-23.85,7.95 -43.71,15.9 -63.6,23.85 0,23.84 -71.52,27.81 -87.42,31.79 -23.82,23.85 -47.67,27.82 -79.47,31.78 -15.88,7.95 -27.81,15.9 -39.73,23.85 -3.98,15.9 -7.94,31.8 -7.94,43.71 79.47,0 162.9,-23.85 242.4,-39.73 0,-3.98 3.96,-7.95 7.93,-15.9l15.9 0c7.94,-31.79 19.86,-63.57 31.79,-99.35l-19.86 0zm111.25 -321.86c-79.47,31.8 -154.96,59.61 -230.47,87.42 -7.95,27.82 -15.9,51.67 -19.86,75.49 7.95,3.99 15.9,7.95 27.81,7.95 67.56,-15.88 158.95,-83.44 218.56,-83.44 7.94,-27.81 15.89,-55.62 23.82,-87.42l-19.86 0zm111.27 -365.58c-55.63,43.71 -305.98,103.32 -230.47,218.55 79.47,-19.86 170.86,-83.44 234.43,-127.15 -3.96,-27.81 -3.96,-59.61 -3.96,-91.4zm-1498.07 2117.96c-31.79,0 -63.59,11.92 -87.42,31.8 0,11.92 0,19.87 3.97,27.81 87.42,19.87 178.83,39.73 270.21,55.63 3.96,-15.9 43.71,-43.71 35.76,-63.57 -75.51,-15.9 -150.99,-31.8 -222.52,-51.67zm715.26 -476.83c-79.48,3.96 -226.51,-11.94 -290.08,39.72 -3.97,11.94 -3.97,19.89 -3.97,27.82 79.48,7.95 158.95,15.9 238.42,19.88 55.63,0 55.63,-43.71 55.63,-87.42zm-1013.28 691.4c-43.72,11.94 -43.72,23.85 -55.63,59.61 79.47,0 202.66,127.17 246.35,39.75 11.93,-7.95 23.85,-15.9 39.74,-27.83 -3.96,-11.92 -3.96,-23.83 -3.96,-35.76 -51.66,-7.93 -103.32,-19.87 -154.98,-31.78 -23.85,0 -47.68,0 -71.52,-3.99zm-2316.64 691.43c-7.95,3.96 -15.9,7.95 -23.85,7.95 0,47.68 27.81,83.44 67.56,103.32 55.62,99.34 67.53,111.25 182.77,99.34 -31.78,-67.56 -107.29,-139.09 -151,-194.71 -27.81,-3.99 -51.66,-7.95 -75.48,-15.9zm325.84 -3.98c19.86,83.45 99.33,151.01 162.9,202.65 23.85,3.99 47.7,3.99 71.53,3.99l0 -15.9 15.9 0c-3.97,-11.91 -3.97,-27.81 -3.97,-43.71 -55.64,-27.81 -99.35,-91.39 -139.08,-135.1l-107.28 -11.93zm-647.72 -15.88c-11.91,3.96 -23.85,3.96 -31.78,3.96 0,35.76 31.78,63.58 47.68,79.47 39.72,75.51 79.47,154.99 174.84,154.99 -3.98,-19.89 -7.95,-39.75 -7.95,-59.61l-11.91 0c-35.78,-55.63 -71.54,-115.24 -103.32,-174.85 -23.85,0 -47.7,0 -67.56,-3.96zm1041.09 -35.76c-15.87,3.96 -31.77,7.92 -43.71,11.91 0,15.9 0,27.81 3.99,39.73 15.9,0 143.04,111.27 154.96,127.16 31.8,11.92 103.32,35.77 103.32,-23.84 -31.78,-27.82 -166.9,-154.96 -218.56,-154.96zm-1410.64 -19.89c0,87.42 79.47,158.95 91.41,242.41 43.71,19.86 71.52,23.84 119.2,7.95 -47.68,-75.51 -95.38,-151 -139.09,-226.51l-71.52 -23.85zm1712.66 -43.71l-23.85 11.94c0,47.67 95.37,91.38 131.13,103.3 47.68,35.76 91.39,67.55 151,39.74 -3.97,-11.91 -3.97,-23.85 -3.97,-39.74l-178.83 -107.29c-27.81,0 -51.66,-3.96 -75.48,-7.95zm401.32 -123.18c-35.76,15.9 -67.53,31.8 -99.33,43.71 -3.97,7.95 -3.97,15.9 -3.97,23.85 31.78,19.86 71.53,63.57 115.24,63.57l0 11.94c23.82,15.87 51.64,31.77 79.47,47.67 59.59,0 103.3,-3.96 131.13,-63.57 -31.79,0 -91.4,-47.7 -111.27,-67.56 -39.74,-19.87 -75.51,-39.73 -111.27,-59.61zm262.27 -123.19c-19.86,11.94 -35.76,23.85 -51.66,31.8 11.93,63.58 111.27,83.44 158.94,103.32 67.56,47.68 95.38,15.9 162.93,-19.88 0,-47.68 -218.55,-107.29 -270.21,-115.24zm333.79 -154.96c-31.8,11.92 -67.56,23.83 -67.56,59.61 95.37,35.77 194.71,107.29 298.03,71.53l11.93 -47.7c-7.95,0 -15.9,0 -19.88,-3.96l0 -11.94c-75.49,-19.86 -151,-43.71 -222.52,-67.54zm-4510.1 -449.02c-23.85,79.47 -7.95,186.76 -3.98,270.19 19.86,3.99 39.74,7.95 59.61,7.95 7.95,-59.58 27.81,-178.8 3.96,-230.46l-59.59 -47.68zm1502.03 814.59c-7.95,3.99 -15.9,3.99 -19.86,3.99 0,83.43 39.75,162.9 75.51,238.41 27.81,11.92 55.62,23.85 83.43,31.78 3.99,-3.96 11.92,-7.93 19.87,-11.91 -19.87,-71.53 -75.49,-206.62 -127.15,-258.28 -11.91,0 -23.85,0 -31.8,-3.99zm-321.85 -107.29c-11.94,3.99 -23.85,7.95 -31.8,7.95 11.91,47.68 63.57,154.99 63.57,206.62l11.94 0c0,35.79 39.72,39.75 67.54,43.72 0,-3.97 3.98,-7.93 7.95,-11.92l-59.59 -190.74c-15.9,-7.93 -23.85,-19.86 -23.85,-35.76 -11.94,-3.97 -23.85,-11.92 -35.76,-19.87zm-341.74 -135.09c0,75.48 27.81,206.62 83.44,262.26 11.93,3.97 27.83,7.93 43.71,7.93 39.74,-39.72 -19.87,-190.72 -31.78,-238.42 -31.8,-7.95 -63.57,-19.86 -95.37,-31.77zm-305.98 -174.85c0,79.48 11.94,246.37 95.37,286.1l0 7.95c7.95,0 19.87,0 31.8,-3.97 -3.98,-75.51 -39.75,-234.45 -87.42,-282.13 -15.9,0 -27.81,-3.98 -39.75,-7.95zm-270.21 -194.7c-3.97,19.86 -7.93,39.72 -7.93,55.62l11.91 226.51c23.85,11.91 47.68,23.84 75.51,31.77 0,-75.48 0,-154.96 3.97,-234.43 -19.87,-31.8 -59.61,-67.56 -83.46,-79.47zm-500.66 -417.25c-23.85,99.36 -47.7,190.74 -3.99,282.13l15.9 0c15.9,-31.78 71.52,-282.13 -11.91,-282.13zm-234.46 -282.13l-59.61 238.42c11.94,43.71 35.76,59.61 87.42,59.61 3.99,-95.37 39.75,-206.62 -7.95,-294.04 -7.95,0 -15.9,0 -19.86,-3.99zm-155.2 -214.61l-8.44 66.67c-15.65,62.56 -31.26,125.13 -42.98,187.69 -103.32,0 -39.75,-198.69 -27.83,-250.35l3.98 -27.82c3.97,-7.95 7.95,-15.9 11.92,-27.81 28.38,0 50.46,28.54 63.35,51.62zm5919.17 563.26l45.52 -22.81c79.47,7.95 158.95,11.94 238.42,15.9 -3.99,19.86 -7.95,39.75 -11.91,55.62 -7.95,11.94 -11.94,23.85 -15.9,35.79 -95.37,11.91 -194.71,-7.95 -294.07,-15.9 0,-16.63 18.67,-44.55 37.94,-68.6z"/>
  </g>
 </g>
</svg>
