<?xml version="1.0" encoding="UTF-8"?>
<!DOCTYPE svg PUBLIC "-//W3C//DTD SVG 1.1//EN" "http://www.w3.org/Graphics/SVG/1.1/DTD/svg11.dtd">
<!-- Creator: CorelDRAW -->
<svg xmlns="http://www.w3.org/2000/svg" xml:space="preserve" width="297mm" height="210mm" version="1.1" style="shape-rendering:geometricPrecision; text-rendering:geometricPrecision; image-rendering:optimizeQuality; fill-rule:evenodd; clip-rule:evenodd"
viewBox="0 0 29700 21000"
 xmlns:xlink="http://www.w3.org/1999/xlink"
 xmlns:xodm="http://www.corel.com/coreldraw/odm/2003">
 <defs>
  <style type="text/css">
   <![CDATA[
    .fil0 {fill:#863730}
    .fil3 {fill:#FDD00A;fill-rule:nonzero}
    .fil1 {fill:#FCCE0B;fill-rule:nonzero}
    .fil2 {fill:#8A3302;fill-rule:nonzero}
   ]]>
  </style>
 </defs>
 <g id="Layer_x0020_1">
  <metadata id="CorelCorpID_0Corel-Layer"/>
  <g id="_2555267443552">
   <path class="fil0" d="M14828.98 2874.51c3700.8,0 6700.89,3000.09 6700.89,6700.89 0,934.69 -191.6,1824.55 -537.31,2632.8 -1871.9,-403.12 -3960.33,-628.74 -6163.58,-628.74 -2203.26,0 -4291.68,225.62 -6163.59,628.74 -345.7,-808.25 -537.3,-1698.11 -537.3,-2632.8 0,-3700.8 3000.09,-6700.89 6700.89,-6700.89z"/>
   <path class="fil1" d="M18049.12 6426.6c817.01,819.6 1322.06,1949.56 1322.06,3197.4 0,419.96 -57.47,826.46 -164.5,1212.39 -141.84,-62.22 -284.83,-121.14 -428.69,-177.02 86.79,-330.61 133.14,-677.52 133.14,-1035.37 0,-986.28 -351.07,-1890.63 -935.16,-2595.39 43.51,-192.07 68.37,-394.32 73.15,-602.01zm-3232.81 -2949.87l30.15 0c3393.3,8.15 6141.73,2757.2 6141.73,6147.27 0,695.33 -115.84,1363.51 -329.03,1986.85 282.66,180.37 554.99,374.6 813.16,583.73 -23.33,54.16 -40.69,100.82 -45.12,128.43 -19.1,118.97 -30.65,241.76 -66.38,357.41l-18.92 48c-909.02,-343.87 -2294.82,-818.92 -3921.89,-1212.64 -112.64,-27.31 -225.64,-52.56 -338.87,-76.2l43.91 714.15c15.29,247.19 -181.48,456.11 -429.61,456.11 -37.91,0 -71.77,-2.95 -108.84,-11.72 198.92,-46.97 343.3,-231.33 330.13,-444.39l-192.56 -3130.02c-28.1,-456.83 120.43,-909.9 425.47,-1251.55 284.32,-318.43 469.28,-835.26 469.28,-1418.91 0,-968.09 -508.73,-1752.84 -1136.42,-1752.84 -627.73,0 -1136.54,784.75 -1136.54,1752.84 0,583.65 184.97,1100.48 469.36,1418.91 305.04,341.65 453.48,794.72 425.47,1251.55l-138.92 2257.07c-902.93,-104.84 -1815.61,-97.46 -2717.14,22.03l-138.41 -2249.79c-29.76,-483.29 124.34,-967.82 456.19,-1321 160.73,-171.1 259.19,-401.13 259.19,-654.32l0 -2477.29 -273.97 0 0 2127.77c0,75.53 -61.33,136.78 -137.01,136.78 -75.64,0 -136.99,-61.25 -136.99,-136.78l0 -2127.77 -273.96 0 0 2127.77c0,75.53 -61.34,136.78 -136.99,136.78 -75.68,0 -136.98,-61.25 -136.98,-136.78l0 -2127.77 -274.01 0 0 2127.77c0,75.53 -61.33,136.78 -136.97,136.78 -75.66,0 -136.99,-61.25 -136.99,-136.78l0 -2127.77 -273.98 0 0 2477.29c0,253.19 98.46,483.22 259.19,654.32 331.86,353.18 485.92,837.71 456.21,1321l-190.73 3100.71c-13.13,213.06 131.21,397.55 330.08,444.39 -37.1,8.8 -70.95,11.72 -108.87,11.72 -248.1,0 -444.79,-208.92 -429.62,-456.11l41.59 -675.16c-53.05,12.04 -106,24.35 -158.89,37.21 -1632.9,395.13 -3022.77,872.17 -3931.71,1216.34 -25.38,-61.36 0,-98.22 -63.04,-177.73l-77.06 -96.32 -79.09 -182.42c287.06,-240.22 592.74,-461.33 911.58,-664.8 -213.1,-623.23 -328.86,-1291.52 -328.86,-1986.85 0,-3390.07 2748.35,-6139.12 6141.68,-6147.27zm7041.22 9051.19c36.02,33.35 71.67,67.03 106.97,101.06l-194.65 265.1 -4.43 -1.76c41.15,-106.73 68.27,-215.09 86.6,-329.43l5.51 -34.97zm-10972.74 -1868.55c-143.82,55.88 -286.78,114.8 -428.66,177.02 -107.06,-385.93 -164.49,-792.43 -164.49,-1212.39 0,-1247.33 504.66,-2376.89 1321.11,-3196.49l0 650.19c0,14.05 0.56,27.89 0.98,41.82 -540.15,690.91 -862.1,1560.11 -862.1,2504.48 0,357.85 46.4,704.76 133.16,1035.37z"/>
   <path class="fil2" d="M5065.79 15235.66c-4.84,-18.35 -8.94,-34.7 -12.22,-48.97 -4.15,-18.02 -7.58,-34.79 -10.25,-50.29l-0.28 0.05c-4.94,-29.03 -7.63,-60.32 -8.02,-93.41 -2.22,-181 75.51,-314.04 231.67,-397.41 25.4,-13.55 51.24,-24.62 77.03,-32.97l3.4 -1.69c20.33,-6.39 41.3,-11.48 62.83,-15.2l1.7 0c30.14,-5.09 68.18,-7.42 114.08,-7.06 35.98,0.33 66.23,1.29 90.43,2.88l25.46 1.7c21.67,2.67 41.44,4.27 59,4.72 37.28,0.97 81.39,1.03 132.29,0.16 190.53,0 381.93,-3.91 572.52,-5.88l44.05 531.91 -0.61 0.05c6.8,63.66 14.02,127.28 21.64,190.82l14.64 -8.92c76.76,-46.57 129.23,-77.69 156.87,-92.99l0.71 1.29c54.76,-30.28 98.9,-52.52 132.28,-66.59l5.09 -3.39c126.22,-51.42 252.15,-82.49 377.76,-93.17 130.8,-11.12 259.67,0.38 386.53,34.54 136.74,36.81 257.12,97.89 361.08,183.21 17.86,14.67 35.03,29.87 51.53,45.59l9.04 -11.11c70.68,-85.81 150.48,-160.5 239.32,-224.01 87.87,-62.82 183.52,-114.53 286.88,-155l16.97 -6.79c43.16,-14.87 86.33,-27.09 129.43,-36.58l1.71 0c38.83,-8.53 82.97,-15.53 132.39,-20.89 20.1,-2.2 48.53,-4.04 85.22,-5.5 20.65,-0.84 52.51,-1.41 95.23,-1.69 23.61,-0.16 46.92,0.56 69.92,2.17 45.34,-22.39 95.16,-36.49 149.51,-42.31l1.69 0c37.86,-4 75.41,-3.24 112.8,2.45 15.31,1.2 30.04,2.2 43.74,2.95l196.61 10.38c100.3,5.21 166.45,8.8 197.69,10.71 86.12,5.26 151.44,16.2 195.59,32.66l167.7 62.53c20.25,-15.75 41.03,-30.95 62.36,-45.6l0 -1.68c118.59,-81.45 249.89,-141.42 393.77,-179.86l0.37 1.37c43,-12.22 80.09,-21.02 111.3,-26.4 38.62,-6.64 79.03,-11.54 121.16,-14.62 29.51,-2.16 70.69,-2.69 123.53,-1.53 55.09,1.18 100.25,3.13 135.84,5.78 66.98,5 135.16,16.73 204.43,35.12 67.17,17.84 132.24,41.04 195.1,69.56l-0.28 0.63c85.39,38.13 166.2,86.53 242.39,145.14 40.75,-28.36 88.85,-58.04 144.27,-89.03 63.14,-35.28 122.88,-66.37 179.08,-93.12 52.02,-24.76 107.38,-49.73 166.23,-74.91 53.22,-22.76 99.52,-40.23 138.87,-52.31l5.1 -1.71c129.48,-38.04 257.68,-56.05 384.5,-54.01 135.02,2.2 262.8,26.25 383.2,72.13 15.06,5.73 29.87,11.77 44.43,18.09l-0.66 -55.67 438.36 -3.43c27.75,-0.23 79.27,3.45 154.97,11 90.03,9.01 179.76,18.45 271.15,28.44l18.68 1.7 106.82 19.28c43.8,-20.5 82.72,-37.45 116.76,-50.81 71.3,-27.98 138.2,-48.54 200.66,-61.58l10.18 -1.7c32.13,-5.94 65.73,-10.64 100.66,-14.02 31.49,-3.04 65.08,-4.74 100.68,-5.05 87.53,-0.76 174.22,9.46 259.98,30.61 58.31,14.38 118.02,34.42 179.04,60.07 -2.73,-59.59 -6.84,-106.74 -12.28,-141.45l-0.53 0.09 -88.06 -511.12 600.07 -40.25c49.13,-3.45 106.43,-8.68 171.85,-15.64l19.48 -2.12c-24.36,0.13 -46.71,-0.32 -66.96,-1.37 -46.02,-2.39 -92.69,-7.61 -139.98,-15.6 -50.72,-8.58 -98.04,-18.48 -141.95,-29.65 -74.97,-19.08 -148.37,-49.38 -220.1,-90.82 -57.63,-33.31 -112.71,-73.9 -165.13,-121.73 -41.98,-35.43 -82.09,-78.46 -120.27,-128.99 -30.9,-40.87 -60.92,-86.69 -89.94,-137.33 -30.37,-52.97 -55.83,-106.51 -76.36,-160.58 -26.03,-68.62 -41.62,-134.59 -46.77,-197.88l0.44 -0.03c-3.7,-48.21 -3.72,-139.2 -0.1,-272.92 3.62,-132.93 9.9,-299.64 18.8,-499.97 -61.14,42.7 -109.64,77.67 -145.47,104.87 -14.06,10.68 -27.05,20.74 -38.98,30.17l2.44 83.57c4.76,163.71 13.48,313.74 26.06,450.01 11.63,125.87 26.98,241.62 45.94,347.11l0.44 -0.09c7.04,33.16 11.47,55.58 13.29,67.42l-1.66 0.25c4.78,30.87 7.53,58.97 8.25,84 1.37,48.38 -3.58,95.03 -15.15,140.42l1.58 0.4c-20.31,79.94 -57.02,147.09 -110.39,201.56 -51.32,55.83 -116.94,96.39 -196.69,121.81l0 1.68c-40.56,12.81 -87.49,20.04 -140.68,21.64 -33.2,0.96 -70.79,-0.58 -112.75,-4.58 -47.22,-4.47 -84.37,-8.81 -111.83,-12.98l0.13 -0.89c-39.42,-5.2 -86.48,-9.77 -141.13,-13.7 -65.92,-4.74 -121.54,-7.51 -166.9,-8.29l-492.24 -8.55c-24.89,12.44 -48.38,22.7 -70.51,30.79 -44.86,16.38 -91.91,27.17 -140.97,32.36 -38.24,4.05 -76.11,4.53 -113.58,1.48 -102.88,-1.93 -201.46,-21.85 -295.72,-59.76 -13.01,-5.23 -25.89,-10.79 -38.63,-16.64l-28.76 16.45 -10.18 5.09c-16.61,8.78 -46.59,23.8 -90.57,45.36 -30.86,15.12 -57.87,27.64 -80.92,37.46l0.26 0.61c-41.56,17.64 -87.21,32.31 -137.03,44.08 -38.18,9.01 -81.78,17.18 -130.7,24.42 -36.41,5.34 -74.35,10.12 -113.71,14.29 -36.86,3.9 -72.71,5.89 -107.47,5.92 -47.84,0.05 -97.39,-5.75 -148.65,-17.29 -32.34,-7.27 -69.94,-18.27 -112.7,-32.95l-0.49 1.46c-163.91,-54.08 -299.37,-138.52 -406.4,-253.25l27.03 349.69 -740.76 164.86 0.07 0.35 -4.5 1.01 -1.69 0 -49.58 11.03c-96.26,21.39 -164.87,35.24 -205.58,41.38 -91.61,13.85 -170.89,14.02 -238.01,0.44 -108.22,-21.77 -199.45,-74.95 -273.57,-159.42l-12.1 279.87 -636.11 141.53c-70.02,15.58 -144.58,33.28 -224.13,53.18 -18.17,4.55 -19.66,2.38 -19.84,0.66 -34.39,17.66 -70.38,30.58 -107.3,38.89l-1.69 0c-97,21.52 -190.77,12.61 -281.05,-26.59 -85.01,-36.79 -152.94,-94.03 -203.64,-171.46l-0.77 0.51c-16.72,-25.6 -34.89,-62.15 -54.31,-109.42 -15.35,-37.33 -27.35,-67.68 -36.16,-91.49 -70.09,-189.99 -160.43,-417.96 -270.93,-683.85 -109.76,-264.09 -243.39,-574.57 -400.82,-931.37l0.78 -0.35c-127.87,-285.29 -226.05,-506.02 -294.39,-661.95 -83.32,-190.09 -135.05,-310.61 -155.09,-361.3l0.88 -0.35 -232.52 -574.95 701.87 -84.09 5.1 0c51.46,-5.59 99.46,-11.35 144.06,-17.25 21.34,-2.81 90.37,-12.68 208.18,-29.71l0.08 0.62 584.28 -105.23 31.94 102.48 401.91 -120.78 1.7 0c48.16,-14.25 91.46,-26.53 129.77,-36.74 29.86,-7.96 67.78,-17.07 113.36,-27.2l54.06 -12.02 20.37 -5.09 419.06 -71.48 11.78 25.74c20.32,-62.2 53.92,-118.12 100.94,-167.42 40.55,-42.83 86.82,-76.38 138.35,-100.37l0.64 1.38c31.65,-14.82 65.28,-26.12 100.9,-34 20.21,-4.5 38.95,-7.83 55.04,-9.57l1.69 0c18.93,-2 19.84,-2.5 25.19,-2.89 9.34,-0.71 28.69,-0.85 57.94,-0.44 26.36,0.36 42.67,0.77 49.6,1.17 26.15,1.57 48.47,3.45 66.51,5.59 17.77,2.09 40.42,5.22 67.96,9.32l6.79 1.71c25.03,4.07 56.22,6.92 93.47,8.5 49.65,2.11 104.93,2.39 165.74,0.82l160.16 -0.85c70.4,-0.12 123.6,4.27 156.87,12.44 75.04,18.42 141.1,55.36 198.39,109.9l0.85 -0.89c65.15,62.26 106.58,136.87 125.92,222.67 11.09,49.44 14.58,102.4 10.46,158.68 -1.29,17.61 -3.74,40.21 -7.37,67.73 -7.52,93.88 -13.03,230.5 -16.46,409.79l-0.97 53.64c24.06,-16.95 49.62,-34.15 76.65,-51.66 61.51,-39.82 131.87,-81.86 211.01,-126.07 79.51,-44.4 144.29,-79.32 194.22,-104.63 62.61,-31.77 115.54,-55.85 158.64,-72.21l5.09 -1.69c147.73,-54.06 294.42,-84.63 440.03,-91.76 151.36,-7.38 298.82,11.07 442.32,55.3 131.46,40.55 247.78,99.92 348.94,178.08l-9.85 -332.21 438.45 -12.52c30.82,-0.88 72.16,2 124.08,8.63 32.1,4.12 73.75,10.21 124.92,18.2l0.13 -0.88c61.1,8.86 112.1,15.55 152.77,19.96 45.45,4.94 81.38,8.11 107.64,9.43l16.98 0c54.37,4.8 106.24,11.28 155.63,19.42 30.99,5.09 60.2,11.67 87.67,19.71 41.06,-29.6 78.18,-54.2 111.31,-73.75 67.83,-40.04 133.47,-65.57 196.68,-76.54l61.12 -5.1c59.12,-1.69 119.57,7.53 181.41,27.64l-5.64 -95.71 649.89 115.67 3.4 1.69c60.1,11.02 119.96,21.44 179.33,31.19 56.21,9.21 96.8,15.5 121.7,18.86l0.12 -1.01c57.75,6.77 117.21,14.98 177.61,24.44 94.8,14.87 173.79,42.91 236.91,83.99l7.97 -177.07 570.37 84.23 20.37 3.38c54.74,10.75 99,18.97 132.01,24.42 38.72,6.41 95.72,15.11 171.1,26.08 52.92,5.91 110.65,12.87 173.71,20.94 28.62,3.65 55.83,8.49 81.63,14.44l1.79 -12.4 432.93 62.44 1.7 0c22.19,3.26 81.46,17.35 177.72,42.27 137.15,35.5 246.02,64.1 325.55,85.48l16.97 5.1c17.16,5.39 51.33,16.93 102.64,34.67 19.77,6.84 36.93,13.03 51.49,18.54 63.91,-18.99 123.37,-34.65 178.32,-46.97 89.76,-20.14 170.2,-32.09 241.17,-35.8l10.19 0c42.22,-1.25 80.48,-0.88 114.82,1.07 41.54,2.36 80.07,6.16 115.47,11.31 97.92,14.28 194.24,41.21 288.96,80.73 88.95,37.13 176.9,85.39 263.79,144.76 138.85,94.87 236.43,220.74 292.78,377.51 4.98,13.86 9.57,27.85 13.81,41.98 32.18,-22.87 65.29,-44.34 99.33,-64.41 108.6,-64.03 224.86,-113.34 348.71,-147.83 118.77,-33.09 243.63,-51.24 374.48,-54.44l16.98 0c52.75,0.88 104.21,4.68 154.24,11.32 51.57,6.85 102.43,16.44 152.56,28.72 24.53,6.01 56.56,15.34 96,27.91 52.65,16.8 88.58,28.62 107.35,35.31 34.52,12.29 68.91,27.03 103.18,44.17 57.96,-10.43 117.56,-8.14 178.8,6.88 44.41,10.88 84.03,26.76 119.98,47.5l49.48 20.81c208.11,88.84 163.91,70.44 223.2,95.56 128.5,54.47 204.45,86.79 226.66,96.44 89.66,38.98 151.91,73.27 186.05,102.23l204.91 173.81 -66.22 269.73 -0.39 -0.11c-9.87,39.51 -37.24,123.18 -82.04,250.91l0.46 0.16c-24.57,72.6 -59.3,187.54 -104.13,344.73 -50.58,177.42 -103.43,369.83 -158.49,577.09l0 1.7c-36.81,137.02 -74.16,272.06 -112.02,405.04l472.09 154.21c143.29,40.85 230.96,65.45 263.55,73.81l0.39 -1.59c60.75,15.55 92.54,23.53 95.27,23.88 50.31,6.61 91.16,14.62 122.45,24.03 129.56,38.84 224.01,114.12 282.95,225.12l-1.33 0.7c29.32,55.08 47.28,113.82 53.69,175.97 4.06,39.32 3.28,80.37 -2.38,123.1 -3.96,30.25 -6.52,48.35 -7.58,53.69l-11.88 48.79 -1.68 8.49c-10.11,37.85 -23.48,99.96 -40.02,186.24 -8.63,45.02 -17.81,94.53 -27.49,148.54l10.81 -2.65c62.46,-15.26 121.41,-28.53 176.97,-39.78 58.95,-11.93 108.23,-19.76 147.78,-23.46l5.09 -1.7c132.81,-10.79 261.71,-2.2 386.68,25.84 128.33,28.77 248.05,78.66 358.99,149.54 121.02,77.32 217.7,171.51 290.06,282.43 75.6,115.92 122.03,244.38 139.21,385.27l-0.25 0.03c6.38,56.99 5.31,133.49 -3.24,229.42 -8,89.68 -20.7,198.41 -38.06,326.07 -9.97,73.16 -18.3,137 -24.98,191.5 8.58,6.36 16.97,13.02 25.16,19.96l0.83 -0.99c141.11,119.78 189.65,269.93 146.13,450.93 -16.9,70.42 -49.29,136.17 -97.22,197.5l-3.4 5.09c-32.78,40.9 -73.97,81.51 -123.56,121.82 -39.89,32.43 -83.46,63.84 -130.59,94.04 -48.44,31.06 -95.82,58.06 -142.12,80.98 -55.98,27.7 -108.16,48.48 -156.45,62.3l-0.21 -0.72c-32.28,9.88 -57.49,16.97 -75.6,21.22 -37.19,8.74 -71.65,14.43 -103.43,16.98 -42.62,3.49 -87.47,1.29 -134.5,-6.44 -27.76,-4.6 -54.95,-11.1 -81.52,-19.5 -94.97,-25.61 -181.94,-68.21 -260.87,-127.74 -40.93,8.99 -67.27,14.64 -78.79,16.8 -23.25,4.37 -48.72,8.41 -76.69,12.12 -38.7,5.14 -81.01,6.82 -126.84,5.08 -44.68,-1.67 -83.17,-4.49 -115.11,-8.41 -20.91,-2.59 -52.63,-7.42 -95,-14.4 -33.1,-5.45 -64.17,-12.21 -93.03,-20.15 -43.43,-11.95 -86.82,-29.52 -130.16,-52.67 -31.73,-17.02 -63.24,-36.26 -94.25,-57.64l-2.13 -1.45c-58.45,22.92 -123.72,33.64 -195.8,32.2 -33.84,-0.67 -73.57,-4 -119.02,-9.97 -32.88,-4.33 -63.91,-8.93 -92.3,-13.7l-132.25 -24.02c-64.15,-11.58 -117.43,-22.91 -159.78,-33.89 -63.41,-16.44 -116.02,-34.81 -157.73,-55.08l-23.75 -11.88 -8.61 -4.94c-44.47,12.33 -88.36,20.91 -131.7,25.72 -44.96,4.99 -92.65,8.07 -142.95,9.19 -52.43,1.21 -100.3,-1.05 -143.5,-6.73 -52.12,-6.82 -98.12,-15.95 -137.87,-27.36 -47.59,-13.67 -92.45,-30.3 -134.42,-49.88l0.32 -0.69c-59.21,-26.41 -115.33,-58.38 -168.24,-95.89 -23.6,17.67 -49.34,33.15 -77.26,46.47l0.32 0.66c-72.44,34.6 -150.26,47.74 -233.63,39.85 -34.42,-3.26 -64.79,-8.99 -91.44,-17.02l-1.29 -1.29 -267.37 -60.64 -372.46 -86.27 -103.68 84.72 -188 -18.1c-33.71,-3.27 -74.86,-10.1 -123.01,-20.46 -10.16,-2.18 -61.27,-14.3 -154.6,-36.66l-0.28 1.23c-92.57,-21.54 -147.53,-34.1 -165.85,-37.88l-48.19 -9.77 -254.97 -24.55c-20.97,2.2 -43.88,4.18 -68.69,5.96 -31.69,2.26 -79.47,4.47 -142.99,6.61 -42.95,1.45 -89.71,2.1 -140.24,1.94 -163.05,0 -327.55,-4.71 -490.7,-7.09 -14.74,2.2 -29.19,3.91 -43.35,5.14l-0.14 -1.54c-26.03,2.32 -53.33,3.68 -81.77,4.03 -33.82,0.43 -61.14,-0.01 -81.82,-1.3 -35.72,-2.22 -77.14,-7.59 -124.14,-16.02 -43.76,-7.87 -83.65,-16.59 -119.59,-26.12 -70.35,-18.65 -136.6,-46.38 -198.62,-83.09 -52.64,-31.14 -103.14,-69.53 -151.43,-115.12 -33.74,-29.96 -66.14,-65.44 -97.17,-106.41 -55.11,38.93 -115.49,73.73 -181.13,104.4l-23.78 10.17c-40.05,15.92 -84.78,31.12 -134.07,45.56 -55.36,16.2 -105.04,29.5 -148.82,39.77 -70.79,17.51 -147.3,29.71 -229.47,36.53 -69.7,5.79 -154.04,7.38 -252.96,4.74l-67.08 -1.79c-61.02,-1.62 -107.73,-3.63 -140.01,-5.99 -50.52,-3.68 -97.43,-8.12 -140.81,-13.28 -45,-5.36 -107.03,-14.82 -185.97,-28.28 -54.5,-9.31 -121.53,-21.5 -201.11,-36.56 -9.13,6.5 -18.61,12.75 -28.39,18.71 -68.82,42.21 -145.13,63.77 -230.14,64.27 -31.47,0.17 -61.64,-2.32 -89.89,-7.64l-1.68 0 -4.56 -0.91 -64.97 -7.14 -201.31 -24.32 -1.69 0 -379.3 -46.9 -93.21 94.3 -190.62 1.51c-33,0.31 -74.31,-2.23 -123.98,-7.58 -26.47,-2.86 -78.31,-9.34 -155.81,-19.51l-0.14 1.23c-101.49,-12.64 -158.04,-19.53 -170.75,-20.79l-49.38 -4.94 -240.57 2.09c-28.4,12.78 -58.47,23.85 -90.31,33.19 -43.29,12.73 -88.65,20.06 -135.83,21.96 -28.77,1.15 -58.2,-0.03 -88.24,-3.57 -95.76,-6.44 -187.04,-30.16 -273.9,-71.21 -26.96,12.05 -51.97,22.85 -75,32.33 -27.54,11.34 -51.59,20.62 -72.12,27.79 -38.59,13.5 -80.41,24.04 -125.33,31.61 -38.63,6.51 -76.42,11.31 -113.16,14.33l-1.7 0c-19.24,1.55 -51.3,3.25 -95.55,5.07 -39.39,1.58 -70.76,1.67 -94.07,0.18 -43.78,-2.82 -89.75,-11.34 -137.87,-25.51 -27.34,-8.05 -59.43,-19.75 -96.13,-35.02l-0.19 0.47c-92.66,-37.41 -173.95,-85.39 -243.89,-143.91 -87.43,73.99 -183.03,134.94 -286.79,182.86 -147.39,68.08 -308.22,108.54 -482.42,121.34l-3.4 0c-183.75,11.74 -355.67,-8.14 -515.72,-59.63 -58.03,-18.66 -113.83,-41.23 -167.37,-67.72 -10.58,52.27 -24.1,102.45 -40.54,150.5l-1.7 5.08c-21.54,61.16 -50.33,121.61 -86.29,181.24 -32.39,53.75 -70.35,107.17 -113.74,160.2 -42.18,51.56 -87.44,99.53 -135.66,143.84 -51.52,47.38 -104.49,88.03 -158.78,121.87 -89.76,55.86 -189.33,101.38 -298.57,136.46 -102.68,32.97 -211.66,55.73 -326.83,68.28l-5.09 0 -148.45 14.31c-86.46,8.27 -177.1,5.09 -271.87,-9.52 -75.14,-11.58 -165.88,-33.49 -272.13,-65.7l-3.39 0c-30.41,-9.54 -57.28,-18.88 -80.48,-27.99 -41.38,-16.19 -76.54,-33.53 -105.34,-51.81 -46.27,-29.41 -87.4,-66.85 -123.33,-112.44l-0.83 0.64c-53.96,-68.59 -86.05,-146.83 -96.02,-235.01l-0.19 0.02 -9.65 -87.2c-39.51,15.78 -82.48,27.08 -128.93,33.78l0.03 0.24c-34.43,4.91 -68.56,6.8 -102.41,5.65 -90.52,1.51 -179.38,-13.22 -266.51,-44.21 -28.95,16.65 -52.72,29.95 -71.3,39.91 -24.86,13.31 -47.65,24.83 -68.27,34.48 -35.46,16.58 -76.15,31.19 -122.06,43.77 -35.46,9.74 -72.72,18.25 -111.83,25.51 -46.29,8.49 -77.88,13.97 -94.68,16.36 -31.94,4.56 -63.84,7.45 -95.46,8.61 -44.68,1.64 -90.89,-2.01 -138.57,-10.95 -32.13,-6.02 -67.73,-15.04 -106.57,-26.97l0.08 -0.28c-80.7,-24.02 -154.14,-56.58 -220.33,-97.67 -22.99,26.82 -47.19,52.12 -72.56,75.9 -75.92,71.19 -162.24,128.87 -258.9,173.05l-1.7 1.71c-35.8,16.22 -73.75,30.88 -113.78,43.93 -40.33,13.14 -79.69,23.94 -117.89,32.25 -33.5,7.31 7.68,-2.17 -70.34,13.92l-54.15 10.92c-38.22,6.5 -75.82,10.46 -112.56,11.87 -89.59,3.46 -170.75,-13.36 -243.8,-50.95l-11.89 -6.79c-45.71,-25.46 -97.89,-68.73 -156.02,-129.61 -21.17,-22.16 -62.48,-67.53 -123.88,-136.09 -65.77,-73.46 -106.09,-119.07 -121.02,-136.93 -75.17,-89.96 -119.74,-175.78 -133.67,-257.47 -39.82,-233.31 53.5,-396.97 279.47,-489.17 38.38,-15.58 85.34,-28.19 140.66,-37.56l11.86 -2.14 -2.24 -14.81c-21.87,-143.96 -48.38,-307.61 -79.56,-491.41l-0.28 0.05 -1.26 -7.35 0 -1.7 -1.58 -9.37 -0.28 0.04 -0.63 -3.67 0 -1.7 -8.73 -51.46c-52.06,-306.68 -87.95,-513.99 -107.63,-622.03 -23.81,-130.75 -40.61,-214.3 -50.31,-250.55l0 -1.7zm14091.87 -994.12c-27.41,-4.75 -53.87,-11.76 -79.49,-20.81l-1.7 0c-4.81,-1.71 -10.03,-3.74 -15.69,-6.1l-317.17 -88.34 -504.07 -143.06 -140.59 103.94 -188.27 -27.4c-34.05,-4.95 -81.08,-15.48 -141.12,-31.51 -19.67,-5.25 -81.72,-23.11 -185.69,-53.45l-0.33 1.11c-123.58,-35.19 -192.23,-54.58 -205.65,-58.04 -33.24,-8.58 -56.96,-13.92 -71.02,-15.97l0.03 -0.25 -284.66 -41.52c-36.41,5.38 -75.11,9.77 -116.07,13.11 -40.02,3.27 -97.04,6.56 -171.17,9.8 -29.31,1.29 -61.38,2.29 -96.15,2.98 68.71,12.8 133.34,30.44 193.8,52.91l0.34 -0.94c179.06,66.33 324.78,158.75 437.08,277.2 100.05,105.53 170.24,226.27 210.54,362.21l93.08 17.57 1.68 0c39.53,7.66 87.59,16.45 144.62,26.41 52.69,9.19 85.84,14.75 99.37,16.64l-0.09 0.65c73.12,9.35 120.29,15.82 141.54,19.39 35.44,5.92 68.66,14 99.66,24.24l6.12 -110.62 551.96 87.34 18.68 3.39c6.6,1.36 41.91,7.7 105.52,18.89l121.09 21.29 0.09 -0.76c44.97,5.41 95.69,12.03 153.86,20.08 25.46,3.52 49.81,8.11 73.02,13.71l41.87 4.12c-15.18,-27.12 -27.39,-54.66 -36.62,-82.64 -27.95,-84.97 -31.15,-171.27 -9.68,-258.66l0.4 0.1 22.6 -92.28 48.28 -64.73zm2342.85 768.08l11.11 -2.23 0.2 0.98c68.26,-13.6 137.25,-21.47 206.85,-23.55 29.51,-0.88 59.14,-0.75 88.9,0.43l54.32 -508.02c-26.25,69.75 -57.21,136.31 -92.86,199.58 -37.69,66.97 -81.7,131.63 -131.94,193.92l-3.39 3.38c-39.16,47.67 -83.58,92.84 -133.19,135.51zm290.49 -2747.26c0.23,-0.98 0.32,-1.35 0,0zm-10705.6 106.06c4.68,-6.22 9.43,-12.41 14.26,-18.57l-14.27 -14.96 0.01 33.53zm-1082.03 -1160.96c-5.99,-0.09 -2.2,-0.02 3.27,0.1l-3.27 -0.1zm227.84 2184.18c-3.17,-105.19 -5.72,-230.83 -7.64,-376.85 -33.46,15.62 -70.29,27.91 -110.55,36.84 -18.05,4.02 -35.84,6.92 -53.41,8.77 46.53,93.26 86.17,173.75 118.89,241.49 15.82,32.77 30.39,63.36 43.66,91.76l9.05 -2.01zm-1037.57 -1282.47l-0.09 -0.37c6.95,-1.58 13.86,-3.01 20.75,-4.27l30.81 -6.88c-22.6,-46.59 -46.21,-95.61 -70.8,-147.06l-9.34 -19.55c-0.6,59.64 -1.45,121.69 -2.54,186.15 10.16,-2.94 20.56,-5.62 31.21,-8.02zm-388.46 1200.89l1.48 -29.23 -22.48 4.99c-60.77,13.49 -117.66,16.7 -170.67,9.66 62.94,152.36 119.14,291.9 168.59,418.6l3.64 -0.81c7.37,-158.09 13.87,-292.51 19.44,-403.21zm47.11 2897.01l-0.49 0.24 0.52 0.6 -0.03 -0.84z"/>
   <path class="fil3" d="M5485.1 15125.32c-7.01,-26.56 -11.78,-47.18 -14.27,-61.88 -3.76,-22.05 -3.89,-34.01 -0.43,-35.85 3.46,-1.87 7.66,-3.2 12.55,-4.04 17.15,-2.9 52.52,-2.59 106.05,0.93 51.5,6.36 135.07,8.58 250.7,6.58l166.09 -1.71 10.8 130.5c33.65,316.98 77.73,635.96 132.23,956.96 19.55,115.16 40.53,231.36 62.95,348.55 21.11,94.73 37.71,177.65 49.78,248.69 9.99,58.82 18.35,122.94 25.11,192.38 6.74,69.45 6.07,121.24 -2,155.38 -8.06,34.15 -30.21,78.24 -66.4,132.28 -62.18,108.89 -145.92,187.39 -251.2,235.51 -44.47,20.15 -92.84,35.93 -145.1,47.32 -52.3,11.4 -86.98,18.55 -104.13,21.46 -46.57,7.9 -75.38,9.02 -86.43,3.34 -13.91,-7.74 -69.87,-66.3 -167.86,-175.72 -97.97,-109.4 -147.8,-169.01 -149.46,-178.81 -1.65,-9.8 19.55,-18.45 63.65,-25.94 115.18,-19.55 224.98,-55.83 329.41,-108.86 -0.41,-2.45 1.85,-4.1 6.75,-4.93 46.09,-25.48 67.08,-76.32 62.99,-152.51 -4.14,-76.2 -41.76,-323.79 -112.88,-742.81l-1.26 -7.34c0,0 -0.21,-1.22 -0.62,-3.69l-1.25 -7.34c-0.42,-2.45 -0.63,-3.67 -0.63,-3.67l-0.61 -3.69c0,0 0,0 0,0l-8.11 -47.77c-90.28,-531.72 -145.76,-836.18 -166.42,-913.32zm15215.49 -3163.63c69.43,1.17 140,10.56 211.74,28.14 35.88,8.8 89.51,25.92 160.91,51.35 71.39,25.43 143.45,70.82 216.15,136.18 26.23,22.26 43.83,34.51 52.79,36.71 2.99,0.73 6.16,0.71 9.52,-0.05 3.36,-0.76 9.43,-19.06 18.23,-54.95 6.6,-26.89 12.11,-42.97 16.57,-48.22 4.44,-5.22 8.17,-7.48 11.16,-6.74 2.99,0.73 7.11,3.33 12.35,7.75 14.22,6.66 118.92,51.33 314.1,134.06 195.2,82.73 295.43,126.31 300.67,130.75 0,0 -0.74,3 -2.2,8.97 -5.87,23.91 -29.8,95.69 -71.8,215.31 -57.45,169.69 -147.83,486.6 -271.11,950.68 -108.65,404.32 -182.14,658.82 -220.47,763.49 -38.34,104.68 -91.65,199.33 -159.93,283.99 -54.2,65.95 -133.22,129.74 -237.05,191.43 -103.86,61.65 -200.9,102.04 -291.12,121.12 -173.77,36.63 -365.25,29.28 -574.48,-22.02 -5.99,-1.46 -65.58,-16.86 -178.8,-46.21 -113.22,-29.34 -251.47,-105.23 -414.75,-227.66 -42.69,-32.66 -70.06,-56.78 -82.07,-72.4 -12.01,-15.62 -16.55,-29.42 -13.62,-41.37 0,0 0.37,-1.5 1.1,-4.49 103.87,-139.31 179.09,-258.71 225.67,-358.19 31.06,-62.1 49.58,-92.39 55.57,-90.92 2.99,0.73 27.39,30.47 73.18,89.22 87.08,110.08 202.79,193.91 347.09,251.47 29.17,10.32 58.69,19.15 88.58,26.47 71.74,17.6 147.89,20.43 228.46,8.49 80.57,-11.95 147.57,-49.39 201.01,-112.35 57.93,-68.18 97.88,-147.11 119.86,-236.77 4.4,-17.94 7.31,-36.24 8.7,-54.89 5.81,-36.62 4.22,-56.02 -4.74,-58.21 -5.98,-1.47 -15.28,4.17 -27.9,16.91 -12.65,12.74 -62.39,28.29 -149.25,46.59 -86.9,18.29 -158.7,26.84 -215.44,25.61 -63.44,0.28 -126.56,-7.28 -189.31,-22.66 -65.76,-16.12 -145.41,-49.91 -238.94,-101.37 -93.55,-51.46 -178.27,-135.58 -254.21,-252.43 -145.11,-235.22 -179.58,-508.26 -103.36,-819.12 0.73,-2.97 1.83,-7.46 3.3,-13.44 32.98,-134.53 79.1,-251.54 138.37,-351.09 94.78,-166.89 219.04,-295.64 372.77,-386.3 153.71,-90.63 324.63,-138.25 512.7,-142.84zm352.07 599.66c-46.55,-55.77 -102.7,-91.71 -168.45,-107.83 -17.93,-4.4 -53.96,-9.28 -108.12,-14.62 -54.15,-5.35 -121.02,18.62 -200.64,71.99 -33.51,20.31 -79.21,64.57 -137.12,132.74 -28.93,40.44 -50.39,76.36 -64.44,107.79 -14.05,31.42 -32.79,94.94 -56.24,190.6 -32.25,131.51 -43.73,230.1 -34.49,295.74 26.67,123.78 74.88,217.99 144.6,282.62 23.24,21.53 49.61,36.7 79.13,45.52 29.54,8.83 47.28,13.99 53.27,15.45 44.84,10.99 86.1,14 123.76,8.95 37.66,-5.02 86.48,-23.16 146.43,-54.39 59.95,-31.25 104.75,-62.26 134.48,-93 55.73,-59.2 99.34,-153.09 130.84,-281.61 13.2,-53.81 24.86,-114.32 35.01,-181.54 30.49,-189 4.47,-328.46 -78.02,-418.41zm-2262.53 -990.34c53.1,-1.57 105.55,1.42 157.3,8.97 121.82,17.78 244.95,69.16 369.4,154.19 124.44,85.03 173.1,220.42 146,406.19l-111.99 767.43c-63.18,454.2 -95.73,720.02 -97.71,797.5 -0.57,46.56 -1.97,77.46 -4.2,92.69 -0.44,3.05 -1.76,6.74 -3.94,11.08 -2.19,4.36 -6.34,6.07 -12.42,5.19 -6.09,-0.89 -13.5,-3.53 -22.18,-7.89 -26.97,-7.05 -143.53,-39.61 -349.65,-97.68l-304.62 -86.45 19.13 -67.17c20.7,-77.86 55.13,-244.66 103.35,-500.44 48.22,-255.76 80.31,-438.48 96.31,-548.1 7.55,-51.77 11.8,-91.58 12.76,-119.45 6.38,-86.16 8.28,-141.84 5.74,-167.09 -2.55,-25.26 -15.51,-53.59 -38.92,-85 -30.76,-44.92 -73.56,-71.39 -128.38,-79.39 -100.92,-11.61 -213.08,10.9 -336.42,67.55l-115.74 57.75 -95.98 657.79c-35.11,240.59 -58.98,436.16 -71.61,586.71 -3.77,89.65 -7.86,149.69 -12.31,180.15 -2.21,15.22 -5.07,24.15 -8.56,26.73 0,0 -4.58,-0.66 -13.7,-1.99 -30.46,-4.45 -120.25,-28.44 -269.41,-71.96 -179.17,-51.04 -290.05,-79.67 -332.7,-85.9l-63.96 -9.33 29.04 -103.05c59.92,-240.06 104.74,-456.68 134.48,-649.83 29.76,-193.16 46.39,-301.93 49.95,-326.29 51.55,-353.26 78.87,-615.18 82,-785.78 0.66,-68.34 2.3,-111.65 4.97,-129.92 0.44,-3.04 0.66,-4.56 0.66,-4.56 0,0 1.52,0.22 4.57,0.66 24.36,3.56 175.71,42.75 454.04,117.57 74.37,23.3 120.99,39.43 139.88,48.41 18.9,8.98 30.08,23.05 33.51,42.22 3.4,19.15 8.17,29.17 14.27,30.07 3.05,0.44 7.83,-0.42 14.37,-2.57 6.52,-2.16 50.52,-15.94 132,-41.39 166.42,-53.48 296.64,-82.69 390.67,-87.62zm-3605.83 -208.4l-7.37 -125.18 109.93 19.57c140.42,25.78 250.42,43.83 330.01,54.12 140.9,16.56 214.26,28.09 220.1,34.56 2.92,3.24 3.72,17.14 2.45,41.73 -2.72,52.26 -12.12,144.21 -28.22,275.89 -18.99,128.45 -32.16,263.37 -39.51,404.74 -3.03,58.39 -5.73,154.56 -8.06,288.5 -2.34,133.92 2.34,236.64 14.03,308.12 32.94,137.32 103.2,208.77 210.76,214.36 101.42,5.26 200.45,-32.73 297.16,-114.01l14.55 -13.11c67.72,-58.1 108.46,-115.31 122.17,-171.61 13.7,-56.32 28.13,-230.45 43.31,-522.42 0.15,-3.08 0.23,-4.62 0.23,-4.62l0.24 -4.61c0,0 0.09,-1.54 0.25,-4.62l0.23 -4.59c0,0 0.08,-1.54 0.24,-4.62l0.25 -4.62c0,0 0.07,-1.52 0.23,-4.6l0.47 -9.2c0,0 0,0 0,0l1.44 -27.67c0,0 0,0 0,0l0.25 -4.61 30.37 -673.32 96.33 14.22c85.43,16.79 193.88,34.77 325.4,53.91 159.34,17.51 240.46,27.9 243.38,31.14 2.92,3.22 4.05,11 3.42,23.29 -1.11,21.51 -8.05,65.84 -20.8,132.98 -21.25,112.91 -44.46,411.41 -69.61,895.48 -25.17,484.07 -31.81,760.3 -19.98,828.72 7.32,37.35 10.5,65.26 9.54,83.69 -0.96,18.45 -4.59,29.05 -10.9,31.81 -19.23,14.39 -80.69,25.84 -184.37,34.33 -103.67,8.48 -207.93,13.07 -312.74,13.79l-194.09 -0.85 12.93 -248.95 -77.36 65.34c-54.33,37.23 -127.26,76.58 -218.77,118.04 -91.53,41.47 -168.26,65.23 -230.22,71.26 -40.27,4.06 -81.94,4.98 -124.96,2.75 -55.32,-2.87 -120.99,-14 -197.05,-33.36 -76.04,-19.36 -146.34,-59.99 -210.93,-121.88 -35.43,-29.58 -73.62,-80.1 -114.59,-151.58 -40.98,-71.45 -63.34,-130.41 -67.11,-176.82 -6.34,-55.82 0.45,-305.08 20.37,-747.81 22.64,-494.99 31.5,-784.22 26.6,-867.68zm-768.18 -70.39c66.32,-48.1 110.21,-74.01 131.65,-77.72 24.62,-0.72 71.38,18.71 140.27,58.25 68.89,39.55 128.65,83.24 179.32,131.02 60.21,59.83 90.48,94.34 90.75,103.56 0.8,27.69 -119.51,125.11 -360.95,292.25 -226.41,154.4 -374,266.47 -442.8,336.2l-53.62 61.6 7.94 272.24c10.04,344.55 37.03,636.26 80.94,875.12 7.14,33.68 10.94,58.2 11.38,73.58 0.54,18.45 -2.23,29.32 -8.29,32.57 -2.89,6.24 -13.58,9.62 -32.03,10.17 -30.77,0.89 -80.17,-3.83 -148.19,-14.16 -111.3,-15.22 -233.17,-23.99 -365.62,-26.28l-198.69 -3.44 12.38 -51.17c7.96,-43.32 7.93,-255.78 -0.12,-637.34 -8.03,-381.53 -14.08,-641.52 -18.11,-779.94 -7.98,-273.8 -15.9,-439.83 -23.76,-498.09 -8.58,-82.91 -13.22,-136.64 -13.94,-161.23 -0.27,-9.24 -0.41,-13.86 -0.41,-13.86 0,0 1.54,-0.05 4.62,-0.14 18.46,-0.54 77.18,7 176.14,22.56 123.69,17.95 224.06,28.89 301.15,32.79 104.96,9.27 164.5,19.08 178.67,29.43 14.15,10.37 21.76,34.01 22.83,70.94 0.46,15.37 -0.58,32.35 -3.12,50.89 -2.26,27.79 -3.14,50.89 -2.6,69.34 0.72,24.62 4.15,36.82 10.3,36.65 6.16,-0.18 45.12,-36.73 116.9,-109.61 62.51,-72.65 131.53,-134.72 207.01,-186.18zm-2051.88 1660.46c25.59,-21.28 38.87,-42.04 39.82,-62.27 0.95,-20.22 -4.99,-76.06 -17.79,-167.55l-24.56 -187.74 -103.64 29.58c-190.99,66.7 -302.05,157.42 -333.21,272.13 -18.64,57.68 -15.68,114.64 8.84,170.83 24.53,56.19 57.19,86.78 97.93,91.73 50.6,10.09 107.66,0.94 171.18,-27.46 63.51,-28.41 117.33,-68.14 161.43,-119.25zm-479.48 -1499.62c214.51,-78.49 416.95,-88.38 607.33,-29.67 190.37,58.72 320.97,174.06 391.85,346.05 23.23,43.96 56.5,226.13 99.78,546.48 43.6,323.44 73.65,504.38 90.12,542.89 31.18,89.52 91.11,129.58 179.88,120.17 55.08,-5.85 90.76,-4.99 107.03,2.56 16.26,7.54 17.01,29.13 2.23,64.75 -22.34,51.9 -68.8,117.16 -139.37,195.84 -70.57,78.68 -133.47,134.86 -188.69,168.58 -46.38,29.68 -81.46,48.89 -105.29,57.62 -23.83,8.7 -49.84,11.47 -78.05,8.26 -114.21,2.84 -217.66,-38.79 -310.37,-124.88l-56.83 -54.32 -55.29 47.65c-39.27,38.22 -99.81,80.23 -181.61,126.03 -58.59,30.97 -104.95,53.71 -138.99,68.15 -34.06,14.45 -87.64,27.09 -160.77,37.96 -76.19,11.17 -128.97,16.77 -158.37,16.8 -29.41,0.02 -71.42,-9.44 -126.03,-28.41 -234.15,-77.27 -356.46,-253.07 -367.03,-527.4 -5.68,-228.43 103.23,-427.22 326.67,-596.4 46.37,-29.68 117.23,-68.94 212.64,-117.73 95.4,-48.8 176.13,-82.92 242.16,-102.3 8.85,-4.04 32.08,-11.15 69.69,-21.33 37.6,-10.17 65.42,-17.77 83.46,-22.77l103.65 -29.58 -17.97 -81.64c-39.28,-166.06 -121.89,-244.71 -247.85,-236 -125.98,8.73 -272.32,102.41 -439.05,281.05 -32.19,46.75 -54.23,72.28 -66.16,76.64 -11.91,4.37 -23.11,0.91 -33.6,-10.37 -35.47,-42.65 -119.14,-131.25 -251.02,-265.79l-61.93 -58.43 51.21 -42.59c74.03,-60.48 181.17,-129.86 321.43,-208.19 140.23,-78.32 238.64,-128.23 295.14,-149.68zm-1939.73 -647.24c-2,-8.99 -1.07,-15.52 2.77,-19.52 3.83,-4.02 10.25,-7.03 19.26,-9.02 3,-0.68 9.92,-1.44 20.79,-2.27 10.85,-0.84 27.47,-0.59 49.83,0.73 22.35,1.33 54.72,5.18 97.12,11.51 81.8,13.33 194.78,18.14 339,14.43 132.19,-1.02 199.95,-1.14 203.29,-0.31 3.34,0.84 5.35,2.76 6.01,5.75 2.69,12.03 0.35,44.09 -6.99,96.13 -14.3,176.62 -22.1,584.28 -23.44,1223.02 -1.32,638.76 4.05,1098.66 16.13,1379.72l17.62 227.82 -365.01 81.24c0,0 -1.49,0.32 -4.5,0.99 0,0 -1.51,0.34 -4.52,1 0,0 -1.49,0.34 -4.5,1.01 0,0 0,0 0,0l-4.52 1c0,0 0,0 0,0l-45.06 10.03c-147.18,32.75 -235.64,46.12 -265.34,40.12 -29.73,-5.99 -57.11,-44.03 -82.17,-114.14 -6.34,-14.34 -12.03,-25.69 -17.03,-34.05 -35.74,-89.79 -140.96,-307.57 -315.62,-653.35 -174.68,-345.76 -269.38,-523.32 -284.07,-532.67 -0.66,-3 -2.49,-4.17 -5.5,-3.49 -3.01,0.67 -5.85,9.18 -8.52,25.54 -1.66,6.66 -2.32,17.85 -1.98,33.53 -1,38.05 -7.48,157.74 -19.43,359.02 -11.97,201.29 -27.41,507.42 -46.31,918.34l-8.47 195.78 -310.93 69.18c-201.27,44.78 -314.75,73.19 -340.45,85.2 -5.34,4.36 -9.52,6.85 -12.51,7.53 -12.03,2.66 -21.63,-1.5 -28.81,-12.51 -7.18,-11 -22.62,-48.58 -46.34,-112.65 -142.97,-387.51 -370.3,-934.41 -681.92,-1640.68 -244.18,-544.69 -391.49,-880.79 -441.91,-1008.31l-21.06 -52.07 138.19 -16.56c83.13,-9.04 205.64,-25.26 367.52,-48.66l222.8 -40.13 16.55 53.08c20.03,61.75 89.19,245 207.44,549.71 118.26,304.76 195.1,494.16 230.51,568.28 19.68,46.04 59.45,139.66 119.23,280.86 33.74,80.77 56.62,119.81 68.63,117.14 5.34,-4.34 10.84,-15.03 16.51,-32.06 5.66,-45.4 12.06,-232.82 19.14,-562.32 7.07,-329.46 8.59,-588.31 4.53,-776.59l-6.08 -239.83 181.76 -54.63c85.77,-25.4 157.21,-44.45 214.29,-57.15 21.03,-4.68 39.04,-8.68 54.05,-12.03l91.15 -15.54 119.74 261.85c108.57,246.97 238.31,518.41 389.29,814.3 150.96,295.86 232.44,442.48 244.45,439.81 12.02,-2.67 16.02,-27.2 12,-73.6 0.34,-12.7 -1.26,-37.57 -4.78,-74.63 -3.5,-37.05 -6.1,-87.69 -7.79,-151.97 -1.7,-64.26 -3.03,-119.91 -4.06,-166.97 -20.91,-774.1 -44.22,-1226.08 -69.98,-1355.94zm13665.37 6143.64c24.49,-11.06 39.28,-24.36 44.38,-39.92 5.09,-15.52 12.48,-60.28 22.17,-134.26l21.25 -151.41 -87.03 0.75c-163.01,10.84 -268.98,57.58 -317.9,140.19 -26.91,40.88 -36.86,85.85 -29.85,134.87 7.03,49.03 25.86,79.86 56.52,92.47 37.22,18.74 83.59,23.87 139.15,15.43 55.55,-8.45 105.98,-27.82 151.31,-58.12zm-50.81 -1270.47c183.86,-14.97 343.58,20.87 479.14,107.48 135.58,86.64 212.46,204.52 230.66,353.64 8.62,39.21 -4.65,188.17 -39.85,446.87 -35.61,261.14 -51.11,408.47 -46.58,441.98 5.01,76.39 43.06,120.47 114.19,132.23 44.14,7.29 71.74,15.62 82.78,25.01 11.05,9.37 6.98,26.32 -12.2,50.87 -28.54,35.6 -78.75,76.42 -150.6,122.49 -71.84,46.06 -132.89,76.29 -183.14,90.66 -42.45,13.14 -73.91,20.54 -94.35,22.2 -20.42,1.66 -41.25,-1.79 -62.53,-10.34 -89.51,-22.35 -161.1,-76.99 -214.75,-163.96l-32.55 -54.49 -53.3 25.19c-38.79,21.31 -94.93,41.01 -168.46,59.07 -52.3,11.52 -93.24,19.25 -122.85,23.18 -29.62,3.91 -74.06,2.22 -133.31,-5.03 -61.71,-7.69 -104.02,-14.67 -126.91,-20.98 -22.89,-6.3 -53.56,-22.7 -92,-49.2 -165.64,-110.5 -223.07,-273.67 -172.3,-489.48 44.69,-179.05 172.22,-310.38 382.52,-394.01 42.47,-13.14 106.08,-28.47 190.85,-45.95 84.77,-17.47 154.94,-26.68 210.49,-27.56 7.76,-1.24 27.38,-1.77 58.85,-1.61 31.46,0.16 54.75,0.24 69.85,0.19l87.06 -0.72 3.58 -67.41c5.11,-137.71 -42.28,-216.71 -142.21,-237.01 -99.95,-20.3 -234,21.18 -402.21,124.38 -35.1,29.46 -57.77,44.61 -67.96,45.45 -10.22,0.83 -18.19,-4.27 -23.94,-15.3 -18.45,-40.83 -64.52,-127.81 -138.26,-260.9l-35.64 -58.79 49.01 -22.14c70.65,-31.15 168.96,-62.16 294.98,-92.97 126.02,-30.79 213.34,-48.49 261.94,-53.04zm-1326.61 -593.89l49.57 -463.51 57.69 18.85c227.12,64.92 367.79,100.94 422,108.07 46.81,6.14 72.74,13.93 77.77,23.37 5.04,9.45 6.42,22.79 4.15,40.04 -1.94,14.78 -5.61,33.1 -10.97,54.95 -24.61,92.02 -62.39,288.86 -113.29,590.51 -50.91,301.65 -88.64,546.11 -113.23,733.4 -60.85,463.29 -85.14,772.18 -72.83,926.71 4.68,40.73 5.89,69.72 3.62,86.97 -1.61,12.32 -5.06,19.38 -10.29,21.22 -5.9,6.73 -39.66,6.07 -101.27,-2.03 -34.5,-4.53 -102.57,-15.97 -204.18,-34.33 -101.62,-18.36 -170.1,-36.15 -205.46,-53.32 -23.35,-13.08 -37.44,-24.98 -42.31,-35.62 -4.87,-10.66 -7.17,-36.05 -6.94,-76.13l2.33 -74.88 -89.1 48.45c-98.42,62.29 -186.43,97.73 -264.01,106.34 -77.59,8.61 -138.56,10 -182.9,4.17 -51.76,-6.79 -100.08,-20.65 -144.97,-41.59 -75.92,-32.55 -144.53,-82.89 -205.75,-151.1 -61.25,-68.21 -104.26,-141.55 -129.04,-220.01 -41.46,-123.26 -51.38,-267.45 -29.69,-432.55 2.26,-17.26 11.9,-76.14 28.87,-176.7 16.96,-100.56 65.89,-210.7 146.78,-330.43 54.39,-70.55 129.03,-137.85 223.94,-201.84 94.87,-64 184.75,-104.19 269.64,-120.62 90.14,-18.24 183.25,-21.04 279.35,-8.43 96.12,12.63 176.72,38.25 241.85,76.87 30.42,16.55 49.3,25.3 56.71,26.27 4.91,0.65 13.7,-47.1 26.32,-143.21 9.71,-73.92 21.58,-173.9 35.64,-299.89zm-266.36 739.6c-30.74,-14.06 -62.13,-23.2 -94.16,-27.41 -46.82,-6.14 -93.71,-2.27 -140.65,11.62 -147.71,55.8 -235.79,192.13 -264.28,409 -26.86,204.54 -6.08,332.59 62.34,384.2 68.43,51.61 122.35,80 161.79,85.18 81.3,10.67 172.75,-17.43 274.28,-84.32l61.76 -40.76 95.67 -585.3 -51.87 -63.23c-29.33,-43.95 -64.28,-73.61 -104.88,-88.98zm-1744.85 -596.89c42.76,-3.37 85.19,-3.05 127.24,1 98.96,9.53 200.32,46.14 304.05,109.8 103.74,63.67 148.34,170.95 133.81,321.89l-60.01 623.42c-33,368.87 -48.78,584.58 -47.31,647.15 1.37,37.58 1.48,62.57 0.29,74.94 -0.25,2.47 -1.16,5.51 -2.76,9.09 -1.6,3.61 -4.87,5.15 -9.81,4.68 -4.96,-0.49 -11.03,-2.32 -18.2,-5.49 -22.03,-4.62 -117.32,-26.28 -285.88,-64.97l-249.15 -57.7 12.79 -54.95c13.59,-63.62 34.8,-199.54 63.6,-407.76 28.77,-208.2 47.46,-356.85 56.02,-445.91 4.05,-42.06 5.91,-74.34 5.57,-96.85 1.73,-69.76 1.07,-114.76 -1.96,-135.02 -3.07,-20.28 -14.64,-42.59 -34.76,-67.01 -26.59,-35.02 -62.15,-54.66 -106.69,-58.95 -81.87,-5.38 -171.45,17.2 -268.7,67.77l-91.08 51.15 -51.43 534.37c-18.82,195.46 -30.35,354.15 -34.6,476.1 0.52,72.44 -0.41,121.06 -2.78,145.8 -1.19,12.36 -3.16,19.68 -5.87,21.89 0,0 -3.71,-0.35 -11.12,-1.07 -24.75,-2.39 -98.14,-18.17 -220.17,-47.4 -146.53,-34.09 -237.11,-52.79 -271.76,-56.13l-51.94 -5.01 19.35 -84.28c38.84,-195.98 66.44,-372.48 82.8,-529.49 16.37,-156.97 25.49,-245.36 27.4,-265.16 27.63,-286.96 39.32,-499.32 35.09,-637.05 -2.17,-55.15 -2.55,-90.14 -1.13,-105 0.24,-2.46 0.36,-3.71 0.36,-3.71 0,0 1.24,0.13 3.72,0.37 19.8,1.9 143.41,27.52 370.89,76.89 60.9,15.85 99.15,27.03 114.74,33.52 15.62,6.5 25.16,17.41 28.68,32.74 3.52,15.32 7.76,23.2 12.72,23.67 2.48,0.24 6.3,-0.64 11.48,-2.63 5.18,-1.99 40.12,-14.86 104.83,-38.58 132.13,-49.73 236.04,-78.43 311.68,-86.12zm-2811.56 -122.28l-4.92 -101.17 88.6 16.71c113.19,21.97 201.87,37.47 266.06,46.45 113.64,14.53 172.8,24.45 177.45,29.71 2.33,2.64 2.89,13.88 1.66,33.73 -2.63,42.16 -10.99,116.34 -25.08,222.56 -16.39,103.57 -28.14,212.4 -35.24,326.51 -2.93,47.12 -5.91,124.77 -8.9,232.9 -2.99,108.14 -0.06,191.12 8.78,248.94 25.48,111.17 81.63,169.45 168.43,174.86 81.87,5.09 162.17,-24.79 240.91,-89.62l11.85 -10.46c55.19,-46.37 88.55,-92.24 100.09,-137.59 11.54,-45.36 24.62,-185.87 39.29,-421.51 0.16,-2.49 0.23,-3.71 0.23,-3.71l0.24 -3.74c0,0 0.07,-1.24 0.22,-3.71l0.23 -3.72c0,0 0.08,-1.24 0.24,-3.71l0.23 -3.73c0,0 0.08,-1.25 0.24,-3.72l0.45 -7.44c0,0 0,0 0,0l1.4 -22.33c0,0 0,0 0,0l0.23 -3.73 30.08 -543.48 77.67 12.29c68.85,14.25 156.28,29.67 262.34,46.21 128.51,15.46 193.97,24.52 196.3,27.16 2.31,2.62 3.17,8.92 2.55,18.83 -1.07,17.36 -7.03,53.09 -17.88,107.22 -18.11,91 -39.32,331.86 -63.63,722.54 -24.3,390.71 -31.96,613.74 -22.95,669.09 5.6,30.23 7.93,52.8 6.99,67.67 -0.92,14.88 -3.94,23.4 -9.06,25.59 -15.65,11.47 -65.38,20.21 -149.17,26.22 -83.8,5.97 -168.01,8.83 -252.67,8.55l-156.75 -2.29 12.5 -200.94 -63 52.1c-44.19,29.63 -103.41,60.82 -177.64,93.54 -74.25,32.73 -136.42,51.3 -186.52,55.64 -32.54,2.96 -66.18,3.34 -100.91,1.19 -44.67,-2.79 -97.6,-12.31 -158.85,-28.56 -61.26,-16.26 -117.71,-49.65 -169.34,-100.19 -28.36,-24.17 -58.8,-65.28 -91.29,-123.32 -32.5,-58.08 -50.09,-105.84 -52.73,-143.37 -4.66,-45.11 2.88,-246.36 22.62,-603.71 22.38,-399.54 31.92,-633.03 28.65,-700.46zm-1351.94 -806.59c57.47,-10.89 130.94,-15.16 220.37,-12.79 29.83,0.81 60.85,2.86 93.07,6.21 129.14,5.94 233.09,23.61 311.88,53.06 231.42,85.73 363.23,224.73 395.39,417.05 6.55,34.97 9.35,69.85 8.42,104.63 -2.05,77.03 -26.76,164.64 -74.12,262.82 -47.38,98.21 -122.86,178.24 -226.44,240.13l-37.97 25.09 62.55 31.5c39.17,23.42 86.59,63.23 142.28,119.41 99.3,99.6 154.59,193.68 165.91,282.25 11.3,88.57 16.54,149.01 15.67,181.3 -2.84,106.84 -35,217.24 -96.43,331.22 -61.48,113.98 -157.67,201.53 -288.59,262.7 -52.76,20.97 -126.71,42.61 -221.78,64.95 -97.63,24.76 -222.21,35.11 -373.78,31.08 -22.36,-0.61 -44.71,-1.19 -67.07,-1.79 -79.5,-2.12 -159.53,-7.98 -240.09,-17.57 -80.56,-9.61 -218.53,-33.18 -413.96,-70.7 -22.23,-5.58 -35.16,-9.64 -38.82,-12.22 -3.68,-2.6 -5.42,-6.36 -5.29,-11.34 0.13,-4.95 1.53,-11.13 4.22,-18.53 27.56,-101.21 54.91,-288.21 82.06,-560.96 16.77,-163.65 28.55,-372.17 35.3,-625.6 2.24,-84.47 4.64,-244.16 7.17,-479.05 2.52,-234.9 -4.77,-404.78 -21.87,-509.67l-6.45 -37.45 119.53 -8.02c102.15,-7.2 251.76,-23.11 448.84,-47.71zm364.79 446.06c-39.36,-15.97 -95.06,-24.92 -167.11,-26.82 -42.23,-1.13 -91.98,0.03 -149.26,3.47l-56.02 2.23 -10.62 119.07c-9.71,84.28 -15.53,162.46 -17.45,234.5 -0.45,17.39 -0.78,52.81 -0.95,106.26 -0.18,53.46 4.7,80.31 14.63,80.57 7.45,0.21 62.42,-9.51 164.88,-29.17 119.91,-21.67 205.35,-54.81 256.25,-99.47 50.9,-44.64 77.39,-105.47 79.44,-182.49 2.66,-99.38 -35.27,-168.77 -113.79,-208.15zm-80.9 937.67c-29.7,-5.76 -71.22,-9.97 -124.61,-12.64 -53.37,-2.67 -87.53,-4.2 -102.44,-4.59 -59.62,-1.59 -93.24,0.01 -100.83,4.76 -2.53,2.42 -4.44,27.25 -5.7,74.43 -0.92,34.8 -1.45,101.29 -1.58,199.48 -0.14,98.23 2.58,183.45 8.11,255.7l5.38 78.46 55.89 1.48c84.47,2.26 170.67,-13.48 258.59,-47.19 87.9,-33.72 146.13,-72.56 174.66,-116.55 25.84,-36.6 39.64,-88.44 41.43,-155.54 1.79,-67.09 -8.09,-115.82 -29.66,-146.22 -45.55,-63.39 -105.3,-107.24 -179.24,-131.58zm-1823.06 -721.69c42.19,-7.82 84.41,-11.91 126.65,-12.28 99.42,-0.86 204.04,24.95 313.87,77.45 109.81,52.49 165.36,154.51 166.68,306.14l5.41 626.28c5.71,370.31 12.56,586.49 20.53,648.56 5.3,37.23 8.01,62.07 8.11,74.49 0.03,2.48 -0.55,5.61 -1.77,9.33 -1.22,3.76 -4.31,5.63 -9.28,5.68 -4.97,0.04 -11.21,-1.15 -18.67,-3.55 -22.38,-2.3 -119.44,-13.89 -291.11,-34.76l-253.8 -31.38 6.97 -55.98c6.88,-64.69 13.77,-202.09 20.66,-412.17 6.88,-210.08 9.95,-359.85 9.17,-449.31 -0.37,-42.25 -1.89,-74.55 -4.58,-96.9 -5.55,-69.55 -10.92,-114.24 -16.05,-134.08 -5.17,-19.84 -19,-40.84 -41.58,-63.03 -30.09,-32.05 -67.5,-47.87 -112.25,-47.49 -81.99,3.2 -168.72,35.02 -260.15,95.46l-85.24 60.4 4.64 536.81c1.71,196.36 6.82,355.39 15.33,477.09 8.07,72.01 12.23,120.46 12.44,145.31 0.11,12.42 -1.08,19.9 -3.54,22.39 0,0 -3.72,0.03 -11.17,0.09 -24.86,0.22 -99.49,-7.82 -223.91,-24.15 -149.3,-18.6 -241.34,-27.74 -276.15,-27.44l-52.18 0.45 10.44 -85.83c18.17,-199 27.19,-377.4 27.07,-535.26 -0.11,-157.83 -0.27,-246.68 -0.45,-266.57 -2.49,-288.27 -13.04,-500.7 -31.62,-637.23 -7.9,-54.63 -11.95,-89.39 -12.07,-104.3 -0.03,-2.48 -0.04,-3.73 -0.04,-3.73 0,0 1.24,-0.01 3.74,-0.03 19.87,-0.17 145.49,12.41 376.88,37.74 62.21,9.4 101.43,16.52 117.62,21.36 16.19,4.83 26.83,14.68 31.94,29.55 5.1,14.87 10.13,22.27 15.1,22.22 2.5,-0.01 6.21,-1.27 11.16,-3.81 4.94,-2.52 38.35,-18.96 100.22,-49.34 126.21,-63.23 226.55,-102.64 300.98,-118.18zm-1777.11 1300.04c21.75,-15.82 33.53,-31.83 35.36,-48.1 1.83,-16.23 -0.03,-61.56 -5.56,-135.97l-9.96 -152.57 -85.06 18.41c-157.41,43.73 -251.68,111.01 -282.8,201.84 -18.05,45.5 -18.64,91.55 -1.82,138.13 16.82,46.56 41.53,72.93 74.12,79.06 40.24,10.79 86.7,6.39 139.38,-13.16 52.69,-19.56 98.12,-48.77 136.34,-87.64zm-307.81 -1233.67c177,-52.02 340.65,-49.36 490.99,7.94 150.35,57.29 249.56,157.1 297.68,299.42 16.41,36.63 33.67,185.19 51.75,445.62 18.19,262.93 32.93,410.33 44.18,442.21 20.41,73.8 66.64,109.23 138.67,106.3 44.69,-1.82 73.42,0.73 86.13,7.67 12.72,6.93 12.17,24.36 -1.61,52.29 -20.72,40.64 -61.6,90.83 -122.58,150.53 -61,59.7 -114.63,101.69 -160.9,125.96 -38.92,21.5 -68.21,35.14 -87.88,40.91 -19.65,5.77 -40.77,6.63 -63.34,2.57 -92.17,-3.7 -173.37,-42.66 -243.57,-116.91l-42.94 -46.74 -47.06 35.49c-33.66,28.74 -84.64,59.42 -152.96,92.05 -48.87,21.9 -87.39,37.78 -115.59,47.64 -28.19,9.85 -72.05,17.24 -131.55,22.16 -61.98,5.01 -104.83,6.76 -128.51,5.25 -23.7,-1.53 -57.07,-11.35 -100.08,-29.5 -184.65,-74.55 -274.02,-222.64 -268.14,-444.28 7.39,-184.39 105.58,-338.89 294.51,-463.5 38.91,-21.5 98.1,-49.42 177.54,-83.75 79.44,-34.32 146.28,-57.58 200.52,-69.72 7.33,-2.8 26.44,-7.3 57.28,-13.53 30.84,-6.24 53.66,-10.9 68.44,-14l85.09 -18.39 -10.19 -66.74c-22.95,-135.87 -85.41,-203.61 -187.4,-203.18 -101.96,0.44 -224.82,68.26 -368.55,203.48 -28.38,35.97 -47.5,55.42 -57.31,58.31 -9.84,2.9 -18.67,-0.49 -26.55,-10.12 -26.35,-36.23 -89.13,-112.03 -188.37,-227.37l-46.83 -50.32 43.49 -31.65c62.84,-44.84 152.81,-95.16 269.95,-150.93 117.12,-55.78 199.04,-90.84 245.69,-105.17zm-1777.56 99.43c46.35,-13.37 96.82,-22.07 151.34,-26.07 47.11,-3.46 112.62,-2.04 196.56,4.25 83.96,6.28 168.48,28.73 253.53,67.33 72.16,32.1 140.92,77.52 206.3,136.25 65.36,58.75 119.27,122.69 161.74,191.85 39.98,69.36 69.02,133.87 87.13,193.6 18.08,59.7 30.59,136.68 37.51,230.88 0.18,2.46 0.46,6.17 0.83,11.14 18.58,252.83 -53.06,464.95 -214.92,636.33 -154.78,165.89 -353.66,257.76 -596.56,275.6 -260.45,16.65 -474.87,-52.34 -643.22,-206.94 -168.37,-154.6 -261.2,-349.65 -278.51,-585.13 -1.45,-19.84 -2.81,-38.42 -4.09,-55.77 -0.26,-206.82 58.49,-391.18 176.18,-553.1 117.69,-161.91 273.08,-268.64 466.18,-320.22zm284.68 364.11c-47.82,-6.45 -81.04,-8.99 -99.62,-7.62 -18.6,1.36 -45.92,10.83 -82.02,28.45 -82.09,35.94 -148.09,104.33 -198,205.18 -18.86,48.73 -29.76,86.91 -32.7,114.55 -2.95,27.63 -4.18,78.81 -3.67,153.54 -0.66,24.98 -0.18,48.61 1.47,70.91 5.45,74.38 19.85,134.38 43.13,180.02 47.29,101.19 104.94,164.88 172.91,191.03 67.95,26.15 123.02,37.69 165.15,34.59 47.11,-3.46 94.53,-19.41 142.27,-47.85 48.12,-23.45 82.33,-49.66 102.63,-78.56 20.32,-28.92 43.16,-74.19 68.53,-135.88 16.73,-43.58 26.61,-78.57 29.66,-104.98 3.06,-26.39 1.76,-78.01 -3.88,-154.84 -5.47,-74.37 -12.35,-125.58 -20.65,-153.63 -8.29,-28.04 -22.48,-60.03 -42.56,-95.91 -26.13,-50.42 -62.33,-93.86 -108.64,-130.34 -46.3,-36.47 -90.95,-59.36 -134.01,-68.66zm-2291.19 -162.34c53.02,-18.28 109.17,-30.65 168.46,-37.11 29.67,-3.24 75.1,-5.07 136.32,-5.48 61.18,-0.43 128.41,14.14 201.63,43.66 26.06,9.65 42.79,14.08 50.2,13.27 2.46,-0.26 4.88,-1.14 7.21,-2.65 2.34,-1.5 1.9,-17.07 -1.33,-46.73 -2.42,-22.25 -2.67,-35.97 -0.75,-41.18 1.94,-5.19 4.14,-7.95 6.6,-8.21 2.48,-0.28 6.32,0.56 11.51,2.49 12.64,1.12 104.43,6.12 275.43,14.99 170.97,8.87 259.06,14.27 264.27,16.21 0,0 0.28,2.46 0.81,7.39 2.15,19.77 3.8,80.86 4.97,183.24 3.27,144.64 22.17,410.08 56.8,796.32 29.2,336.87 43.69,550.3 43.51,640.33 -0.19,90.02 -14.5,176.57 -42.96,259.68 -22.92,65.01 -65.27,135.26 -127.04,210.73 -61.79,75.48 -124.27,132.94 -187.48,172.33 -121.74,75.78 -269.1,123.09 -442.06,141.93 -4.94,0.54 -54.43,5.31 -148.45,14.31 -94.02,8.99 -219.9,-10.42 -377.64,-58.23 -41.4,-13.01 -68.83,-23.75 -82.25,-32.28 -13.44,-8.55 -20.7,-17.77 -21.77,-27.64 0,0 -0.13,-1.24 -0.41,-3.71 40.36,-134.4 64.46,-245.79 72.35,-334.17 6.42,-55.7 12.11,-83.81 17.05,-84.35 2.48,-0.27 29.2,15.57 80.19,47.51 96.49,59.49 207.44,91.16 332.86,94.99 24.98,-0.22 49.83,-1.67 74.54,-4.37 59.3,-6.47 117.87,-25.34 175.71,-56.65 57.85,-31.31 98.36,-78.23 121.54,-140.76 25.13,-67.75 33.65,-138.67 25.57,-212.79 -1.62,-14.83 -4.46,-29.51 -8.55,-44.07 -5.71,-29.39 -12.28,-43.68 -19.68,-42.87 -4.95,0.54 -10.45,7.39 -16.5,20.55 -6.09,13.17 -39.54,38.7 -100.42,76.58 -60.89,37.88 -113.01,64.19 -156.42,78.91 -48.05,17.73 -98.05,29.44 -149.93,35.1 -54.35,5.92 -124.13,2.29 -209.34,-10.94 -85.17,-13.22 -172.72,-53.68 -262.62,-121.39 -175.09,-138.44 -276.63,-336.13 -304.63,-593.09 -0.28,-2.48 -0.67,-6.17 -1.22,-11.13 -12.11,-111.18 -9.43,-212.74 8.06,-304.64 25.84,-152.83 84.57,-284.85 176.21,-396.1 91.63,-111.22 208.19,-194.56 349.65,-249.98zm432.79 357.87c-50.73,-29.47 -103.26,-41.25 -157.61,-35.32 -14.82,1.61 -43.51,7.84 -86.08,18.74 -42.59,10.89 -86.7,47.56 -132.4,110.03 -19.81,24.68 -42.27,70.88 -67.4,138.62 -10.8,38.67 -17.16,71.87 -19.14,99.59 -2,27.72 1.33,81.11 9.94,160.17 11.85,108.72 30.36,186.72 55.51,233.97 54.42,86.59 117.01,144.76 187.79,174.56 23.57,9.93 47.78,14.17 72.64,12.69 24.84,-1.45 39.71,-2.43 44.67,-2.98 37.06,-4.03 69.2,-13.15 96.39,-27.38 27.21,-14.22 59.23,-41.46 96.12,-81.73 36.85,-40.27 62.31,-76.17 76.37,-107.7 25.93,-60.33 33.1,-143.62 21.53,-249.85 -4.85,-44.48 -12.7,-93.62 -23.56,-147.46 -29.04,-151.83 -87.32,-250.5 -174.77,-295.95zm-1709.08 1056.68c20.04,-17.92 30.13,-35.05 30.32,-51.41 0.17,-16.34 -6.24,-61.25 -19.25,-134.72l-25.31 -150.77 -82.77 26.88c-152.19,59.41 -239.19,135.86 -260.98,229.35 -13.36,47.09 -9.31,92.98 12.13,137.62 21.44,44.62 48.69,68.37 81.71,71.17 41.14,6.67 86.91,-2.38 137.36,-27.16 50.43,-24.77 92.7,-58.43 126.79,-100.96zm-430.75 -1196.3c170.84,-69.61 333.92,-83.48 489.28,-41.65 155.37,41.82 264.15,131.1 326.38,267.83 20.02,34.8 52.18,180.85 96.47,438.14 44.62,259.75 74.16,404.91 88.57,435.5 27.77,71.35 77.32,101.94 148.7,91.74 44.27,-6.32 73.1,-6.67 86.46,-1.05 13.35,5.62 14.58,23.01 3.68,52.19 -16.52,42.52 -52.12,96.57 -106.76,162.13 -54.67,65.55 -103.79,112.74 -147.37,141.56 -36.55,25.3 -64.32,41.84 -83.3,49.57 -18.98,7.71 -39.89,10.71 -62.75,8.95 -92.09,5.63 -176.81,-24.95 -254.14,-91.74l-47.44 -42.17 -43.23 40.06c-30.6,32 -78.2,67.67 -142.89,107.03 -46.4,26.72 -83.13,46.4 -110.19,59.06 -27.07,12.65 -69.96,24.41 -128.65,35.33 -61.15,11.23 -103.61,17.3 -127.32,18.18 -23.73,0.87 -57.93,-5.53 -102.54,-19.24 -191.24,-55.54 -295.09,-193.86 -311.61,-414.95 -11.26,-184.2 70.82,-347.81 246.22,-490.87 36.54,-25.29 92.61,-59.05 168.18,-101.23 75.57,-42.16 139.73,-72.05 192.45,-89.62 7.03,-3.52 25.58,-9.93 55.63,-19.26 30.05,-9.31 52.29,-16.24 66.68,-20.82l82.8 -26.88 -16.88 -65.38c-36.55,-132.85 -105.53,-193.93 -206.94,-183.23 -101.41,10.74 -216.78,90.62 -346.13,239.65 -24.61,38.66 -41.67,59.92 -51.14,63.79 -9.49,3.87 -18.62,1.41 -27.42,-7.39 -29.89,-33.38 -100.01,-102.45 -210.36,-207.19l-51.68 -45.35 40.08 -35.87c57.98,-50.96 142.43,-110.1 253.33,-177.39 110.89,-67.31 188.86,-110.46 233.83,-129.43z"/>
  </g>
 </g>
</svg>
