<svg xmlns="http://www.w3.org/2000/svg" xmlns:xlink="http://www.w3.org/1999/xlink" width="1080" zoomAndPan="magnify" viewBox="0 0 810 809.999993" height="1080" preserveAspectRatio="xMidYMid meet" version="1.0"><defs><g/><clipPath id="80f452066b"><path d="M 222 195 L 591 195 L 591 492 L 222 492 Z M 222 195 " clip-rule="nonzero"/></clipPath></defs><rect x="-81" width="972" fill="#ffffff" y="-80.999999" height="971.999992" fill-opacity="1"/><rect x="-81" width="972" fill="#ffffff" y="-80.999999" height="971.999992" fill-opacity="1"/><g fill="#000000" fill-opacity="1"><g transform="translate(211.363061, 614.155555)"><g><path d="M 27.09375 -20.859375 C 29.394531 -20.429688 31.28125 -19.285156 32.75 -17.421875 C 34.226562 -15.554688 34.96875 -13.421875 34.96875 -11.015625 C 34.96875 -8.835938 34.429688 -6.921875 33.359375 -5.265625 C 32.296875 -3.617188 30.753906 -2.328125 28.734375 -1.390625 C 26.710938 -0.460938 24.320312 0 21.5625 0 L 4.015625 0 L 4.015625 -40.6875 L 20.8125 -40.6875 C 23.5625 -40.6875 25.9375 -40.238281 27.9375 -39.34375 C 29.945312 -38.445312 31.460938 -37.203125 32.484375 -35.609375 C 33.515625 -34.015625 34.03125 -32.207031 34.03125 -30.1875 C 34.03125 -27.820312 33.398438 -25.84375 32.140625 -24.25 C 30.878906 -22.65625 29.195312 -21.523438 27.09375 -20.859375 Z M 12.1875 -23.890625 L 19.640625 -23.890625 C 21.585938 -23.890625 23.082031 -24.328125 24.125 -25.203125 C 25.175781 -26.078125 25.703125 -27.332031 25.703125 -28.96875 C 25.703125 -30.59375 25.175781 -31.851562 24.125 -32.75 C 23.082031 -33.644531 21.585938 -34.09375 19.640625 -34.09375 L 12.1875 -34.09375 Z M 20.390625 -6.640625 C 22.378906 -6.640625 23.925781 -7.101562 25.03125 -8.03125 C 26.132812 -8.96875 26.6875 -10.289062 26.6875 -12 C 26.6875 -13.75 26.101562 -15.117188 24.9375 -16.109375 C 23.78125 -17.097656 22.207031 -17.59375 20.21875 -17.59375 L 12.1875 -17.59375 L 12.1875 -6.640625 Z M 20.390625 -6.640625 "/></g></g></g><g fill="#000000" fill-opacity="1"><g transform="translate(248.835443, 614.155555)"><g><path d="M 1.921875 -16.265625 C 1.921875 -19.523438 2.570312 -22.414062 3.875 -24.9375 C 5.175781 -27.46875 6.941406 -29.410156 9.171875 -30.765625 C 11.410156 -32.128906 13.910156 -32.8125 16.671875 -32.8125 C 19.078125 -32.8125 21.179688 -32.320312 22.984375 -31.34375 C 24.796875 -30.375 26.242188 -29.15625 27.328125 -27.6875 L 27.328125 -32.28125 L 35.546875 -32.28125 L 35.546875 0 L 27.328125 0 L 27.328125 -4.71875 C 26.285156 -3.207031 24.835938 -1.953125 22.984375 -0.953125 C 21.140625 0.0351562 19.015625 0.53125 16.609375 0.53125 C 13.890625 0.53125 11.410156 -0.164062 9.171875 -1.5625 C 6.941406 -2.96875 5.175781 -4.941406 3.875 -7.484375 C 2.570312 -10.035156 1.921875 -12.960938 1.921875 -16.265625 Z M 27.328125 -16.140625 C 27.328125 -18.117188 26.9375 -19.816406 26.15625 -21.234375 C 25.382812 -22.660156 24.335938 -23.75 23.015625 -24.5 C 21.703125 -25.257812 20.285156 -25.640625 18.765625 -25.640625 C 17.253906 -25.640625 15.851562 -25.269531 14.5625 -24.53125 C 13.28125 -23.789062 12.238281 -22.710938 11.4375 -21.296875 C 10.644531 -19.878906 10.25 -18.203125 10.25 -16.265625 C 10.25 -14.316406 10.644531 -12.613281 11.4375 -11.15625 C 12.238281 -9.695312 13.289062 -8.578125 14.59375 -7.796875 C 15.894531 -7.023438 17.285156 -6.640625 18.765625 -6.640625 C 20.285156 -6.640625 21.703125 -7.019531 23.015625 -7.78125 C 24.335938 -8.539062 25.382812 -9.628906 26.15625 -11.046875 C 26.9375 -12.460938 27.328125 -14.160156 27.328125 -16.140625 Z M 27.328125 -16.140625 "/></g></g></g><g fill="#000000" fill-opacity="1"><g transform="translate(288.347542, 614.155555)"><g><path d="M 48.78125 -32.28125 L 39.34375 0 L 30.546875 0 L 24.65625 -22.5625 L 18.765625 0 L 9.90625 0 L 0.40625 -32.28125 L 8.6875 -32.28125 L 14.390625 -7.6875 L 20.578125 -32.28125 L 29.203125 -32.28125 L 35.265625 -7.75 L 40.96875 -32.28125 Z M 48.78125 -32.28125 "/></g></g></g><g fill="#000000" fill-opacity="1"><g transform="translate(337.533688, 614.155555)"><g><path d="M 1.921875 -16.265625 C 1.921875 -19.523438 2.570312 -22.414062 3.875 -24.9375 C 5.175781 -27.46875 6.941406 -29.410156 9.171875 -30.765625 C 11.410156 -32.128906 13.910156 -32.8125 16.671875 -32.8125 C 19.078125 -32.8125 21.179688 -32.320312 22.984375 -31.34375 C 24.796875 -30.375 26.242188 -29.15625 27.328125 -27.6875 L 27.328125 -32.28125 L 35.546875 -32.28125 L 35.546875 0 L 27.328125 0 L 27.328125 -4.71875 C 26.285156 -3.207031 24.835938 -1.953125 22.984375 -0.953125 C 21.140625 0.0351562 19.015625 0.53125 16.609375 0.53125 C 13.890625 0.53125 11.410156 -0.164062 9.171875 -1.5625 C 6.941406 -2.96875 5.175781 -4.941406 3.875 -7.484375 C 2.570312 -10.035156 1.921875 -12.960938 1.921875 -16.265625 Z M 27.328125 -16.140625 C 27.328125 -18.117188 26.9375 -19.816406 26.15625 -21.234375 C 25.382812 -22.660156 24.335938 -23.75 23.015625 -24.5 C 21.703125 -25.257812 20.285156 -25.640625 18.765625 -25.640625 C 17.253906 -25.640625 15.851562 -25.269531 14.5625 -24.53125 C 13.28125 -23.789062 12.238281 -22.710938 11.4375 -21.296875 C 10.644531 -19.878906 10.25 -18.203125 10.25 -16.265625 C 10.25 -14.316406 10.644531 -12.613281 11.4375 -11.15625 C 12.238281 -9.695312 13.289062 -8.578125 14.59375 -7.796875 C 15.894531 -7.023438 17.285156 -6.640625 18.765625 -6.640625 C 20.285156 -6.640625 21.703125 -7.019531 23.015625 -7.78125 C 24.335938 -8.539062 25.382812 -9.628906 26.15625 -11.046875 C 26.9375 -12.460938 27.328125 -14.160156 27.328125 -16.140625 Z M 27.328125 -16.140625 "/></g></g></g><g fill="#000000" fill-opacity="1"><g transform="translate(377.045787, 614.155555)"><g/></g></g><g fill="#000000" fill-opacity="1"><g transform="translate(390.915827, 614.155555)"><g><path d="M 33.6875 -28.09375 C 33.6875 -25.914062 33.171875 -23.875 32.140625 -21.96875 C 31.109375 -20.0625 29.492188 -18.523438 27.296875 -17.359375 C 25.109375 -16.203125 22.34375 -15.625 19 -15.625 L 12.1875 -15.625 L 12.1875 0 L 4.015625 0 L 4.015625 -40.6875 L 19 -40.6875 C 22.144531 -40.6875 24.820312 -40.140625 27.03125 -39.046875 C 29.25 -37.960938 30.910156 -36.46875 32.015625 -34.5625 C 33.128906 -32.65625 33.6875 -30.5 33.6875 -28.09375 Z M 18.65625 -22.203125 C 20.90625 -22.203125 22.570312 -22.71875 23.65625 -23.75 C 24.75 -24.78125 25.296875 -26.226562 25.296875 -28.09375 C 25.296875 -32.050781 23.082031 -34.03125 18.65625 -34.03125 L 12.1875 -34.03125 L 12.1875 -22.203125 Z M 18.65625 -22.203125 "/></g></g></g><g fill="#000000" fill-opacity="1"><g transform="translate(426.348502, 614.155555)"><g><path d="M 34.5 -32.28125 L 34.5 0 L 26.28125 0 L 26.28125 -4.078125 C 25.238281 -2.679688 23.867188 -1.582031 22.171875 -0.78125 C 20.484375 0.0078125 18.648438 0.40625 16.671875 0.40625 C 14.140625 0.40625 11.898438 -0.125 9.953125 -1.1875 C 8.015625 -2.257812 6.492188 -3.832031 5.390625 -5.90625 C 4.285156 -7.988281 3.734375 -10.46875 3.734375 -13.34375 L 3.734375 -32.28125 L 11.890625 -32.28125 L 11.890625 -14.515625 C 11.890625 -11.953125 12.53125 -9.976562 13.8125 -8.59375 C 15.09375 -7.21875 16.84375 -6.53125 19.0625 -6.53125 C 21.3125 -6.53125 23.078125 -7.21875 24.359375 -8.59375 C 25.640625 -9.976562 26.28125 -11.953125 26.28125 -14.515625 L 26.28125 -32.28125 Z M 34.5 -32.28125 "/></g></g></g><g fill="#000000" fill-opacity="1"><g transform="translate(464.869891, 614.155555)"><g><path d="M 12.1875 -43.125 L 12.1875 0 L 4.015625 0 L 4.015625 -43.125 Z M 12.1875 -43.125 "/></g></g></g><g fill="#000000" fill-opacity="1"><g transform="translate(481.071028, 614.155555)"><g><path d="M 1.921875 -16.265625 C 1.921875 -19.523438 2.570312 -22.414062 3.875 -24.9375 C 5.175781 -27.46875 6.941406 -29.410156 9.171875 -30.765625 C 11.410156 -32.128906 13.910156 -32.8125 16.671875 -32.8125 C 19.078125 -32.8125 21.179688 -32.320312 22.984375 -31.34375 C 24.796875 -30.375 26.242188 -29.15625 27.328125 -27.6875 L 27.328125 -32.28125 L 35.546875 -32.28125 L 35.546875 0 L 27.328125 0 L 27.328125 -4.71875 C 26.285156 -3.207031 24.835938 -1.953125 22.984375 -0.953125 C 21.140625 0.0351562 19.015625 0.53125 16.609375 0.53125 C 13.890625 0.53125 11.410156 -0.164062 9.171875 -1.5625 C 6.941406 -2.96875 5.175781 -4.941406 3.875 -7.484375 C 2.570312 -10.035156 1.921875 -12.960938 1.921875 -16.265625 Z M 27.328125 -16.140625 C 27.328125 -18.117188 26.9375 -19.816406 26.15625 -21.234375 C 25.382812 -22.660156 24.335938 -23.75 23.015625 -24.5 C 21.703125 -25.257812 20.285156 -25.640625 18.765625 -25.640625 C 17.253906 -25.640625 15.851562 -25.269531 14.5625 -24.53125 C 13.28125 -23.789062 12.238281 -22.710938 11.4375 -21.296875 C 10.644531 -19.878906 10.25 -18.203125 10.25 -16.265625 C 10.25 -14.316406 10.644531 -12.613281 11.4375 -11.15625 C 12.238281 -9.695312 13.289062 -8.578125 14.59375 -7.796875 C 15.894531 -7.023438 17.285156 -6.640625 18.765625 -6.640625 C 20.285156 -6.640625 21.703125 -7.019531 23.015625 -7.78125 C 24.335938 -8.539062 25.382812 -9.628906 26.15625 -11.046875 C 26.9375 -12.460938 27.328125 -14.160156 27.328125 -16.140625 Z M 27.328125 -16.140625 "/></g></g></g><g fill="#000000" fill-opacity="1"><g transform="translate(520.583135, 614.155555)"><g><path d="M 21.90625 -32.75 C 25.757812 -32.75 28.867188 -31.535156 31.234375 -29.109375 C 33.609375 -26.679688 34.796875 -23.289062 34.796875 -18.9375 L 34.796875 0 L 26.640625 0 L 26.640625 -17.828125 C 26.640625 -20.398438 25.992188 -22.375 24.703125 -23.75 C 23.421875 -25.125 21.675781 -25.8125 19.46875 -25.8125 C 17.207031 -25.8125 15.425781 -25.125 14.125 -23.75 C 12.832031 -22.375 12.1875 -20.398438 12.1875 -17.828125 L 12.1875 0 L 4.015625 0 L 4.015625 -32.28125 L 12.1875 -32.28125 L 12.1875 -28.265625 C 13.269531 -29.660156 14.65625 -30.753906 16.34375 -31.546875 C 18.039062 -32.347656 19.894531 -32.75 21.90625 -32.75 Z M 21.90625 -32.75 "/></g></g></g><g fill="#000000" fill-opacity="1"><g transform="translate(559.104524, 614.155555)"><g><path d="M 16.671875 -32.8125 C 19.078125 -32.8125 21.191406 -32.332031 23.015625 -31.375 C 24.847656 -30.425781 26.285156 -29.195312 27.328125 -27.6875 L 27.328125 -32.28125 L 35.546875 -32.28125 L 35.546875 0.234375 C 35.546875 3.222656 34.941406 5.890625 33.734375 8.234375 C 32.535156 10.585938 30.734375 12.453125 28.328125 13.828125 C 25.921875 15.210938 23.003906 15.90625 19.578125 15.90625 C 14.992188 15.90625 11.234375 14.835938 8.296875 12.703125 C 5.367188 10.566406 3.710938 7.65625 3.328125 3.96875 L 11.421875 3.96875 C 11.847656 5.4375 12.769531 6.609375 14.1875 7.484375 C 15.601562 8.359375 17.320312 8.796875 19.34375 8.796875 C 21.71875 8.796875 23.640625 8.085938 25.109375 6.671875 C 26.585938 5.253906 27.328125 3.109375 27.328125 0.234375 L 27.328125 -4.78125 C 26.285156 -3.257812 24.835938 -1.992188 22.984375 -0.984375 C 21.140625 0.0234375 19.035156 0.53125 16.671875 0.53125 C 13.953125 0.53125 11.460938 -0.164062 9.203125 -1.5625 C 6.953125 -2.96875 5.175781 -4.941406 3.875 -7.484375 C 2.570312 -10.035156 1.921875 -12.960938 1.921875 -16.265625 C 1.921875 -19.523438 2.570312 -22.414062 3.875 -24.9375 C 5.175781 -27.46875 6.941406 -29.410156 9.171875 -30.765625 C 11.410156 -32.128906 13.910156 -32.8125 16.671875 -32.8125 Z M 27.328125 -16.140625 C 27.328125 -18.117188 26.9375 -19.816406 26.15625 -21.234375 C 25.382812 -22.660156 24.335938 -23.75 23.015625 -24.5 C 21.703125 -25.257812 20.285156 -25.640625 18.765625 -25.640625 C 17.253906 -25.640625 15.851562 -25.269531 14.5625 -24.53125 C 13.28125 -23.789062 12.238281 -22.710938 11.4375 -21.296875 C 10.644531 -19.878906 10.25 -18.203125 10.25 -16.265625 C 10.25 -14.316406 10.644531 -12.613281 11.4375 -11.15625 C 12.238281 -9.695312 13.289062 -8.578125 14.59375 -7.796875 C 15.894531 -7.023438 17.285156 -6.640625 18.765625 -6.640625 C 20.285156 -6.640625 21.703125 -7.019531 23.015625 -7.78125 C 24.335938 -8.539062 25.382812 -9.628906 26.15625 -11.046875 C 26.9375 -12.460938 27.328125 -14.160156 27.328125 -16.140625 Z M 27.328125 -16.140625 "/></g></g></g><g clip-path="url(#80f452066b)"><path fill="#000000" d="M 580.257812 380.972656 C 578.632812 377.480469 577.066406 374.285156 575.980469 371.453125 C 572.425781 362.175781 567 347.597656 560.855469 330.96875 C 538.738281 271.265625 519.9375 221.199219 513.609375 212.34375 C 511.019531 202.523438 502.160156 195.230469 491.492188 195.230469 L 282.808594 195.230469 C 270.152344 195.230469 259.90625 205.535156 259.90625 218.1875 L 259.90625 233.609375 C 259.90625 240.839844 263.28125 247.164062 268.523438 251.382812 C 263.824219 312.171875 259.546875 347.355469 241.949219 403.324219 C 240.5625 407.785156 237.792969 413.386719 234.898438 419.289062 C 226.644531 436.160156 216.339844 457.125 227.910156 470.441406 C 240.382812 484.78125 288.714844 489.597656 316.433594 491.226562 C 329.449219 492.007812 343.25 492.371094 357.050781 492.371094 C 408.152344 492.371094 459.132812 487.191406 472.449219 477.308594 L 472.511719 477.308594 C 491.011719 477.308594 575.800781 447.125 588.09375 422.726562 C 594.179688 410.617188 586.464844 394.167969 580.257812 380.972656 Z M 265.933594 233.609375 L 265.933594 218.1875 C 265.933594 208.847656 273.527344 201.257812 282.808594 201.257812 L 491.492188 201.257812 C 500.835938 201.257812 508.425781 208.847656 508.425781 218.1875 L 508.425781 233.609375 C 508.425781 242.949219 500.835938 250.539062 491.492188 250.539062 L 282.808594 250.539062 C 273.527344 250.539062 265.933594 242.949219 265.933594 233.609375 Z M 471.425781 469.234375 C 465.519531 446.644531 501.558594 285.421875 512.34375 244.453125 C 518.007812 280.058594 525.601562 340.847656 520.296875 384.046875 C 519.03125 394.347656 493.542969 438.628906 471.425781 469.234375 Z M 477.574219 471.105469 C 496.554688 444.472656 519.394531 406.097656 525 389.648438 C 549.828125 409.167969 573.628906 418.027344 582.246094 420.738281 C 570.738281 440.738281 500.171875 467.429688 477.574219 471.105469 Z M 584.054688 415.011719 C 575.617188 412.242188 551.03125 403.085938 526.445312 383.082031 C 532.109375 333.921875 521.867188 263.851562 516.320312 231.621094 C 526.503906 255.597656 543.136719 300.484375 555.191406 333.078125 C 561.398438 349.765625 566.820312 364.34375 570.375 373.625 C 571.519531 376.574219 573.085938 379.949219 574.773438 383.5625 C 579.535156 393.625 585.199219 405.734375 584.054688 415.011719 Z M 584.054688 415.011719 " fill-opacity="1" fill-rule="nonzero"/></g></svg>